%TF.GenerationSoftware,KiCad,Pcbnew,9.0.5*%
%TF.CreationDate,2025-10-11T12:45:19-04:00*%
%TF.ProjectId,midikeyboard,6d696469-6b65-4796-926f-6172642e6b69,rev?*%
%TF.SameCoordinates,Original*%
%TF.FileFunction,Soldermask,Bot*%
%TF.FilePolarity,Negative*%
%FSLAX46Y46*%
G04 Gerber Fmt 4.6, Leading zero omitted, Abs format (unit mm)*
G04 Created by KiCad (PCBNEW 9.0.5) date 2025-10-11 12:45:19*
%MOMM*%
%LPD*%
G01*
G04 APERTURE LIST*
G04 Aperture macros list*
%AMRoundRect*
0 Rectangle with rounded corners*
0 $1 Rounding radius*
0 $2 $3 $4 $5 $6 $7 $8 $9 X,Y pos of 4 corners*
0 Add a 4 corners polygon primitive as box body*
4,1,4,$2,$3,$4,$5,$6,$7,$8,$9,$2,$3,0*
0 Add four circle primitives for the rounded corners*
1,1,$1+$1,$2,$3*
1,1,$1+$1,$4,$5*
1,1,$1+$1,$6,$7*
1,1,$1+$1,$8,$9*
0 Add four rect primitives between the rounded corners*
20,1,$1+$1,$2,$3,$4,$5,0*
20,1,$1+$1,$4,$5,$6,$7,0*
20,1,$1+$1,$6,$7,$8,$9,0*
20,1,$1+$1,$8,$9,$2,$3,0*%
%AMFreePoly0*
4,1,37,0.603843,0.796157,0.639018,0.796157,0.711114,0.766294,0.766294,0.711114,0.796157,0.639018,0.796157,0.603843,0.800000,0.600000,0.800000,-0.600000,0.796157,-0.603843,0.796157,-0.639018,0.766294,-0.711114,0.711114,-0.766294,0.639018,-0.796157,0.603843,-0.796157,0.600000,-0.800000,0.000000,-0.800000,0.000000,-0.796148,-0.078414,-0.796148,-0.232228,-0.765552,-0.377117,-0.705537,
-0.507515,-0.618408,-0.618408,-0.507515,-0.705537,-0.377117,-0.765552,-0.232228,-0.796148,-0.078414,-0.796148,0.078414,-0.765552,0.232228,-0.705537,0.377117,-0.618408,0.507515,-0.507515,0.618408,-0.377117,0.705537,-0.232228,0.765552,-0.078414,0.796148,0.000000,0.796148,0.000000,0.800000,0.600000,0.800000,0.603843,0.796157,0.603843,0.796157,$1*%
%AMFreePoly1*
4,1,37,0.000000,0.796148,0.078414,0.796148,0.232228,0.765552,0.377117,0.705537,0.507515,0.618408,0.618408,0.507515,0.705537,0.377117,0.765552,0.232228,0.796148,0.078414,0.796148,-0.078414,0.765552,-0.232228,0.705537,-0.377117,0.618408,-0.507515,0.507515,-0.618408,0.377117,-0.705537,0.232228,-0.765552,0.078414,-0.796148,0.000000,-0.796148,0.000000,-0.800000,-0.600000,-0.800000,
-0.603843,-0.796157,-0.639018,-0.796157,-0.711114,-0.766294,-0.766294,-0.711114,-0.796157,-0.639018,-0.796157,-0.603843,-0.800000,-0.600000,-0.800000,0.600000,-0.796157,0.603843,-0.796157,0.639018,-0.766294,0.711114,-0.711114,0.766294,-0.639018,0.796157,-0.603843,0.796157,-0.600000,0.800000,0.000000,0.800000,0.000000,0.796148,0.000000,0.796148,$1*%
G04 Aperture macros list end*
%ADD10C,1.750000*%
%ADD11C,4.000000*%
%ADD12C,2.500000*%
%ADD13R,1.600000X1.600000*%
%ADD14O,1.600000X1.600000*%
%ADD15C,3.200000*%
%ADD16R,2.000000X2.000000*%
%ADD17C,2.000000*%
%ADD18R,3.200000X2.000000*%
%ADD19C,1.778000*%
%ADD20C,1.879600*%
%ADD21C,3.301600*%
%ADD22R,1.700000X1.700000*%
%ADD23C,1.700000*%
%ADD24C,2.200000*%
%ADD25C,1.850000*%
%ADD26RoundRect,0.200000X-0.600000X-0.600000X0.600000X-0.600000X0.600000X0.600000X-0.600000X0.600000X0*%
%ADD27C,1.600000*%
%ADD28FreePoly0,0.000000*%
%ADD29FreePoly1,0.000000*%
G04 APERTURE END LIST*
D10*
%TO.C,S19*%
X204152500Y-133350000D03*
D11*
X209232500Y-133350000D03*
D10*
X214312500Y-133350000D03*
D12*
X205422500Y-130810000D03*
X211772500Y-128270000D03*
%TD*%
D13*
%TO.C,D29*%
X103346250Y-83343750D03*
D14*
X110966250Y-83343750D03*
%TD*%
D10*
%TO.C,S20*%
X223520000Y-133350000D03*
D11*
X228600000Y-133350000D03*
D10*
X233680000Y-133350000D03*
D12*
X224790000Y-130810000D03*
X231140000Y-128270000D03*
%TD*%
D13*
%TO.C,D9*%
X104775000Y-118110000D03*
D14*
X104775000Y-110490000D03*
%TD*%
D15*
%TO.C,H3*%
X19050000Y-130968750D03*
%TD*%
D10*
%TO.C,S15*%
X165576250Y-133667500D03*
D11*
X170656250Y-133667500D03*
D10*
X175736250Y-133667500D03*
D12*
X166846250Y-131127500D03*
X173196250Y-128587500D03*
%TD*%
D10*
%TO.C,S27*%
X54451250Y-69056250D03*
D11*
X59531250Y-69056250D03*
D10*
X64611250Y-69056250D03*
D12*
X55721250Y-66516250D03*
X62071250Y-63976250D03*
%TD*%
D10*
%TO.C,S21*%
X30638750Y-47625000D03*
D11*
X35718750Y-47625000D03*
D10*
X40798750Y-47625000D03*
D12*
X31908750Y-45085000D03*
X38258750Y-42545000D03*
%TD*%
D13*
%TO.C,D8*%
X119062500Y-118110000D03*
D14*
X119062500Y-110490000D03*
%TD*%
D16*
%TO.C,SW2*%
X254581250Y-121206250D03*
D17*
X254581250Y-126206250D03*
X254581250Y-123706250D03*
D18*
X262081250Y-118106250D03*
X262081250Y-129306250D03*
D17*
X269081250Y-126206250D03*
X269081250Y-121206250D03*
%TD*%
D10*
%TO.C,S1*%
X22701250Y-152717500D03*
D11*
X27781250Y-152717500D03*
D10*
X32861250Y-152717500D03*
D12*
X23971250Y-150177500D03*
X30321250Y-147637500D03*
%TD*%
D13*
%TO.C,D28*%
X115252500Y-88106250D03*
D14*
X122872500Y-88106250D03*
%TD*%
D19*
%TO.C,U1*%
X183356250Y-64452500D03*
X183356250Y-61912500D03*
X183356250Y-59372500D03*
X183356250Y-56832500D03*
X183356250Y-54292500D03*
X183356250Y-51752500D03*
X183356250Y-49212500D03*
X183356250Y-46672500D03*
D20*
X168116250Y-61912500D03*
X168116250Y-59372500D03*
X168116250Y-56832500D03*
X168116250Y-54292500D03*
X168116250Y-51752500D03*
X168116250Y-49212500D03*
D21*
X168116250Y-68262500D03*
X183356250Y-68262500D03*
X168116250Y-42862500D03*
X183356250Y-42862500D03*
%TD*%
D10*
%TO.C,S6*%
X80486250Y-152717500D03*
D11*
X85566250Y-152717500D03*
D10*
X90646250Y-152717500D03*
D12*
X81756250Y-150177500D03*
X88106250Y-147637500D03*
%TD*%
D10*
%TO.C,S29*%
X100012500Y-69056250D03*
D11*
X105092500Y-69056250D03*
D10*
X110172500Y-69056250D03*
D12*
X101282500Y-66516250D03*
X107632500Y-63976250D03*
%TD*%
D22*
%TO.C,J1*%
X190500000Y-80168750D03*
D23*
X190500000Y-82708750D03*
X190500000Y-85248750D03*
X190500000Y-87788750D03*
X190500000Y-90328750D03*
X190500000Y-92868750D03*
X190500000Y-95408750D03*
X190500000Y-97948750D03*
%TD*%
D13*
%TO.C,D18*%
X214312500Y-119538750D03*
D14*
X214312500Y-111918750D03*
%TD*%
D10*
%TO.C,S11*%
X137318750Y-152717500D03*
D11*
X142398750Y-152717500D03*
D10*
X147478750Y-152717500D03*
D12*
X138588750Y-150177500D03*
X144938750Y-147637500D03*
%TD*%
D13*
%TO.C,D10*%
X111918750Y-118110000D03*
D14*
X111918750Y-110490000D03*
%TD*%
D10*
%TO.C,S13*%
X175736250Y-152717500D03*
D11*
X180816250Y-152717500D03*
D10*
X185896250Y-152717500D03*
D12*
X177006250Y-150177500D03*
X183356250Y-147637500D03*
%TD*%
D13*
%TO.C,D32*%
X83026250Y-92868750D03*
D14*
X90646250Y-92868750D03*
%TD*%
D16*
%TO.C,SW1*%
X254687500Y-94975063D03*
D17*
X254687500Y-99975063D03*
X254687500Y-97475063D03*
D18*
X262187500Y-91875063D03*
X262187500Y-103075063D03*
D17*
X269187500Y-99975063D03*
X269187500Y-94975063D03*
%TD*%
D15*
%TO.C,H1*%
X19050000Y-42862500D03*
%TD*%
D13*
%TO.C,D1*%
X33337500Y-118110000D03*
D14*
X33337500Y-110490000D03*
%TD*%
D13*
%TO.C,D25*%
X115252500Y-102393750D03*
D14*
X122872500Y-102393750D03*
%TD*%
D13*
%TO.C,D13*%
X164306250Y-118110000D03*
D14*
X164306250Y-110490000D03*
%TD*%
D10*
%TO.C,S30*%
X125888750Y-69056250D03*
D11*
X130968750Y-69056250D03*
D10*
X136048750Y-69056250D03*
D12*
X127158750Y-66516250D03*
X133508750Y-63976250D03*
%TD*%
D10*
%TO.C,S16*%
X195262500Y-152400000D03*
D11*
X200342500Y-152400000D03*
D10*
X205422500Y-152400000D03*
D12*
X196532500Y-149860000D03*
X202882500Y-147320000D03*
%TD*%
D13*
%TO.C,D23*%
X103346250Y-97631250D03*
D14*
X110966250Y-97631250D03*
%TD*%
D10*
%TO.C,S22*%
X54451250Y-47625000D03*
D11*
X59531250Y-47625000D03*
D10*
X64611250Y-47625000D03*
D12*
X55721250Y-45085000D03*
X62071250Y-42545000D03*
%TD*%
D10*
%TO.C,S26*%
X30638750Y-69056250D03*
D11*
X35718750Y-69056250D03*
D10*
X40798750Y-69056250D03*
D12*
X31908750Y-66516250D03*
X38258750Y-63976250D03*
%TD*%
D13*
%TO.C,D4*%
X42862500Y-118110000D03*
D14*
X42862500Y-110490000D03*
%TD*%
D10*
%TO.C,S8*%
X118268750Y-152717500D03*
D11*
X123348750Y-152717500D03*
D10*
X128428750Y-152717500D03*
D12*
X119538750Y-150177500D03*
X125888750Y-147637500D03*
%TD*%
D13*
%TO.C,D7*%
X126206250Y-118110000D03*
D14*
X126206250Y-110490000D03*
%TD*%
D13*
%TO.C,D6*%
X97631250Y-119062500D03*
D14*
X97631250Y-111442500D03*
%TD*%
D13*
%TO.C,D2*%
X59531250Y-118110000D03*
D14*
X59531250Y-110490000D03*
%TD*%
D13*
%TO.C,D20*%
X226218750Y-118110000D03*
D14*
X226218750Y-110490000D03*
%TD*%
D22*
%TO.C,J2*%
X161925000Y-86677500D03*
D23*
X161925000Y-89217500D03*
X161925000Y-91757500D03*
X161925000Y-94297500D03*
%TD*%
D13*
%TO.C,D12*%
X154781250Y-118110000D03*
D14*
X154781250Y-110490000D03*
%TD*%
D10*
%TO.C,S18*%
X233362500Y-152400000D03*
D11*
X238442500Y-152400000D03*
D10*
X243522500Y-152400000D03*
D12*
X234632500Y-149860000D03*
X240982500Y-147320000D03*
%TD*%
D13*
%TO.C,D26*%
X115252500Y-97631250D03*
D14*
X122872500Y-97631250D03*
%TD*%
D10*
%TO.C,S17*%
X213995000Y-152400000D03*
D11*
X219075000Y-152400000D03*
D10*
X224155000Y-152400000D03*
D12*
X215265000Y-149860000D03*
X221615000Y-147320000D03*
%TD*%
D13*
%TO.C,D19*%
X221456250Y-119538750D03*
D14*
X221456250Y-111918750D03*
%TD*%
D10*
%TO.C,S12*%
X156686250Y-152717500D03*
D11*
X161766250Y-152717500D03*
D10*
X166846250Y-152717500D03*
D12*
X157956250Y-150177500D03*
X164306250Y-147637500D03*
%TD*%
D13*
%TO.C,D31*%
X65246250Y-85725000D03*
D14*
X72866250Y-85725000D03*
%TD*%
D10*
%TO.C,S24*%
X99695000Y-47625000D03*
D11*
X104775000Y-47625000D03*
D10*
X109855000Y-47625000D03*
D12*
X100965000Y-45085000D03*
X107315000Y-42545000D03*
%TD*%
D15*
%TO.C,H4*%
X264318750Y-157162500D03*
%TD*%
D13*
%TO.C,D21*%
X103346250Y-88106250D03*
D14*
X110966250Y-88106250D03*
%TD*%
D13*
%TO.C,D14*%
X138112500Y-118110000D03*
D14*
X138112500Y-110490000D03*
%TD*%
D10*
%TO.C,S5*%
X51593750Y-133667500D03*
D11*
X56673750Y-133667500D03*
D10*
X61753750Y-133667500D03*
D12*
X52863750Y-131127500D03*
X59213750Y-128587500D03*
%TD*%
D13*
%TO.C,D22*%
X103346250Y-92868750D03*
D14*
X110966250Y-92868750D03*
%TD*%
D10*
%TO.C,S25*%
X125571250Y-47625000D03*
D11*
X130651250Y-47625000D03*
D10*
X135731250Y-47625000D03*
D12*
X126841250Y-45085000D03*
X133191250Y-42545000D03*
%TD*%
D10*
%TO.C,S4*%
X32543750Y-133667500D03*
D11*
X37623750Y-133667500D03*
D10*
X42703750Y-133667500D03*
D12*
X33813750Y-131127500D03*
X40163750Y-128587500D03*
%TD*%
D10*
%TO.C,S7*%
X99536250Y-152717500D03*
D11*
X104616250Y-152717500D03*
D10*
X109696250Y-152717500D03*
D12*
X100806250Y-150177500D03*
X107156250Y-147637500D03*
%TD*%
D15*
%TO.C,H2*%
X266700000Y-42862500D03*
%TD*%
D13*
%TO.C,D3*%
X52387500Y-118110000D03*
D14*
X52387500Y-110490000D03*
%TD*%
D13*
%TO.C,D17*%
X207168750Y-118110000D03*
D14*
X207168750Y-110490000D03*
%TD*%
D13*
%TO.C,D24*%
X103346250Y-102393750D03*
D14*
X110966250Y-102393750D03*
%TD*%
D10*
%TO.C,S23*%
X78581250Y-47625000D03*
D11*
X83661250Y-47625000D03*
D10*
X88741250Y-47625000D03*
D12*
X79851250Y-45085000D03*
X86201250Y-42545000D03*
%TD*%
D13*
%TO.C,D27*%
X116681250Y-92868750D03*
D14*
X124301250Y-92868750D03*
%TD*%
D10*
%TO.C,S10*%
X108743750Y-133667500D03*
D11*
X113823750Y-133667500D03*
D10*
X118903750Y-133667500D03*
D12*
X110013750Y-131127500D03*
X116363750Y-128587500D03*
%TD*%
D13*
%TO.C,D11*%
X145256250Y-118110000D03*
D14*
X145256250Y-110490000D03*
%TD*%
D13*
%TO.C,D15*%
X173831250Y-119062500D03*
D14*
X173831250Y-111442500D03*
%TD*%
D10*
%TO.C,S14*%
X147161250Y-133667500D03*
D11*
X152241250Y-133667500D03*
D10*
X157321250Y-133667500D03*
D12*
X148431250Y-131127500D03*
X154781250Y-128587500D03*
%TD*%
D13*
%TO.C,D5*%
X90487500Y-118110000D03*
D14*
X90487500Y-110490000D03*
%TD*%
D10*
%TO.C,S9*%
X89693750Y-133667500D03*
D11*
X94773750Y-133667500D03*
D10*
X99853750Y-133667500D03*
D12*
X90963750Y-131127500D03*
X97313750Y-128587500D03*
%TD*%
D10*
%TO.C,S3*%
X61118750Y-152717500D03*
D11*
X66198750Y-152717500D03*
D10*
X71278750Y-152717500D03*
D12*
X62388750Y-150177500D03*
X68738750Y-147637500D03*
%TD*%
D10*
%TO.C,S2*%
X42068750Y-152717500D03*
D11*
X47148750Y-152717500D03*
D10*
X52228750Y-152717500D03*
D12*
X43338750Y-150177500D03*
X49688750Y-147637500D03*
%TD*%
D24*
%TO.C,A1*%
X221112500Y-40293750D03*
D25*
X221412500Y-43323750D03*
X226262500Y-43323750D03*
D24*
X226562500Y-40293750D03*
D26*
X214947500Y-40163750D03*
D27*
X214947500Y-42703750D03*
D28*
X214947500Y-45243750D03*
D27*
X214947500Y-47783750D03*
X214947500Y-50323750D03*
X214947500Y-52863750D03*
X214947500Y-55403750D03*
D28*
X214947500Y-57943750D03*
D27*
X214947500Y-60483750D03*
X214947500Y-63023750D03*
X214947500Y-65563750D03*
X214947500Y-68103750D03*
D28*
X214947500Y-70643750D03*
D27*
X214947500Y-73183750D03*
X214947500Y-75723750D03*
X214947500Y-78263750D03*
X214947500Y-80803750D03*
D28*
X214947500Y-83343750D03*
D27*
X214947500Y-85883750D03*
X214947500Y-88423750D03*
X232727500Y-88423750D03*
X232727500Y-85883750D03*
D29*
X232727500Y-83343750D03*
D27*
X232727500Y-80803750D03*
X232727500Y-78263750D03*
X232727500Y-75723750D03*
X232727500Y-73183750D03*
D29*
X232727500Y-70643750D03*
D27*
X232727500Y-68103750D03*
X232727500Y-65563750D03*
X232727500Y-63023750D03*
X232727500Y-60483750D03*
D29*
X232727500Y-57943750D03*
D27*
X232727500Y-55403750D03*
X232727500Y-52863750D03*
X232727500Y-50323750D03*
X232727500Y-47783750D03*
D29*
X232727500Y-45243750D03*
D27*
X232727500Y-42703750D03*
X232727500Y-40163750D03*
%TD*%
D10*
%TO.C,S28*%
X78581250Y-69056250D03*
D11*
X83661250Y-69056250D03*
D10*
X88741250Y-69056250D03*
D12*
X79851250Y-66516250D03*
X86201250Y-63976250D03*
%TD*%
D13*
%TO.C,D30*%
X47625000Y-82867500D03*
D14*
X47625000Y-90487500D03*
%TD*%
D13*
%TO.C,D16*%
X200025000Y-119062500D03*
D14*
X200025000Y-111442500D03*
%TD*%
M02*
