%TF.GenerationSoftware,KiCad,Pcbnew,9.0.5*%
%TF.CreationDate,2025-10-11T12:45:19-04:00*%
%TF.ProjectId,midikeyboard,6d696469-6b65-4796-926f-6172642e6b69,rev?*%
%TF.SameCoordinates,Original*%
%TF.FileFunction,Copper,L1,Top*%
%TF.FilePolarity,Positive*%
%FSLAX46Y46*%
G04 Gerber Fmt 4.6, Leading zero omitted, Abs format (unit mm)*
G04 Created by KiCad (PCBNEW 9.0.5) date 2025-10-11 12:45:19*
%MOMM*%
%LPD*%
G01*
G04 APERTURE LIST*
G04 Aperture macros list*
%AMRoundRect*
0 Rectangle with rounded corners*
0 $1 Rounding radius*
0 $2 $3 $4 $5 $6 $7 $8 $9 X,Y pos of 4 corners*
0 Add a 4 corners polygon primitive as box body*
4,1,4,$2,$3,$4,$5,$6,$7,$8,$9,$2,$3,0*
0 Add four circle primitives for the rounded corners*
1,1,$1+$1,$2,$3*
1,1,$1+$1,$4,$5*
1,1,$1+$1,$6,$7*
1,1,$1+$1,$8,$9*
0 Add four rect primitives between the rounded corners*
20,1,$1+$1,$2,$3,$4,$5,0*
20,1,$1+$1,$4,$5,$6,$7,0*
20,1,$1+$1,$6,$7,$8,$9,0*
20,1,$1+$1,$8,$9,$2,$3,0*%
%AMFreePoly0*
4,1,37,0.800000,0.796148,0.878414,0.796148,1.032228,0.765552,1.177117,0.705537,1.307515,0.618408,1.418408,0.507515,1.505537,0.377117,1.565552,0.232228,1.596148,0.078414,1.596148,-0.078414,1.565552,-0.232228,1.505537,-0.377117,1.418408,-0.507515,1.307515,-0.618408,1.177117,-0.705537,1.032228,-0.765552,0.878414,-0.796148,0.800000,-0.796148,0.800000,-0.800000,-1.400000,-0.800000,
-1.403843,-0.796157,-1.439018,-0.796157,-1.511114,-0.766294,-1.566294,-0.711114,-1.596157,-0.639018,-1.596157,-0.603843,-1.600000,-0.600000,-1.600000,0.600000,-1.596157,0.603843,-1.596157,0.639018,-1.566294,0.711114,-1.511114,0.766294,-1.439018,0.796157,-1.403843,0.796157,-1.400000,0.800000,0.800000,0.800000,0.800000,0.796148,0.800000,0.796148,$1*%
%AMFreePoly1*
4,1,37,1.403843,0.796157,1.439018,0.796157,1.511114,0.766294,1.566294,0.711114,1.596157,0.639018,1.596157,0.603843,1.600000,0.600000,1.600000,-0.600000,1.596157,-0.603843,1.596157,-0.639018,1.566294,-0.711114,1.511114,-0.766294,1.439018,-0.796157,1.403843,-0.796157,1.400000,-0.800000,-0.800000,-0.800000,-0.800000,-0.796148,-0.878414,-0.796148,-1.032228,-0.765552,-1.177117,-0.705537,
-1.307515,-0.618408,-1.418408,-0.507515,-1.505537,-0.377117,-1.565552,-0.232228,-1.596148,-0.078414,-1.596148,0.078414,-1.565552,0.232228,-1.505537,0.377117,-1.418408,0.507515,-1.307515,0.618408,-1.177117,0.705537,-1.032228,0.765552,-0.878414,0.796148,-0.800000,0.796148,-0.800000,0.800000,1.400000,0.800000,1.403843,0.796157,1.403843,0.796157,$1*%
%AMFreePoly2*
4,1,37,0.603843,0.796157,0.639018,0.796157,0.711114,0.766294,0.766294,0.711114,0.796157,0.639018,0.796157,0.603843,0.800000,0.600000,0.800000,-0.600000,0.796157,-0.603843,0.796157,-0.639018,0.766294,-0.711114,0.711114,-0.766294,0.639018,-0.796157,0.603843,-0.796157,0.600000,-0.800000,0.000000,-0.800000,0.000000,-0.796148,-0.078414,-0.796148,-0.232228,-0.765552,-0.377117,-0.705537,
-0.507515,-0.618408,-0.618408,-0.507515,-0.705537,-0.377117,-0.765552,-0.232228,-0.796148,-0.078414,-0.796148,0.078414,-0.765552,0.232228,-0.705537,0.377117,-0.618408,0.507515,-0.507515,0.618408,-0.377117,0.705537,-0.232228,0.765552,-0.078414,0.796148,0.000000,0.796148,0.000000,0.800000,0.600000,0.800000,0.603843,0.796157,0.603843,0.796157,$1*%
%AMFreePoly3*
4,1,37,0.000000,0.796148,0.078414,0.796148,0.232228,0.765552,0.377117,0.705537,0.507515,0.618408,0.618408,0.507515,0.705537,0.377117,0.765552,0.232228,0.796148,0.078414,0.796148,-0.078414,0.765552,-0.232228,0.705537,-0.377117,0.618408,-0.507515,0.507515,-0.618408,0.377117,-0.705537,0.232228,-0.765552,0.078414,-0.796148,0.000000,-0.796148,0.000000,-0.800000,-0.600000,-0.800000,
-0.603843,-0.796157,-0.639018,-0.796157,-0.711114,-0.766294,-0.766294,-0.711114,-0.796157,-0.639018,-0.796157,-0.603843,-0.800000,-0.600000,-0.800000,0.600000,-0.796157,0.603843,-0.796157,0.639018,-0.766294,0.711114,-0.711114,0.766294,-0.639018,0.796157,-0.603843,0.796157,-0.600000,0.800000,0.000000,0.800000,0.000000,0.796148,0.000000,0.796148,$1*%
G04 Aperture macros list end*
%TA.AperFunction,ComponentPad*%
%ADD10C,2.500000*%
%TD*%
%TA.AperFunction,ComponentPad*%
%ADD11R,1.600000X1.600000*%
%TD*%
%TA.AperFunction,ComponentPad*%
%ADD12O,1.600000X1.600000*%
%TD*%
%TA.AperFunction,ComponentPad*%
%ADD13R,2.000000X2.000000*%
%TD*%
%TA.AperFunction,ComponentPad*%
%ADD14C,2.000000*%
%TD*%
%TA.AperFunction,ComponentPad*%
%ADD15R,3.200000X2.000000*%
%TD*%
%TA.AperFunction,ComponentPad*%
%ADD16C,1.676400*%
%TD*%
%TA.AperFunction,ComponentPad*%
%ADD17C,1.778000*%
%TD*%
%TA.AperFunction,ComponentPad*%
%ADD18C,3.200000*%
%TD*%
%TA.AperFunction,ComponentPad*%
%ADD19R,1.700000X1.700000*%
%TD*%
%TA.AperFunction,ComponentPad*%
%ADD20C,1.700000*%
%TD*%
%TA.AperFunction,SMDPad,CuDef*%
%ADD21FreePoly0,0.000000*%
%TD*%
%TA.AperFunction,ComponentPad*%
%ADD22RoundRect,0.200000X-0.600000X-0.600000X0.600000X-0.600000X0.600000X0.600000X-0.600000X0.600000X0*%
%TD*%
%TA.AperFunction,SMDPad,CuDef*%
%ADD23RoundRect,0.800000X-0.800000X-0.000010X0.800000X-0.000010X0.800000X0.000010X-0.800000X0.000010X0*%
%TD*%
%TA.AperFunction,ComponentPad*%
%ADD24C,1.600000*%
%TD*%
%TA.AperFunction,SMDPad,CuDef*%
%ADD25FreePoly1,0.000000*%
%TD*%
%TA.AperFunction,ComponentPad*%
%ADD26FreePoly2,0.000000*%
%TD*%
%TA.AperFunction,ComponentPad*%
%ADD27FreePoly3,0.000000*%
%TD*%
%TA.AperFunction,ViaPad*%
%ADD28C,0.600000*%
%TD*%
%TA.AperFunction,Conductor*%
%ADD29C,0.200000*%
%TD*%
G04 APERTURE END LIST*
D10*
%TO.P,S19,1,1*%
%TO.N,col0*%
X205422500Y-130810000D03*
%TO.P,S19,2,2*%
%TO.N,Net-(D19-K)*%
X211772500Y-128270000D03*
%TD*%
D11*
%TO.P,D29,1,K*%
%TO.N,Net-(D29-K)*%
X103346250Y-83343750D03*
D12*
%TO.P,D29,2,A*%
%TO.N,row4*%
X110966250Y-83343750D03*
%TD*%
D10*
%TO.P,S20,1,1*%
%TO.N,col1*%
X224790000Y-130810000D03*
%TO.P,S20,2,2*%
%TO.N,Net-(D20-K)*%
X231140000Y-128270000D03*
%TD*%
D11*
%TO.P,D9,1,K*%
%TO.N,Net-(D9-K)*%
X104775000Y-118110000D03*
D12*
%TO.P,D9,2,A*%
%TO.N,row1*%
X104775000Y-110490000D03*
%TD*%
D10*
%TO.P,S15,1,1*%
%TO.N,col2*%
X166846250Y-131127500D03*
%TO.P,S15,2,2*%
%TO.N,Net-(D15-K)*%
X173196250Y-128587500D03*
%TD*%
%TO.P,S27,1,1*%
%TO.N,col2*%
X55721250Y-66516250D03*
%TO.P,S27,2,2*%
%TO.N,Net-(D27-K)*%
X62071250Y-63976250D03*
%TD*%
%TO.P,S21,1,1*%
%TO.N,col2*%
X31908750Y-45085000D03*
%TO.P,S21,2,2*%
%TO.N,Net-(D21-K)*%
X38258750Y-42545000D03*
%TD*%
D11*
%TO.P,D8,1,K*%
%TO.N,Net-(D8-K)*%
X119062500Y-118110000D03*
D12*
%TO.P,D8,2,A*%
%TO.N,row1*%
X119062500Y-110490000D03*
%TD*%
D13*
%TO.P,SW2,A,A*%
%TO.N,a2*%
X254581250Y-121206250D03*
D14*
%TO.P,SW2,B,B*%
%TO.N,b2*%
X254581250Y-126206250D03*
%TO.P,SW2,C,C*%
%TO.N,GND*%
X254581250Y-123706250D03*
D15*
%TO.P,SW2,MP,MP*%
X262081250Y-118106250D03*
X262081250Y-129306250D03*
D14*
%TO.P,SW2,S1,S1*%
%TO.N,2s1*%
X269081250Y-126206250D03*
%TO.P,SW2,S2,S2*%
%TO.N,2s2*%
X269081250Y-121206250D03*
%TD*%
D10*
%TO.P,S1,1,1*%
%TO.N,col0*%
X23971250Y-150177500D03*
%TO.P,S1,2,2*%
%TO.N,Net-(D1-K)*%
X30321250Y-147637500D03*
%TD*%
D11*
%TO.P,D28,1,K*%
%TO.N,Net-(D28-K)*%
X115252500Y-88106250D03*
D12*
%TO.P,D28,2,A*%
%TO.N,row4*%
X122872500Y-88106250D03*
%TD*%
D16*
%TO.P,U1,1,CPVDD*%
%TO.N,unconnected-(U1-CPVDD-Pad1)*%
X183356250Y-64452500D03*
%TO.P,U1,2,CAPP*%
%TO.N,unconnected-(U1-CAPP-Pad2)*%
X183356250Y-61912500D03*
%TO.P,U1,3,CPGND*%
%TO.N,GND*%
X183356250Y-59372500D03*
%TO.P,U1,4,CAPM*%
%TO.N,unconnected-(U1-CAPM-Pad4)*%
X183356250Y-56832500D03*
%TO.P,U1,5,VNEG*%
%TO.N,unconnected-(U1-VNEG-Pad5)*%
X183356250Y-54292500D03*
%TO.P,U1,6,OUTL*%
%TO.N,unconnected-(U1-OUTL-Pad6)*%
X183356250Y-51752500D03*
%TO.P,U1,7,OUTR*%
%TO.N,unconnected-(U1-OUTR-Pad7)*%
X183356250Y-49212500D03*
%TO.P,U1,8,AVDD*%
%TO.N,unconnected-(U1-AVDD-Pad8)*%
X183356250Y-46672500D03*
D17*
%TO.P,U1,9,AGND*%
%TO.N,GND*%
X168116250Y-61912500D03*
%TO.P,U1,10,DEMP*%
%TO.N,unconnected-(U1-DEMP-Pad10)*%
X168116250Y-59372500D03*
%TO.P,U1,11,FLT*%
%TO.N,unconnected-(U1-FLT-Pad11)*%
X168116250Y-56832500D03*
%TO.P,U1,12,SCK*%
%TO.N,unconnected-(U1-SCK-Pad12)*%
X168116250Y-54292500D03*
%TO.P,U1,13,BCK*%
%TO.N,BCK*%
X168116250Y-51752500D03*
%TO.P,U1,14,DIN*%
%TO.N,din*%
X168116250Y-49212500D03*
D18*
%TO.P,U1,P1*%
%TO.N,N/C*%
X168116250Y-68262500D03*
X183356250Y-68262500D03*
X168116250Y-42862500D03*
X183356250Y-42862500D03*
%TD*%
D10*
%TO.P,S6,1,1*%
%TO.N,col5*%
X81756250Y-150177500D03*
%TO.P,S6,2,2*%
%TO.N,Net-(D6-K)*%
X88106250Y-147637500D03*
%TD*%
%TO.P,S29,1,1*%
%TO.N,col4*%
X101282500Y-66516250D03*
%TO.P,S29,2,2*%
%TO.N,Net-(D29-K)*%
X107632500Y-63976250D03*
%TD*%
D19*
%TO.P,J1,1,Pin_1*%
%TO.N,+3V3*%
X190500000Y-80168750D03*
D20*
%TO.P,J1,2,Pin_2*%
%TO.N,GND*%
X190500000Y-82708750D03*
%TO.P,J1,3,Pin_3*%
%TO.N,CS_LCD*%
X190500000Y-85248750D03*
%TO.P,J1,4,Pin_4*%
%TO.N,RST*%
X190500000Y-87788750D03*
%TO.P,J1,5,Pin_5*%
%TO.N,A0*%
X190500000Y-90328750D03*
%TO.P,J1,6,Pin_6*%
%TO.N,MOSI*%
X190500000Y-92868750D03*
%TO.P,J1,7,Pin_7*%
%TO.N,SCK*%
X190500000Y-95408750D03*
%TO.P,J1,8,Pin_8*%
%TO.N,+3V3*%
X190500000Y-97948750D03*
%TD*%
D11*
%TO.P,D18,1,K*%
%TO.N,Net-(D18-K)*%
X214312500Y-119538750D03*
D12*
%TO.P,D18,2,A*%
%TO.N,row2*%
X214312500Y-111918750D03*
%TD*%
D10*
%TO.P,S11,1,1*%
%TO.N,col4*%
X138588750Y-150177500D03*
%TO.P,S11,2,2*%
%TO.N,Net-(D11-K)*%
X144938750Y-147637500D03*
%TD*%
D11*
%TO.P,D10,1,K*%
%TO.N,Net-(D10-K)*%
X111918750Y-118110000D03*
D12*
%TO.P,D10,2,A*%
%TO.N,row1*%
X111918750Y-110490000D03*
%TD*%
D10*
%TO.P,S13,1,1*%
%TO.N,col0*%
X177006250Y-150177500D03*
%TO.P,S13,2,2*%
%TO.N,Net-(D13-K)*%
X183356250Y-147637500D03*
%TD*%
D11*
%TO.P,D32,1,K*%
%TO.N,col5*%
X83026250Y-92868750D03*
D12*
%TO.P,D32,2,A*%
%TO.N,2S2*%
X90646250Y-92868750D03*
%TD*%
D13*
%TO.P,SW1,A,A*%
%TO.N,a1*%
X254687500Y-94975063D03*
D14*
%TO.P,SW1,B,B*%
%TO.N,b1*%
X254687500Y-99975063D03*
%TO.P,SW1,C,C*%
%TO.N,GND*%
X254687500Y-97475063D03*
D15*
%TO.P,SW1,MP,MP*%
X262187500Y-91875063D03*
X262187500Y-103075063D03*
D14*
%TO.P,SW1,S1,S1*%
%TO.N,1s1*%
X269187500Y-99975063D03*
%TO.P,SW1,S2,S2*%
%TO.N,1s2*%
X269187500Y-94975063D03*
%TD*%
D11*
%TO.P,D1,1,K*%
%TO.N,Net-(D1-K)*%
X33337500Y-118110000D03*
D12*
%TO.P,D1,2,A*%
%TO.N,row0*%
X33337500Y-110490000D03*
%TD*%
D11*
%TO.P,D25,1,K*%
%TO.N,Net-(D25-K)*%
X115252500Y-102393750D03*
D12*
%TO.P,D25,2,A*%
%TO.N,row4*%
X122872500Y-102393750D03*
%TD*%
D11*
%TO.P,D13,1,K*%
%TO.N,Net-(D13-K)*%
X164306250Y-118110000D03*
D12*
%TO.P,D13,2,A*%
%TO.N,row2*%
X164306250Y-110490000D03*
%TD*%
D10*
%TO.P,S30,1,1*%
%TO.N,col5*%
X127158750Y-66516250D03*
%TO.P,S30,2,2*%
%TO.N,Net-(D30-K)*%
X133508750Y-63976250D03*
%TD*%
%TO.P,S16,1,1*%
%TO.N,col3*%
X196532500Y-149860000D03*
%TO.P,S16,2,2*%
%TO.N,Net-(D16-K)*%
X202882500Y-147320000D03*
%TD*%
D11*
%TO.P,D23,1,K*%
%TO.N,Net-(D23-K)*%
X103346250Y-97631250D03*
D12*
%TO.P,D23,2,A*%
%TO.N,row3*%
X110966250Y-97631250D03*
%TD*%
D10*
%TO.P,S22,1,1*%
%TO.N,col3*%
X55721250Y-45085000D03*
%TO.P,S22,2,2*%
%TO.N,Net-(D22-K)*%
X62071250Y-42545000D03*
%TD*%
%TO.P,S26,1,1*%
%TO.N,col1*%
X31908750Y-66516250D03*
%TO.P,S26,2,2*%
%TO.N,Net-(D26-K)*%
X38258750Y-63976250D03*
%TD*%
D11*
%TO.P,D4,1,K*%
%TO.N,Net-(D4-K)*%
X42862500Y-118110000D03*
D12*
%TO.P,D4,2,A*%
%TO.N,row0*%
X42862500Y-110490000D03*
%TD*%
D10*
%TO.P,S8,1,1*%
%TO.N,col1*%
X119538750Y-150177500D03*
%TO.P,S8,2,2*%
%TO.N,Net-(D8-K)*%
X125888750Y-147637500D03*
%TD*%
D11*
%TO.P,D7,1,K*%
%TO.N,Net-(D7-K)*%
X126206250Y-118110000D03*
D12*
%TO.P,D7,2,A*%
%TO.N,row1*%
X126206250Y-110490000D03*
%TD*%
D11*
%TO.P,D6,1,K*%
%TO.N,Net-(D6-K)*%
X97631250Y-119062500D03*
D12*
%TO.P,D6,2,A*%
%TO.N,row0*%
X97631250Y-111442500D03*
%TD*%
D11*
%TO.P,D2,1,K*%
%TO.N,Net-(D2-K)*%
X59531250Y-118110000D03*
D12*
%TO.P,D2,2,A*%
%TO.N,row0*%
X59531250Y-110490000D03*
%TD*%
D11*
%TO.P,D20,1,K*%
%TO.N,Net-(D20-K)*%
X226218750Y-118110000D03*
D12*
%TO.P,D20,2,A*%
%TO.N,row3*%
X226218750Y-110490000D03*
%TD*%
D19*
%TO.P,J2,1,Pin_1*%
%TO.N,SCK*%
X161925000Y-86677500D03*
D20*
%TO.P,J2,2,Pin_2*%
%TO.N,MISO*%
X161925000Y-89217500D03*
%TO.P,J2,3,Pin_3*%
%TO.N,MOSI*%
X161925000Y-91757500D03*
%TO.P,J2,4,Pin_4*%
%TO.N,CS_SD*%
X161925000Y-94297500D03*
%TD*%
D11*
%TO.P,D12,1,K*%
%TO.N,Net-(D12-K)*%
X154781250Y-118110000D03*
D12*
%TO.P,D12,2,A*%
%TO.N,row1*%
X154781250Y-110490000D03*
%TD*%
D10*
%TO.P,S18,1,1*%
%TO.N,col5*%
X234632500Y-149860000D03*
%TO.P,S18,2,2*%
%TO.N,Net-(D18-K)*%
X240982500Y-147320000D03*
%TD*%
D11*
%TO.P,D26,1,K*%
%TO.N,Net-(D26-K)*%
X115252500Y-97631250D03*
D12*
%TO.P,D26,2,A*%
%TO.N,row4*%
X122872500Y-97631250D03*
%TD*%
D10*
%TO.P,S17,1,1*%
%TO.N,col4*%
X215265000Y-149860000D03*
%TO.P,S17,2,2*%
%TO.N,Net-(D17-K)*%
X221615000Y-147320000D03*
%TD*%
D11*
%TO.P,D19,1,K*%
%TO.N,Net-(D19-K)*%
X221456250Y-119538750D03*
D12*
%TO.P,D19,2,A*%
%TO.N,row3*%
X221456250Y-111918750D03*
%TD*%
D10*
%TO.P,S12,1,1*%
%TO.N,col5*%
X157956250Y-150177500D03*
%TO.P,S12,2,2*%
%TO.N,Net-(D12-K)*%
X164306250Y-147637500D03*
%TD*%
D11*
%TO.P,D31,1,K*%
%TO.N,col5*%
X65246250Y-85725000D03*
D12*
%TO.P,D31,2,A*%
%TO.N,1S2*%
X72866250Y-85725000D03*
%TD*%
D10*
%TO.P,S24,1,1*%
%TO.N,col5*%
X100965000Y-45085000D03*
%TO.P,S24,2,2*%
%TO.N,Net-(D24-K)*%
X107315000Y-42545000D03*
%TD*%
D11*
%TO.P,D21,1,K*%
%TO.N,Net-(D21-K)*%
X103346250Y-88106250D03*
D12*
%TO.P,D21,2,A*%
%TO.N,row3*%
X110966250Y-88106250D03*
%TD*%
D11*
%TO.P,D14,1,K*%
%TO.N,Net-(D14-K)*%
X138112500Y-118110000D03*
D12*
%TO.P,D14,2,A*%
%TO.N,row2*%
X138112500Y-110490000D03*
%TD*%
D10*
%TO.P,S5,1,1*%
%TO.N,col4*%
X52863750Y-131127500D03*
%TO.P,S5,2,2*%
%TO.N,Net-(D5-K)*%
X59213750Y-128587500D03*
%TD*%
D11*
%TO.P,D22,1,K*%
%TO.N,Net-(D22-K)*%
X103346250Y-92868750D03*
D12*
%TO.P,D22,2,A*%
%TO.N,row3*%
X110966250Y-92868750D03*
%TD*%
D10*
%TO.P,S25,1,1*%
%TO.N,col0*%
X126841250Y-45085000D03*
%TO.P,S25,2,2*%
%TO.N,Net-(D25-K)*%
X133191250Y-42545000D03*
%TD*%
%TO.P,S4,1,1*%
%TO.N,col3*%
X33813750Y-131127500D03*
%TO.P,S4,2,2*%
%TO.N,Net-(D4-K)*%
X40163750Y-128587500D03*
%TD*%
%TO.P,S7,1,1*%
%TO.N,col0*%
X100806250Y-150177500D03*
%TO.P,S7,2,2*%
%TO.N,Net-(D7-K)*%
X107156250Y-147637500D03*
%TD*%
D11*
%TO.P,D3,1,K*%
%TO.N,Net-(D3-K)*%
X52387500Y-118110000D03*
D12*
%TO.P,D3,2,A*%
%TO.N,row0*%
X52387500Y-110490000D03*
%TD*%
D11*
%TO.P,D17,1,K*%
%TO.N,Net-(D17-K)*%
X207168750Y-118110000D03*
D12*
%TO.P,D17,2,A*%
%TO.N,row2*%
X207168750Y-110490000D03*
%TD*%
D11*
%TO.P,D24,1,K*%
%TO.N,Net-(D24-K)*%
X103346250Y-102393750D03*
D12*
%TO.P,D24,2,A*%
%TO.N,row3*%
X110966250Y-102393750D03*
%TD*%
D10*
%TO.P,S23,1,1*%
%TO.N,col4*%
X79851250Y-45085000D03*
%TO.P,S23,2,2*%
%TO.N,Net-(D23-K)*%
X86201250Y-42545000D03*
%TD*%
D11*
%TO.P,D27,1,K*%
%TO.N,Net-(D27-K)*%
X116681250Y-92868750D03*
D12*
%TO.P,D27,2,A*%
%TO.N,row4*%
X124301250Y-92868750D03*
%TD*%
D10*
%TO.P,S10,1,1*%
%TO.N,col3*%
X110013750Y-131127500D03*
%TO.P,S10,2,2*%
%TO.N,Net-(D10-K)*%
X116363750Y-128587500D03*
%TD*%
D11*
%TO.P,D11,1,K*%
%TO.N,Net-(D11-K)*%
X145256250Y-118110000D03*
D12*
%TO.P,D11,2,A*%
%TO.N,row1*%
X145256250Y-110490000D03*
%TD*%
D11*
%TO.P,D15,1,K*%
%TO.N,Net-(D15-K)*%
X173831250Y-119062500D03*
D12*
%TO.P,D15,2,A*%
%TO.N,row2*%
X173831250Y-111442500D03*
%TD*%
D10*
%TO.P,S14,1,1*%
%TO.N,col1*%
X148431250Y-131127500D03*
%TO.P,S14,2,2*%
%TO.N,Net-(D14-K)*%
X154781250Y-128587500D03*
%TD*%
D11*
%TO.P,D5,1,K*%
%TO.N,Net-(D5-K)*%
X90487500Y-118110000D03*
D12*
%TO.P,D5,2,A*%
%TO.N,row0*%
X90487500Y-110490000D03*
%TD*%
D10*
%TO.P,S9,1,1*%
%TO.N,col2*%
X90963750Y-131127500D03*
%TO.P,S9,2,2*%
%TO.N,Net-(D9-K)*%
X97313750Y-128587500D03*
%TD*%
%TO.P,S3,1,1*%
%TO.N,col2*%
X62388750Y-150177500D03*
%TO.P,S3,2,2*%
%TO.N,Net-(D3-K)*%
X68738750Y-147637500D03*
%TD*%
%TO.P,S2,1,1*%
%TO.N,col1*%
X43338750Y-150177500D03*
%TO.P,S2,2,2*%
%TO.N,Net-(D2-K)*%
X49688750Y-147637500D03*
%TD*%
D21*
%TO.P,A1,1,GPIO0*%
%TO.N,row0*%
X214147500Y-40163750D03*
D22*
X214947500Y-40163750D03*
D23*
%TO.P,A1,2,GPIO1*%
%TO.N,row1*%
X214147500Y-42703750D03*
D24*
X214947500Y-42703750D03*
D25*
%TO.P,A1,3,GND*%
%TO.N,GND*%
X214147500Y-45243750D03*
D26*
X214947500Y-45243750D03*
D23*
%TO.P,A1,4,GPIO2*%
%TO.N,row2*%
X214147500Y-47783750D03*
D24*
X214947500Y-47783750D03*
D23*
%TO.P,A1,5,GPIO3*%
%TO.N,row3*%
X214147500Y-50323750D03*
D24*
X214947500Y-50323750D03*
D23*
%TO.P,A1,6,GPIO4*%
%TO.N,row4*%
X214147500Y-52863750D03*
D24*
X214947500Y-52863750D03*
D23*
%TO.P,A1,7,GPIO5*%
%TO.N,2S1*%
X214147500Y-55403750D03*
D24*
X214947500Y-55403750D03*
D25*
%TO.P,A1,8,GND*%
%TO.N,GND*%
X214147500Y-57943750D03*
D26*
X214947500Y-57943750D03*
D23*
%TO.P,A1,9,GPIO6*%
%TO.N,col0*%
X214147500Y-60483750D03*
D24*
X214947500Y-60483750D03*
D23*
%TO.P,A1,10,GPIO7*%
%TO.N,col1*%
X214147500Y-63023750D03*
D24*
X214947500Y-63023750D03*
D23*
%TO.P,A1,11,GPIO8*%
%TO.N,col2*%
X214147500Y-65563750D03*
D24*
X214947500Y-65563750D03*
D23*
%TO.P,A1,12,GPIO9*%
%TO.N,col3*%
X214147500Y-68103750D03*
D24*
X214947500Y-68103750D03*
D25*
%TO.P,A1,13,GND*%
%TO.N,GND*%
X214147500Y-70643750D03*
D26*
X214947500Y-70643750D03*
D23*
%TO.P,A1,14,GPIO10*%
%TO.N,col4*%
X214147500Y-73183750D03*
D24*
X214947500Y-73183750D03*
D23*
%TO.P,A1,15,GPIO11*%
%TO.N,col5*%
X214147500Y-75723750D03*
D24*
X214947500Y-75723750D03*
D23*
%TO.P,A1,16,GPIO12*%
%TO.N,1S1*%
X214147500Y-78263750D03*
D24*
X214947500Y-78263750D03*
D23*
%TO.P,A1,17,GPIO13*%
%TO.N,AO*%
X214147500Y-80803750D03*
D24*
X214947500Y-80803750D03*
D25*
%TO.P,A1,18,GND*%
%TO.N,GND*%
X214147500Y-83343750D03*
D26*
X214947500Y-83343750D03*
D23*
%TO.P,A1,19,GPIO14*%
%TO.N,unconnected-(A1-GPIO14-Pad19)*%
X214147500Y-85883750D03*
D24*
X214947500Y-85883750D03*
D23*
%TO.P,A1,20,GPIO15*%
%TO.N,CS_LCD*%
X214147500Y-88423750D03*
D24*
X214947500Y-88423750D03*
%TO.P,A1,21,GPIO16*%
%TO.N,unconnected-(A1-GPIO16-Pad21)*%
X232727500Y-88423750D03*
D23*
X233527500Y-88423750D03*
D24*
%TO.P,A1,22,GPIO17*%
%TO.N,a1*%
X232727500Y-85883750D03*
D23*
X233527500Y-85883750D03*
D27*
%TO.P,A1,23,GND*%
%TO.N,GND*%
X232727500Y-83343750D03*
D21*
X233527500Y-83343750D03*
D24*
%TO.P,A1,24,GPIO18*%
%TO.N,sck*%
X232727500Y-80803750D03*
D23*
X233527500Y-80803750D03*
D24*
%TO.P,A1,25,GPIO19*%
%TO.N,mosi*%
X232727500Y-78263750D03*
D23*
X233527500Y-78263750D03*
D24*
%TO.P,A1,26,GPIO20*%
%TO.N,b1*%
X232727500Y-75723750D03*
D23*
X233527500Y-75723750D03*
D24*
%TO.P,A1,27,GPIO21*%
%TO.N,a2*%
X232727500Y-73183750D03*
D23*
X233527500Y-73183750D03*
D27*
%TO.P,A1,28,GND*%
%TO.N,GND*%
X232727500Y-70643750D03*
D21*
X233527500Y-70643750D03*
D24*
%TO.P,A1,29,GPIO22*%
%TO.N,b2*%
X232727500Y-68103750D03*
D23*
X233527500Y-68103750D03*
D24*
%TO.P,A1,30,RUN*%
%TO.N,unconnected-(A1-RUN-Pad30)*%
X232727500Y-65563750D03*
D23*
X233527500Y-65563750D03*
D24*
%TO.P,A1,31,GPIO26_ADC0*%
%TO.N,BCK*%
X232727500Y-63023750D03*
D23*
X233527500Y-63023750D03*
D24*
%TO.P,A1,32,GPIO27_ADC1*%
%TO.N,LRCK*%
X232727500Y-60483750D03*
D23*
X233527500Y-60483750D03*
D27*
%TO.P,A1,33,AGND*%
%TO.N,unconnected-(A1-AGND-Pad33)*%
X232727500Y-57943750D03*
D21*
X233527500Y-57943750D03*
D24*
%TO.P,A1,34,GPIO28_ADC2*%
%TO.N,din*%
X232727500Y-55403750D03*
D23*
X233527500Y-55403750D03*
D24*
%TO.P,A1,35,ADC_VREF*%
%TO.N,unconnected-(A1-ADC_VREF-Pad35)*%
X232727500Y-52863750D03*
D23*
X233527500Y-52863750D03*
D24*
%TO.P,A1,36,3V3*%
%TO.N,unconnected-(A1-3V3-Pad36)*%
X232727500Y-50323750D03*
D23*
X233527500Y-50323750D03*
D24*
%TO.P,A1,37,3V3_EN*%
%TO.N,unconnected-(A1-3V3_EN-Pad37)*%
X232727500Y-47783750D03*
D23*
X233527500Y-47783750D03*
D27*
%TO.P,A1,38,GND*%
%TO.N,GND*%
X232727500Y-45243750D03*
D21*
X233527500Y-45243750D03*
D24*
%TO.P,A1,39,VSYS*%
%TO.N,unconnected-(A1-VSYS-Pad39)*%
X232727500Y-42703750D03*
D23*
X233527500Y-42703750D03*
D24*
%TO.P,A1,40,VBUS*%
%TO.N,unconnected-(A1-VBUS-Pad40)*%
X232727500Y-40163750D03*
D23*
X233527500Y-40163750D03*
%TD*%
D10*
%TO.P,S28,1,1*%
%TO.N,col3*%
X79851250Y-66516250D03*
%TO.P,S28,2,2*%
%TO.N,Net-(D28-K)*%
X86201250Y-63976250D03*
%TD*%
D11*
%TO.P,D30,1,K*%
%TO.N,Net-(D30-K)*%
X47625000Y-82867500D03*
D12*
%TO.P,D30,2,A*%
%TO.N,row4*%
X47625000Y-90487500D03*
%TD*%
D11*
%TO.P,D16,1,K*%
%TO.N,Net-(D16-K)*%
X200025000Y-119062500D03*
D12*
%TO.P,D16,2,A*%
%TO.N,row2*%
X200025000Y-111442500D03*
%TD*%
D28*
%TO.N,b2*%
X230981250Y-73818750D03*
%TO.N,din*%
X230981250Y-57150000D03*
X161925000Y-47625000D03*
X228493235Y-59638015D03*
%TO.N,GND*%
X188118750Y-66675000D03*
X195262500Y-69056250D03*
%TO.N,row0*%
X95784447Y-113289303D03*
%TO.N,CS_LCD*%
X209550000Y-88106250D03*
X200025000Y-90487500D03*
X204787500Y-88106250D03*
%TO.N,col2*%
X203647585Y-75060085D03*
X76200000Y-131727500D03*
%TO.N,col0*%
X184206193Y-95250000D03*
X200025000Y-66675000D03*
X192114890Y-104008640D03*
%TO.N,b1*%
X234666817Y-79522277D03*
%TO.N,col1*%
X210449240Y-69955490D03*
X211104922Y-65062750D03*
X209550000Y-90487500D03*
X219199265Y-94984035D03*
%TO.N,col3*%
X76200000Y-64293750D03*
X80962500Y-64293750D03*
%TO.N,Net-(D2-K)*%
X47817352Y-130776398D03*
X51203552Y-130574101D03*
X42862500Y-128587500D03*
%TO.N,Net-(D3-K)*%
X47518235Y-116574485D03*
X42862500Y-119410002D03*
%TO.N,Net-(D6-K)*%
X92868750Y-126206250D03*
X83343750Y-145256250D03*
X80962500Y-145256250D03*
X80962500Y-147637500D03*
%TO.N,Net-(D7-K)*%
X119062500Y-130527500D03*
X111918750Y-145256250D03*
X119062500Y-147637500D03*
X111918750Y-142875000D03*
%TO.N,Net-(D8-K)*%
X123825000Y-133350000D03*
X130968750Y-142875000D03*
%TO.N,Net-(D13-K)*%
X180975000Y-138112500D03*
%TO.N,Net-(D22-K)*%
X81111250Y-69056250D03*
X66675000Y-52387500D03*
X90487500Y-78581250D03*
X83343750Y-64293750D03*
%TO.N,Net-(D25-K)*%
X126206250Y-97631250D03*
%TO.N,Net-(D27-K)*%
X84745160Y-64946977D03*
X80962500Y-76200000D03*
X82153125Y-72628125D03*
X80451250Y-68210541D03*
%TO.N,Net-(D29-K)*%
X100012500Y-73818750D03*
X100442806Y-70414727D03*
X97631250Y-76200000D03*
%TO.N,SCK*%
X188118750Y-95250000D03*
X185737500Y-92868750D03*
X183356250Y-88106250D03*
%TD*%
D29*
%TO.N,row4*%
X124345250Y-48132826D02*
X124345250Y-45387554D01*
X132033804Y-37699000D02*
X196904750Y-37699000D01*
X155795401Y-88906249D02*
X156595400Y-88106250D01*
X212069500Y-52863750D02*
X214947500Y-52863750D01*
X123672499Y-88906249D02*
X155795401Y-88906249D01*
X122872500Y-88106250D02*
X123672499Y-88906249D01*
X124345250Y-45387554D02*
X132033804Y-37699000D01*
X156595400Y-80382976D02*
X124345250Y-48132826D01*
X196904750Y-37699000D02*
X212069500Y-52863750D01*
X156595400Y-88106250D02*
X156595400Y-80382976D01*
%TO.N,b2*%
X230981250Y-69850000D02*
X232727500Y-68103750D01*
X230981250Y-73818750D02*
X230981250Y-69850000D01*
%TO.N,din*%
X165893750Y-49212500D02*
X168116250Y-49212500D01*
X230981250Y-57150000D02*
X228493235Y-59638015D01*
X161925000Y-47625000D02*
X164306250Y-47625000D01*
X164306250Y-47625000D02*
X165893750Y-49212500D01*
%TO.N,GND*%
X190500000Y-69056250D02*
X195262500Y-69056250D01*
X164306250Y-61912500D02*
X159543750Y-66675000D01*
X164306250Y-71437500D02*
X188118750Y-71437500D01*
X159543750Y-66675000D02*
X164306250Y-71437500D01*
X242058813Y-91875063D02*
X233527500Y-83343750D01*
X188118750Y-66675000D02*
X190500000Y-69056250D01*
X262187500Y-91875063D02*
X242058813Y-91875063D01*
X168116250Y-61912500D02*
X164306250Y-61912500D01*
X188118750Y-71437500D02*
X190500000Y-69056250D01*
%TO.N,row0*%
X215403550Y-64124750D02*
X216454500Y-63073800D01*
X216454500Y-63073800D02*
X216454500Y-41670750D01*
X93266574Y-110490000D02*
X95925162Y-113148588D01*
X93266574Y-110490000D02*
X95784447Y-113007873D01*
X95784447Y-113007873D02*
X95784447Y-113289303D01*
X200481050Y-112543500D02*
X201126000Y-111898550D01*
X97631250Y-111442500D02*
X98732250Y-112543500D01*
X212891450Y-64124750D02*
X215403550Y-64124750D01*
X98732250Y-112543500D02*
X200481050Y-112543500D01*
X201126000Y-111898550D02*
X201126000Y-75890200D01*
X216454500Y-41670750D02*
X214947500Y-40163750D01*
X90487500Y-110490000D02*
X93266574Y-110490000D01*
X201126000Y-75890200D02*
X212891450Y-64124750D01*
%TO.N,col5*%
X157956250Y-150177500D02*
X162877500Y-145256250D01*
X55721250Y-90328750D02*
X55721250Y-103346250D01*
X65246250Y-85725000D02*
X60325000Y-85725000D01*
X85847250Y-146086500D02*
X153865250Y-146086500D01*
X219075000Y-95708300D02*
X211931250Y-88564550D01*
X153865250Y-146086500D02*
X157956250Y-150177500D01*
X79216250Y-90328750D02*
X55721250Y-90328750D01*
X79216250Y-86389054D02*
X79216250Y-90328750D01*
X100965000Y-45085000D02*
X100965000Y-64640304D01*
X211931250Y-77940000D02*
X214147500Y-75723750D01*
X234632500Y-149860000D02*
X219075000Y-134302500D01*
X211931250Y-88564550D02*
X211931250Y-77940000D01*
X81756250Y-150177500D02*
X85847250Y-146086500D01*
X100965000Y-64640304D02*
X79216250Y-86389054D01*
X60325000Y-85725000D02*
X55721250Y-90328750D01*
X81756250Y-129381250D02*
X81756250Y-150177500D01*
X219075000Y-134302500D02*
X219075000Y-95708300D01*
X230028750Y-145256250D02*
X234632500Y-149860000D01*
X162877500Y-145256250D02*
X230028750Y-145256250D01*
X127012424Y-66516250D02*
X105581174Y-45085000D01*
X105581174Y-45085000D02*
X100965000Y-45085000D01*
X55721250Y-103346250D02*
X81756250Y-129381250D01*
%TO.N,col4*%
X216053500Y-86344800D02*
X216053500Y-74289750D01*
X106513804Y-149188500D02*
X107798696Y-149188500D01*
X215265000Y-149860000D02*
X229088674Y-149860000D01*
X216053500Y-74289750D02*
X214947500Y-73183750D01*
X101607446Y-43534000D02*
X100322554Y-43534000D01*
X138588750Y-150177500D02*
X152412424Y-150177500D01*
X80994076Y-153943500D02*
X85749076Y-149188500D01*
X152412424Y-150177500D02*
X156178424Y-153943500D01*
X85749076Y-149188500D02*
X88748696Y-149188500D01*
X128709750Y-67969076D02*
X128709750Y-64745924D01*
X157194076Y-153943500D02*
X161949076Y-149188500D01*
X232854674Y-153626000D02*
X233870326Y-153626000D01*
X236183500Y-106474800D02*
X216053500Y-86344800D01*
X126235304Y-150177500D02*
X138588750Y-150177500D01*
X165857250Y-148279946D02*
X181805250Y-148279946D01*
X53488500Y-110033950D02*
X53488500Y-130502750D01*
X101282500Y-66516250D02*
X101282500Y-77937316D01*
X77165250Y-131127500D02*
X77165250Y-151130326D01*
X79978424Y-153943500D02*
X80994076Y-153943500D01*
X233870326Y-153626000D02*
X236183500Y-151312826D01*
X52863750Y-131127500D02*
X77165250Y-131127500D01*
X53225250Y-109770700D02*
X53488500Y-110033950D01*
X236183500Y-151312826D02*
X236183500Y-106474800D01*
X229088674Y-149860000D02*
X232854674Y-153626000D01*
X183544054Y-150018750D02*
X185253804Y-148309000D01*
X98771554Y-45085000D02*
X100322554Y-43534000D01*
X181805250Y-148279946D02*
X183544054Y-150018750D01*
X161949076Y-149188500D02*
X164948696Y-149188500D01*
X200696500Y-148309000D02*
X202247500Y-149860000D01*
X108406380Y-44442554D02*
X102516000Y-44442554D01*
X100322554Y-43534000D02*
X53225250Y-90631304D01*
X128709750Y-64745924D02*
X108406380Y-44442554D01*
X101282500Y-77937316D02*
X118741510Y-77937316D01*
X164948696Y-149188500D02*
X165857250Y-148279946D01*
X156178424Y-153943500D02*
X157194076Y-153943500D01*
X185253804Y-148309000D02*
X200696500Y-148309000D01*
X88748696Y-149188500D02*
X89657250Y-148279946D01*
X108707250Y-148279946D02*
X124337750Y-148279946D01*
X89657250Y-148279946D02*
X105605250Y-148279946D01*
X107798696Y-149188500D02*
X108707250Y-148279946D01*
X79851250Y-45085000D02*
X98771554Y-45085000D01*
X53225250Y-90631304D02*
X53225250Y-109770700D01*
X118741510Y-77937316D02*
X128709750Y-67969076D01*
X202247500Y-149860000D02*
X215265000Y-149860000D01*
X77165250Y-151130326D02*
X79978424Y-153943500D01*
X102516000Y-44442554D02*
X101607446Y-43534000D01*
X105605250Y-148279946D02*
X106513804Y-149188500D01*
X124337750Y-148279946D02*
X126235304Y-150177500D01*
%TO.N,CS_LCD*%
X190500000Y-85248750D02*
X197550000Y-85248750D01*
X204787500Y-88106250D02*
X209550000Y-88106250D01*
X200725000Y-88423750D02*
X200025000Y-89123750D01*
X200025000Y-89123750D02*
X200025000Y-90487500D01*
X197550000Y-85248750D02*
X200725000Y-88423750D01*
%TO.N,col2*%
X53953484Y-66516250D02*
X29730250Y-90739484D01*
X213143920Y-65563750D02*
X203647585Y-75060085D01*
X72274250Y-136018500D02*
X76764250Y-131528500D01*
X31908750Y-48577500D02*
X49847500Y-66516250D01*
X62388750Y-145538750D02*
X76200000Y-131727500D01*
X62388750Y-150177500D02*
X62388750Y-145538750D01*
X31908750Y-45085000D02*
X31908750Y-48577500D01*
X76764250Y-131528500D02*
X76399000Y-131528500D01*
X52210924Y-136018500D02*
X72274250Y-136018500D01*
X44623924Y-128431500D02*
X52210924Y-136018500D01*
X29730250Y-90739484D02*
X29730250Y-94495326D01*
X76399000Y-131528500D02*
X76200000Y-131727500D01*
X44623924Y-109389000D02*
X44623924Y-128431500D01*
X55721250Y-66516250D02*
X53953484Y-66516250D01*
X29730250Y-94495326D02*
X44623924Y-109389000D01*
X49847500Y-66516250D02*
X55721250Y-66516250D01*
%TO.N,col0*%
X188118750Y-38100000D02*
X133826250Y-38100000D01*
X200977500Y-60483750D02*
X214147500Y-60483750D01*
X160774000Y-92234260D02*
X160774000Y-91280740D01*
X161448240Y-92908500D02*
X160774000Y-92234260D01*
X200977500Y-60483750D02*
X188118750Y-47625000D01*
X162401760Y-92908500D02*
X161448240Y-92908500D01*
X200025000Y-61436250D02*
X200025000Y-66675000D01*
X192114890Y-104008640D02*
X173501900Y-104008640D01*
X173501900Y-104008640D02*
X162401760Y-92908500D01*
X200977500Y-60483750D02*
X200025000Y-61436250D01*
X160774000Y-91280740D02*
X161448240Y-90606500D01*
X161448240Y-90606500D02*
X179562693Y-90606500D01*
X188118750Y-47625000D02*
X188118750Y-38100000D01*
X133826250Y-38100000D02*
X126841250Y-45085000D01*
X179562693Y-90606500D02*
X184206193Y-95250000D01*
%TO.N,b1*%
X234666817Y-79522277D02*
X235428500Y-78760594D01*
X235428500Y-77807700D02*
X233344550Y-75723750D01*
X235428500Y-78760594D02*
X235428500Y-77807700D01*
%TO.N,col1*%
X155421324Y-124137426D02*
X162503360Y-124137426D01*
X211104922Y-65062750D02*
X213143922Y-63023750D01*
X210151000Y-74419750D02*
X209550000Y-73818750D01*
X197315850Y-122621593D02*
X197315850Y-117410000D01*
X209951000Y-104774850D02*
X209951000Y-90888500D01*
X209550000Y-90487500D02*
X210151000Y-89886500D01*
X169682434Y-131316500D02*
X168305250Y-132693684D01*
X168305250Y-132693684D02*
X168305250Y-134641316D01*
X162503360Y-124137426D02*
X169682434Y-131316500D01*
X197315850Y-117410000D02*
X209951000Y-104774850D01*
X224790000Y-130810000D02*
X224790000Y-100574770D01*
X168305250Y-134641316D02*
X172377434Y-138713500D01*
X209550000Y-73818750D02*
X209550000Y-70854730D01*
X148431250Y-131127500D02*
X155421324Y-124137426D01*
X224790000Y-100574770D02*
X219199265Y-94984035D01*
X172377434Y-138713500D02*
X181223943Y-138713500D01*
X209550000Y-70854730D02*
X210449240Y-69955490D01*
X209951000Y-90888500D02*
X209550000Y-90487500D01*
X181223943Y-138713500D02*
X197315850Y-122621593D01*
X210151000Y-89886500D02*
X210151000Y-74419750D01*
%TO.N,col3*%
X76047354Y-66675000D02*
X76047354Y-64446396D01*
X76047354Y-64446396D02*
X76200000Y-64293750D01*
X55721250Y-47139816D02*
X75256434Y-66675000D01*
X80962500Y-65405000D02*
X80962500Y-64293750D01*
X231038500Y-92795199D02*
X231038500Y-78638500D01*
X201680400Y-149860000D02*
X202081400Y-150261000D01*
X210122174Y-150261000D02*
X214612174Y-154751000D01*
X220503750Y-68103750D02*
X214147500Y-68103750D01*
X202081400Y-150261000D02*
X210122174Y-150261000D01*
X79851250Y-66516250D02*
X80962500Y-65405000D01*
X239416316Y-154751000D02*
X240793500Y-153373816D01*
X55721250Y-45085000D02*
X55721250Y-47139816D01*
X239416316Y-150049000D02*
X239416316Y-101173015D01*
X240793500Y-153373816D02*
X240793500Y-151426184D01*
X231038500Y-78638500D02*
X220503750Y-68103750D01*
X196532500Y-149860000D02*
X201680400Y-149860000D01*
X214612174Y-154751000D02*
X239416316Y-154751000D01*
X239416316Y-101173015D02*
X231038500Y-92795199D01*
X240793500Y-151426184D02*
X239416316Y-150049000D01*
X75256434Y-66675000D02*
X76047354Y-66675000D01*
%TO.N,row2*%
X215403550Y-61584750D02*
X216053500Y-60934800D01*
X173831250Y-111442500D02*
X165258750Y-111442500D01*
X139213500Y-109389000D02*
X138112500Y-110490000D01*
X171450000Y-73818750D02*
X202406250Y-73818750D01*
X202406250Y-73818750D02*
X202406250Y-72069950D01*
X138112500Y-107156250D02*
X171450000Y-73818750D01*
X202406250Y-72069950D02*
X212891450Y-61584750D01*
X165258750Y-111442500D02*
X164306250Y-110490000D01*
X216053500Y-60934800D02*
X216053500Y-49689750D01*
X164306250Y-110490000D02*
X163205250Y-109389000D01*
X200025000Y-111442500D02*
X173831250Y-111442500D01*
X216053500Y-49689750D02*
X214147500Y-47783750D01*
X163205250Y-109389000D02*
X139213500Y-109389000D01*
X212891450Y-61584750D02*
X215403550Y-61584750D01*
X138112500Y-110490000D02*
X138112500Y-107156250D01*
%TO.N,row3*%
X200647150Y-112944500D02*
X201527000Y-112064650D01*
X215755564Y-39057750D02*
X212537906Y-39057750D01*
X98087300Y-110341500D02*
X97175200Y-110341500D01*
X201527000Y-78029200D02*
X212891450Y-66664750D01*
X215403550Y-66664750D02*
X216855500Y-65212800D01*
X216855500Y-65212800D02*
X216855500Y-40157686D01*
X97576200Y-112944500D02*
X200647150Y-112944500D01*
X212241500Y-39354156D02*
X212241500Y-48417750D01*
X96530250Y-110986450D02*
X96530250Y-111898550D01*
X96530250Y-111898550D02*
X97576200Y-112944500D01*
X212241500Y-48417750D02*
X214147500Y-50323750D01*
X110966250Y-97462550D02*
X98087300Y-110341500D01*
X212537906Y-39057750D02*
X212241500Y-39354156D01*
X201527000Y-112064650D02*
X201527000Y-78029200D01*
X97175200Y-110341500D02*
X96530250Y-110986450D01*
X212891450Y-66664750D02*
X215403550Y-66664750D01*
X110966250Y-88106250D02*
X110966250Y-97462550D01*
X216855500Y-40157686D02*
X215755564Y-39057750D01*
%TO.N,Net-(D1-K)*%
X33337500Y-118110000D02*
X35364750Y-120137250D01*
X33769750Y-144189000D02*
X30321250Y-147637500D01*
X35364750Y-120137250D02*
X35364750Y-131769946D01*
X33769750Y-133364946D02*
X33769750Y-144189000D01*
X35364750Y-131769946D02*
X33769750Y-133364946D01*
%TO.N,Net-(D2-K)*%
X48812357Y-131771403D02*
X47817352Y-130776398D01*
X49688750Y-135413750D02*
X49688750Y-147637500D01*
X42862500Y-128587500D02*
X49688750Y-135413750D01*
X50006250Y-131771403D02*
X48812357Y-131771403D01*
X51203552Y-130574101D02*
X50006250Y-131771403D01*
%TO.N,Net-(D3-K)*%
X41477750Y-141619946D02*
X41477750Y-130573250D01*
X42261500Y-120011002D02*
X42862500Y-119410002D01*
X41477750Y-130573250D02*
X42261500Y-129789500D01*
X55855924Y-149188500D02*
X49046304Y-149188500D01*
X47518235Y-116574485D02*
X49053750Y-118110000D01*
X49053750Y-118110000D02*
X52387500Y-118110000D01*
X61626576Y-153943500D02*
X60610924Y-153943500D01*
X42261500Y-129789500D02*
X42261500Y-120011002D01*
X60610924Y-153943500D02*
X55855924Y-149188500D01*
X49046304Y-149188500D02*
X41477750Y-141619946D01*
X67932576Y-147637500D02*
X61626576Y-153943500D01*
%TO.N,Net-(D6-K)*%
X83343750Y-135731250D02*
X83343750Y-145256250D01*
X92868750Y-126206250D02*
X83343750Y-135731250D01*
X80962500Y-145256250D02*
X80962500Y-147637500D01*
%TO.N,Net-(D7-K)*%
X119062500Y-125253750D02*
X119062500Y-130527500D01*
X111918750Y-142875000D02*
X111918750Y-145256250D01*
X119062500Y-147637500D02*
X107156250Y-147637500D01*
X126206250Y-118110000D02*
X119062500Y-125253750D01*
%TO.N,Net-(D8-K)*%
X123825000Y-135731250D02*
X123825000Y-133350000D01*
X130968750Y-142875000D02*
X123825000Y-135731250D01*
%TO.N,Net-(D10-K)*%
X111918750Y-124142500D02*
X116363750Y-128587500D01*
X111918750Y-118110000D02*
X111918750Y-124142500D01*
%TO.N,Net-(D13-K)*%
X178447424Y-138112500D02*
X180975000Y-138112500D01*
X164306250Y-123971326D02*
X178447424Y-138112500D01*
X164306250Y-118110000D02*
X164306250Y-123971326D01*
%TO.N,Net-(D15-K)*%
X173831250Y-119062500D02*
X173831250Y-127952500D01*
%TO.N,Net-(D22-K)*%
X81111250Y-69056250D02*
X81111250Y-67449696D01*
X103346250Y-92868750D02*
X103346250Y-91440000D01*
X103346250Y-91440000D02*
X90487500Y-78581250D01*
X62071250Y-47783750D02*
X62071250Y-42545000D01*
X83343750Y-65217196D02*
X83343750Y-64293750D01*
X66675000Y-52387500D02*
X62071250Y-47783750D01*
X81111250Y-67449696D02*
X83343750Y-65217196D01*
%TO.N,Net-(D25-K)*%
X122544750Y-101292750D02*
X116353500Y-101292750D01*
X126206250Y-97631250D02*
X122544750Y-101292750D01*
X116353500Y-101292750D02*
X115252500Y-102393750D01*
%TO.N,Net-(D26-K)*%
X135059750Y-63333804D02*
X112318946Y-40593000D01*
X34207304Y-40593000D02*
X29412750Y-45387554D01*
X134151196Y-71936754D02*
X134151196Y-65527250D01*
X135059750Y-64618696D02*
X135059750Y-63333804D01*
X134151196Y-65527250D02*
X135059750Y-64618696D01*
X115252500Y-90835450D02*
X134151196Y-71936754D01*
X115252500Y-97631250D02*
X115252500Y-90835450D01*
X29412750Y-55130250D02*
X38258750Y-63976250D01*
X112318946Y-40593000D02*
X34207304Y-40593000D01*
X29412750Y-45387554D02*
X29412750Y-55130250D01*
%TO.N,Net-(D27-K)*%
X83343750Y-71437500D02*
X82153125Y-72628125D01*
X84635066Y-71407250D02*
X86012250Y-70030066D01*
X84745160Y-64946977D02*
X84745160Y-65407910D01*
X80451250Y-69246193D02*
X82612307Y-71407250D01*
X80962500Y-76200000D02*
X80962500Y-73818750D01*
X82612307Y-71407250D02*
X84635066Y-71407250D01*
X86012250Y-70030066D02*
X86012250Y-66675000D01*
X80451250Y-68210541D02*
X80451250Y-69246193D01*
X84745160Y-65407910D02*
X86012250Y-66675000D01*
X80962500Y-73818750D02*
X82153125Y-72628125D01*
%TO.N,Net-(D29-K)*%
X100012500Y-70845033D02*
X100442806Y-70414727D01*
X103346250Y-83343750D02*
X103346250Y-81915000D01*
X100012500Y-73818750D02*
X100012500Y-70845033D01*
X103346250Y-81915000D02*
X97631250Y-76200000D01*
%TO.N,+3V3*%
X189349000Y-96797750D02*
X190500000Y-97948750D01*
X190500000Y-80168750D02*
X189349000Y-81319750D01*
X189349000Y-81319750D02*
X189349000Y-96797750D01*
%TO.N,SCK*%
X161925000Y-86677500D02*
X181768750Y-86677500D01*
X185737500Y-92868750D02*
X188118750Y-95250000D01*
X181768750Y-86677500D02*
X183197500Y-88106250D01*
X183197500Y-88106250D02*
X183356250Y-88106250D01*
%TO.N,MOSI*%
X191651000Y-98425510D02*
X190976760Y-99099750D01*
X169267250Y-99099750D02*
X161925000Y-91757500D01*
X190976760Y-99099750D02*
X169267250Y-99099750D01*
X190500000Y-92868750D02*
X191651000Y-94019750D01*
X191651000Y-94019750D02*
X191651000Y-98425510D01*
%TD*%
M02*
