%TF.GenerationSoftware,KiCad,Pcbnew,9.0.5*%
%TF.CreationDate,2025-10-11T12:45:19-04:00*%
%TF.ProjectId,midikeyboard,6d696469-6b65-4796-926f-6172642e6b69,rev?*%
%TF.SameCoordinates,Original*%
%TF.FileFunction,Copper,L2,Bot*%
%TF.FilePolarity,Positive*%
%FSLAX46Y46*%
G04 Gerber Fmt 4.6, Leading zero omitted, Abs format (unit mm)*
G04 Created by KiCad (PCBNEW 9.0.5) date 2025-10-11 12:45:19*
%MOMM*%
%LPD*%
G01*
G04 APERTURE LIST*
G04 Aperture macros list*
%AMRoundRect*
0 Rectangle with rounded corners*
0 $1 Rounding radius*
0 $2 $3 $4 $5 $6 $7 $8 $9 X,Y pos of 4 corners*
0 Add a 4 corners polygon primitive as box body*
4,1,4,$2,$3,$4,$5,$6,$7,$8,$9,$2,$3,0*
0 Add four circle primitives for the rounded corners*
1,1,$1+$1,$2,$3*
1,1,$1+$1,$4,$5*
1,1,$1+$1,$6,$7*
1,1,$1+$1,$8,$9*
0 Add four rect primitives between the rounded corners*
20,1,$1+$1,$2,$3,$4,$5,0*
20,1,$1+$1,$4,$5,$6,$7,0*
20,1,$1+$1,$6,$7,$8,$9,0*
20,1,$1+$1,$8,$9,$2,$3,0*%
%AMFreePoly0*
4,1,37,0.603843,0.796157,0.639018,0.796157,0.711114,0.766294,0.766294,0.711114,0.796157,0.639018,0.796157,0.603843,0.800000,0.600000,0.800000,-0.600000,0.796157,-0.603843,0.796157,-0.639018,0.766294,-0.711114,0.711114,-0.766294,0.639018,-0.796157,0.603843,-0.796157,0.600000,-0.800000,0.000000,-0.800000,0.000000,-0.796148,-0.078414,-0.796148,-0.232228,-0.765552,-0.377117,-0.705537,
-0.507515,-0.618408,-0.618408,-0.507515,-0.705537,-0.377117,-0.765552,-0.232228,-0.796148,-0.078414,-0.796148,0.078414,-0.765552,0.232228,-0.705537,0.377117,-0.618408,0.507515,-0.507515,0.618408,-0.377117,0.705537,-0.232228,0.765552,-0.078414,0.796148,0.000000,0.796148,0.000000,0.800000,0.600000,0.800000,0.603843,0.796157,0.603843,0.796157,$1*%
%AMFreePoly1*
4,1,37,0.000000,0.796148,0.078414,0.796148,0.232228,0.765552,0.377117,0.705537,0.507515,0.618408,0.618408,0.507515,0.705537,0.377117,0.765552,0.232228,0.796148,0.078414,0.796148,-0.078414,0.765552,-0.232228,0.705537,-0.377117,0.618408,-0.507515,0.507515,-0.618408,0.377117,-0.705537,0.232228,-0.765552,0.078414,-0.796148,0.000000,-0.796148,0.000000,-0.800000,-0.600000,-0.800000,
-0.603843,-0.796157,-0.639018,-0.796157,-0.711114,-0.766294,-0.766294,-0.711114,-0.796157,-0.639018,-0.796157,-0.603843,-0.800000,-0.600000,-0.800000,0.600000,-0.796157,0.603843,-0.796157,0.639018,-0.766294,0.711114,-0.711114,0.766294,-0.639018,0.796157,-0.603843,0.796157,-0.600000,0.800000,0.000000,0.800000,0.000000,0.796148,0.000000,0.796148,$1*%
G04 Aperture macros list end*
%TA.AperFunction,ComponentPad*%
%ADD10C,2.500000*%
%TD*%
%TA.AperFunction,ComponentPad*%
%ADD11R,1.600000X1.600000*%
%TD*%
%TA.AperFunction,ComponentPad*%
%ADD12O,1.600000X1.600000*%
%TD*%
%TA.AperFunction,ComponentPad*%
%ADD13R,2.000000X2.000000*%
%TD*%
%TA.AperFunction,ComponentPad*%
%ADD14C,2.000000*%
%TD*%
%TA.AperFunction,ComponentPad*%
%ADD15R,3.200000X2.000000*%
%TD*%
%TA.AperFunction,ComponentPad*%
%ADD16C,1.676400*%
%TD*%
%TA.AperFunction,ComponentPad*%
%ADD17C,1.778000*%
%TD*%
%TA.AperFunction,ComponentPad*%
%ADD18C,3.200000*%
%TD*%
%TA.AperFunction,ComponentPad*%
%ADD19R,1.700000X1.700000*%
%TD*%
%TA.AperFunction,ComponentPad*%
%ADD20C,1.700000*%
%TD*%
%TA.AperFunction,ComponentPad*%
%ADD21RoundRect,0.200000X-0.600000X-0.600000X0.600000X-0.600000X0.600000X0.600000X-0.600000X0.600000X0*%
%TD*%
%TA.AperFunction,ComponentPad*%
%ADD22C,1.600000*%
%TD*%
%TA.AperFunction,ComponentPad*%
%ADD23FreePoly0,0.000000*%
%TD*%
%TA.AperFunction,ComponentPad*%
%ADD24FreePoly1,0.000000*%
%TD*%
%TA.AperFunction,ViaPad*%
%ADD25C,0.600000*%
%TD*%
%TA.AperFunction,Conductor*%
%ADD26C,0.200000*%
%TD*%
G04 APERTURE END LIST*
D10*
%TO.P,S19,1,1*%
%TO.N,col0*%
X205422500Y-130810000D03*
%TO.P,S19,2,2*%
%TO.N,Net-(D19-K)*%
X211772500Y-128270000D03*
%TD*%
D11*
%TO.P,D29,1,K*%
%TO.N,Net-(D29-K)*%
X103346250Y-83343750D03*
D12*
%TO.P,D29,2,A*%
%TO.N,row4*%
X110966250Y-83343750D03*
%TD*%
D10*
%TO.P,S20,1,1*%
%TO.N,col1*%
X224790000Y-130810000D03*
%TO.P,S20,2,2*%
%TO.N,Net-(D20-K)*%
X231140000Y-128270000D03*
%TD*%
D11*
%TO.P,D9,1,K*%
%TO.N,Net-(D9-K)*%
X104775000Y-118110000D03*
D12*
%TO.P,D9,2,A*%
%TO.N,row1*%
X104775000Y-110490000D03*
%TD*%
D10*
%TO.P,S15,1,1*%
%TO.N,col2*%
X166846250Y-131127500D03*
%TO.P,S15,2,2*%
%TO.N,Net-(D15-K)*%
X173196250Y-128587500D03*
%TD*%
%TO.P,S27,1,1*%
%TO.N,col2*%
X55721250Y-66516250D03*
%TO.P,S27,2,2*%
%TO.N,Net-(D27-K)*%
X62071250Y-63976250D03*
%TD*%
%TO.P,S21,1,1*%
%TO.N,col2*%
X31908750Y-45085000D03*
%TO.P,S21,2,2*%
%TO.N,Net-(D21-K)*%
X38258750Y-42545000D03*
%TD*%
D11*
%TO.P,D8,1,K*%
%TO.N,Net-(D8-K)*%
X119062500Y-118110000D03*
D12*
%TO.P,D8,2,A*%
%TO.N,row1*%
X119062500Y-110490000D03*
%TD*%
D13*
%TO.P,SW2,A,A*%
%TO.N,a2*%
X254581250Y-121206250D03*
D14*
%TO.P,SW2,B,B*%
%TO.N,b2*%
X254581250Y-126206250D03*
%TO.P,SW2,C,C*%
%TO.N,GND*%
X254581250Y-123706250D03*
D15*
%TO.P,SW2,MP,MP*%
X262081250Y-118106250D03*
X262081250Y-129306250D03*
D14*
%TO.P,SW2,S1,S1*%
%TO.N,2s1*%
X269081250Y-126206250D03*
%TO.P,SW2,S2,S2*%
%TO.N,2s2*%
X269081250Y-121206250D03*
%TD*%
D10*
%TO.P,S1,1,1*%
%TO.N,col0*%
X23971250Y-150177500D03*
%TO.P,S1,2,2*%
%TO.N,Net-(D1-K)*%
X30321250Y-147637500D03*
%TD*%
D11*
%TO.P,D28,1,K*%
%TO.N,Net-(D28-K)*%
X115252500Y-88106250D03*
D12*
%TO.P,D28,2,A*%
%TO.N,row4*%
X122872500Y-88106250D03*
%TD*%
D16*
%TO.P,U1,1,CPVDD*%
%TO.N,unconnected-(U1-CPVDD-Pad1)*%
X183356250Y-64452500D03*
%TO.P,U1,2,CAPP*%
%TO.N,unconnected-(U1-CAPP-Pad2)*%
X183356250Y-61912500D03*
%TO.P,U1,3,CPGND*%
%TO.N,GND*%
X183356250Y-59372500D03*
%TO.P,U1,4,CAPM*%
%TO.N,unconnected-(U1-CAPM-Pad4)*%
X183356250Y-56832500D03*
%TO.P,U1,5,VNEG*%
%TO.N,unconnected-(U1-VNEG-Pad5)*%
X183356250Y-54292500D03*
%TO.P,U1,6,OUTL*%
%TO.N,unconnected-(U1-OUTL-Pad6)*%
X183356250Y-51752500D03*
%TO.P,U1,7,OUTR*%
%TO.N,unconnected-(U1-OUTR-Pad7)*%
X183356250Y-49212500D03*
%TO.P,U1,8,AVDD*%
%TO.N,unconnected-(U1-AVDD-Pad8)*%
X183356250Y-46672500D03*
D17*
%TO.P,U1,9,AGND*%
%TO.N,GND*%
X168116250Y-61912500D03*
%TO.P,U1,10,DEMP*%
%TO.N,unconnected-(U1-DEMP-Pad10)*%
X168116250Y-59372500D03*
%TO.P,U1,11,FLT*%
%TO.N,unconnected-(U1-FLT-Pad11)*%
X168116250Y-56832500D03*
%TO.P,U1,12,SCK*%
%TO.N,unconnected-(U1-SCK-Pad12)*%
X168116250Y-54292500D03*
%TO.P,U1,13,BCK*%
%TO.N,BCK*%
X168116250Y-51752500D03*
%TO.P,U1,14,DIN*%
%TO.N,din*%
X168116250Y-49212500D03*
D18*
%TO.P,U1,P1*%
%TO.N,N/C*%
X168116250Y-68262500D03*
X183356250Y-68262500D03*
X168116250Y-42862500D03*
X183356250Y-42862500D03*
%TD*%
D10*
%TO.P,S6,1,1*%
%TO.N,col5*%
X81756250Y-150177500D03*
%TO.P,S6,2,2*%
%TO.N,Net-(D6-K)*%
X88106250Y-147637500D03*
%TD*%
%TO.P,S29,1,1*%
%TO.N,col4*%
X101282500Y-66516250D03*
%TO.P,S29,2,2*%
%TO.N,Net-(D29-K)*%
X107632500Y-63976250D03*
%TD*%
D19*
%TO.P,J1,1,Pin_1*%
%TO.N,+3V3*%
X190500000Y-80168750D03*
D20*
%TO.P,J1,2,Pin_2*%
%TO.N,GND*%
X190500000Y-82708750D03*
%TO.P,J1,3,Pin_3*%
%TO.N,CS_LCD*%
X190500000Y-85248750D03*
%TO.P,J1,4,Pin_4*%
%TO.N,RST*%
X190500000Y-87788750D03*
%TO.P,J1,5,Pin_5*%
%TO.N,A0*%
X190500000Y-90328750D03*
%TO.P,J1,6,Pin_6*%
%TO.N,MOSI*%
X190500000Y-92868750D03*
%TO.P,J1,7,Pin_7*%
%TO.N,SCK*%
X190500000Y-95408750D03*
%TO.P,J1,8,Pin_8*%
%TO.N,+3V3*%
X190500000Y-97948750D03*
%TD*%
D11*
%TO.P,D18,1,K*%
%TO.N,Net-(D18-K)*%
X214312500Y-119538750D03*
D12*
%TO.P,D18,2,A*%
%TO.N,row2*%
X214312500Y-111918750D03*
%TD*%
D10*
%TO.P,S11,1,1*%
%TO.N,col4*%
X138588750Y-150177500D03*
%TO.P,S11,2,2*%
%TO.N,Net-(D11-K)*%
X144938750Y-147637500D03*
%TD*%
D11*
%TO.P,D10,1,K*%
%TO.N,Net-(D10-K)*%
X111918750Y-118110000D03*
D12*
%TO.P,D10,2,A*%
%TO.N,row1*%
X111918750Y-110490000D03*
%TD*%
D10*
%TO.P,S13,1,1*%
%TO.N,col0*%
X177006250Y-150177500D03*
%TO.P,S13,2,2*%
%TO.N,Net-(D13-K)*%
X183356250Y-147637500D03*
%TD*%
D11*
%TO.P,D32,1,K*%
%TO.N,col5*%
X83026250Y-92868750D03*
D12*
%TO.P,D32,2,A*%
%TO.N,2S2*%
X90646250Y-92868750D03*
%TD*%
D13*
%TO.P,SW1,A,A*%
%TO.N,a1*%
X254687500Y-94975063D03*
D14*
%TO.P,SW1,B,B*%
%TO.N,b1*%
X254687500Y-99975063D03*
%TO.P,SW1,C,C*%
%TO.N,GND*%
X254687500Y-97475063D03*
D15*
%TO.P,SW1,MP,MP*%
X262187500Y-91875063D03*
X262187500Y-103075063D03*
D14*
%TO.P,SW1,S1,S1*%
%TO.N,1s1*%
X269187500Y-99975063D03*
%TO.P,SW1,S2,S2*%
%TO.N,1s2*%
X269187500Y-94975063D03*
%TD*%
D11*
%TO.P,D1,1,K*%
%TO.N,Net-(D1-K)*%
X33337500Y-118110000D03*
D12*
%TO.P,D1,2,A*%
%TO.N,row0*%
X33337500Y-110490000D03*
%TD*%
D11*
%TO.P,D25,1,K*%
%TO.N,Net-(D25-K)*%
X115252500Y-102393750D03*
D12*
%TO.P,D25,2,A*%
%TO.N,row4*%
X122872500Y-102393750D03*
%TD*%
D11*
%TO.P,D13,1,K*%
%TO.N,Net-(D13-K)*%
X164306250Y-118110000D03*
D12*
%TO.P,D13,2,A*%
%TO.N,row2*%
X164306250Y-110490000D03*
%TD*%
D10*
%TO.P,S30,1,1*%
%TO.N,col5*%
X127158750Y-66516250D03*
%TO.P,S30,2,2*%
%TO.N,Net-(D30-K)*%
X133508750Y-63976250D03*
%TD*%
%TO.P,S16,1,1*%
%TO.N,col3*%
X196532500Y-149860000D03*
%TO.P,S16,2,2*%
%TO.N,Net-(D16-K)*%
X202882500Y-147320000D03*
%TD*%
D11*
%TO.P,D23,1,K*%
%TO.N,Net-(D23-K)*%
X103346250Y-97631250D03*
D12*
%TO.P,D23,2,A*%
%TO.N,row3*%
X110966250Y-97631250D03*
%TD*%
D10*
%TO.P,S22,1,1*%
%TO.N,col3*%
X55721250Y-45085000D03*
%TO.P,S22,2,2*%
%TO.N,Net-(D22-K)*%
X62071250Y-42545000D03*
%TD*%
%TO.P,S26,1,1*%
%TO.N,col1*%
X31908750Y-66516250D03*
%TO.P,S26,2,2*%
%TO.N,Net-(D26-K)*%
X38258750Y-63976250D03*
%TD*%
D11*
%TO.P,D4,1,K*%
%TO.N,Net-(D4-K)*%
X42862500Y-118110000D03*
D12*
%TO.P,D4,2,A*%
%TO.N,row0*%
X42862500Y-110490000D03*
%TD*%
D10*
%TO.P,S8,1,1*%
%TO.N,col1*%
X119538750Y-150177500D03*
%TO.P,S8,2,2*%
%TO.N,Net-(D8-K)*%
X125888750Y-147637500D03*
%TD*%
D11*
%TO.P,D7,1,K*%
%TO.N,Net-(D7-K)*%
X126206250Y-118110000D03*
D12*
%TO.P,D7,2,A*%
%TO.N,row1*%
X126206250Y-110490000D03*
%TD*%
D11*
%TO.P,D6,1,K*%
%TO.N,Net-(D6-K)*%
X97631250Y-119062500D03*
D12*
%TO.P,D6,2,A*%
%TO.N,row0*%
X97631250Y-111442500D03*
%TD*%
D11*
%TO.P,D2,1,K*%
%TO.N,Net-(D2-K)*%
X59531250Y-118110000D03*
D12*
%TO.P,D2,2,A*%
%TO.N,row0*%
X59531250Y-110490000D03*
%TD*%
D11*
%TO.P,D20,1,K*%
%TO.N,Net-(D20-K)*%
X226218750Y-118110000D03*
D12*
%TO.P,D20,2,A*%
%TO.N,row3*%
X226218750Y-110490000D03*
%TD*%
D19*
%TO.P,J2,1,Pin_1*%
%TO.N,SCK*%
X161925000Y-86677500D03*
D20*
%TO.P,J2,2,Pin_2*%
%TO.N,MISO*%
X161925000Y-89217500D03*
%TO.P,J2,3,Pin_3*%
%TO.N,MOSI*%
X161925000Y-91757500D03*
%TO.P,J2,4,Pin_4*%
%TO.N,CS_SD*%
X161925000Y-94297500D03*
%TD*%
D11*
%TO.P,D12,1,K*%
%TO.N,Net-(D12-K)*%
X154781250Y-118110000D03*
D12*
%TO.P,D12,2,A*%
%TO.N,row1*%
X154781250Y-110490000D03*
%TD*%
D10*
%TO.P,S18,1,1*%
%TO.N,col5*%
X234632500Y-149860000D03*
%TO.P,S18,2,2*%
%TO.N,Net-(D18-K)*%
X240982500Y-147320000D03*
%TD*%
D11*
%TO.P,D26,1,K*%
%TO.N,Net-(D26-K)*%
X115252500Y-97631250D03*
D12*
%TO.P,D26,2,A*%
%TO.N,row4*%
X122872500Y-97631250D03*
%TD*%
D10*
%TO.P,S17,1,1*%
%TO.N,col4*%
X215265000Y-149860000D03*
%TO.P,S17,2,2*%
%TO.N,Net-(D17-K)*%
X221615000Y-147320000D03*
%TD*%
D11*
%TO.P,D19,1,K*%
%TO.N,Net-(D19-K)*%
X221456250Y-119538750D03*
D12*
%TO.P,D19,2,A*%
%TO.N,row3*%
X221456250Y-111918750D03*
%TD*%
D10*
%TO.P,S12,1,1*%
%TO.N,col5*%
X157956250Y-150177500D03*
%TO.P,S12,2,2*%
%TO.N,Net-(D12-K)*%
X164306250Y-147637500D03*
%TD*%
D11*
%TO.P,D31,1,K*%
%TO.N,col5*%
X65246250Y-85725000D03*
D12*
%TO.P,D31,2,A*%
%TO.N,1S2*%
X72866250Y-85725000D03*
%TD*%
D10*
%TO.P,S24,1,1*%
%TO.N,col5*%
X100965000Y-45085000D03*
%TO.P,S24,2,2*%
%TO.N,Net-(D24-K)*%
X107315000Y-42545000D03*
%TD*%
D11*
%TO.P,D21,1,K*%
%TO.N,Net-(D21-K)*%
X103346250Y-88106250D03*
D12*
%TO.P,D21,2,A*%
%TO.N,row3*%
X110966250Y-88106250D03*
%TD*%
D11*
%TO.P,D14,1,K*%
%TO.N,Net-(D14-K)*%
X138112500Y-118110000D03*
D12*
%TO.P,D14,2,A*%
%TO.N,row2*%
X138112500Y-110490000D03*
%TD*%
D10*
%TO.P,S5,1,1*%
%TO.N,col4*%
X52863750Y-131127500D03*
%TO.P,S5,2,2*%
%TO.N,Net-(D5-K)*%
X59213750Y-128587500D03*
%TD*%
D11*
%TO.P,D22,1,K*%
%TO.N,Net-(D22-K)*%
X103346250Y-92868750D03*
D12*
%TO.P,D22,2,A*%
%TO.N,row3*%
X110966250Y-92868750D03*
%TD*%
D10*
%TO.P,S25,1,1*%
%TO.N,col0*%
X126841250Y-45085000D03*
%TO.P,S25,2,2*%
%TO.N,Net-(D25-K)*%
X133191250Y-42545000D03*
%TD*%
%TO.P,S4,1,1*%
%TO.N,col3*%
X33813750Y-131127500D03*
%TO.P,S4,2,2*%
%TO.N,Net-(D4-K)*%
X40163750Y-128587500D03*
%TD*%
%TO.P,S7,1,1*%
%TO.N,col0*%
X100806250Y-150177500D03*
%TO.P,S7,2,2*%
%TO.N,Net-(D7-K)*%
X107156250Y-147637500D03*
%TD*%
D11*
%TO.P,D3,1,K*%
%TO.N,Net-(D3-K)*%
X52387500Y-118110000D03*
D12*
%TO.P,D3,2,A*%
%TO.N,row0*%
X52387500Y-110490000D03*
%TD*%
D11*
%TO.P,D17,1,K*%
%TO.N,Net-(D17-K)*%
X207168750Y-118110000D03*
D12*
%TO.P,D17,2,A*%
%TO.N,row2*%
X207168750Y-110490000D03*
%TD*%
D11*
%TO.P,D24,1,K*%
%TO.N,Net-(D24-K)*%
X103346250Y-102393750D03*
D12*
%TO.P,D24,2,A*%
%TO.N,row3*%
X110966250Y-102393750D03*
%TD*%
D10*
%TO.P,S23,1,1*%
%TO.N,col4*%
X79851250Y-45085000D03*
%TO.P,S23,2,2*%
%TO.N,Net-(D23-K)*%
X86201250Y-42545000D03*
%TD*%
D11*
%TO.P,D27,1,K*%
%TO.N,Net-(D27-K)*%
X116681250Y-92868750D03*
D12*
%TO.P,D27,2,A*%
%TO.N,row4*%
X124301250Y-92868750D03*
%TD*%
D10*
%TO.P,S10,1,1*%
%TO.N,col3*%
X110013750Y-131127500D03*
%TO.P,S10,2,2*%
%TO.N,Net-(D10-K)*%
X116363750Y-128587500D03*
%TD*%
D11*
%TO.P,D11,1,K*%
%TO.N,Net-(D11-K)*%
X145256250Y-118110000D03*
D12*
%TO.P,D11,2,A*%
%TO.N,row1*%
X145256250Y-110490000D03*
%TD*%
D11*
%TO.P,D15,1,K*%
%TO.N,Net-(D15-K)*%
X173831250Y-119062500D03*
D12*
%TO.P,D15,2,A*%
%TO.N,row2*%
X173831250Y-111442500D03*
%TD*%
D10*
%TO.P,S14,1,1*%
%TO.N,col1*%
X148431250Y-131127500D03*
%TO.P,S14,2,2*%
%TO.N,Net-(D14-K)*%
X154781250Y-128587500D03*
%TD*%
D11*
%TO.P,D5,1,K*%
%TO.N,Net-(D5-K)*%
X90487500Y-118110000D03*
D12*
%TO.P,D5,2,A*%
%TO.N,row0*%
X90487500Y-110490000D03*
%TD*%
D10*
%TO.P,S9,1,1*%
%TO.N,col2*%
X90963750Y-131127500D03*
%TO.P,S9,2,2*%
%TO.N,Net-(D9-K)*%
X97313750Y-128587500D03*
%TD*%
%TO.P,S3,1,1*%
%TO.N,col2*%
X62388750Y-150177500D03*
%TO.P,S3,2,2*%
%TO.N,Net-(D3-K)*%
X68738750Y-147637500D03*
%TD*%
%TO.P,S2,1,1*%
%TO.N,col1*%
X43338750Y-150177500D03*
%TO.P,S2,2,2*%
%TO.N,Net-(D2-K)*%
X49688750Y-147637500D03*
%TD*%
D21*
%TO.P,A1,1,GPIO0*%
%TO.N,row0*%
X214947500Y-40163750D03*
D22*
%TO.P,A1,2,GPIO1*%
%TO.N,row1*%
X214947500Y-42703750D03*
D23*
%TO.P,A1,3,GND*%
%TO.N,GND*%
X214947500Y-45243750D03*
D22*
%TO.P,A1,4,GPIO2*%
%TO.N,row2*%
X214947500Y-47783750D03*
%TO.P,A1,5,GPIO3*%
%TO.N,row3*%
X214947500Y-50323750D03*
%TO.P,A1,6,GPIO4*%
%TO.N,row4*%
X214947500Y-52863750D03*
%TO.P,A1,7,GPIO5*%
%TO.N,2S1*%
X214947500Y-55403750D03*
D23*
%TO.P,A1,8,GND*%
%TO.N,GND*%
X214947500Y-57943750D03*
D22*
%TO.P,A1,9,GPIO6*%
%TO.N,col0*%
X214947500Y-60483750D03*
%TO.P,A1,10,GPIO7*%
%TO.N,col1*%
X214947500Y-63023750D03*
%TO.P,A1,11,GPIO8*%
%TO.N,col2*%
X214947500Y-65563750D03*
%TO.P,A1,12,GPIO9*%
%TO.N,col3*%
X214947500Y-68103750D03*
D23*
%TO.P,A1,13,GND*%
%TO.N,GND*%
X214947500Y-70643750D03*
D22*
%TO.P,A1,14,GPIO10*%
%TO.N,col4*%
X214947500Y-73183750D03*
%TO.P,A1,15,GPIO11*%
%TO.N,col5*%
X214947500Y-75723750D03*
%TO.P,A1,16,GPIO12*%
%TO.N,1S1*%
X214947500Y-78263750D03*
%TO.P,A1,17,GPIO13*%
%TO.N,AO*%
X214947500Y-80803750D03*
D23*
%TO.P,A1,18,GND*%
%TO.N,GND*%
X214947500Y-83343750D03*
D22*
%TO.P,A1,19,GPIO14*%
%TO.N,unconnected-(A1-GPIO14-Pad19)*%
X214947500Y-85883750D03*
%TO.P,A1,20,GPIO15*%
%TO.N,CS_LCD*%
X214947500Y-88423750D03*
%TO.P,A1,21,GPIO16*%
%TO.N,unconnected-(A1-GPIO16-Pad21)*%
X232727500Y-88423750D03*
%TO.P,A1,22,GPIO17*%
%TO.N,a1*%
X232727500Y-85883750D03*
D24*
%TO.P,A1,23,GND*%
%TO.N,GND*%
X232727500Y-83343750D03*
D22*
%TO.P,A1,24,GPIO18*%
%TO.N,sck*%
X232727500Y-80803750D03*
%TO.P,A1,25,GPIO19*%
%TO.N,mosi*%
X232727500Y-78263750D03*
%TO.P,A1,26,GPIO20*%
%TO.N,b1*%
X232727500Y-75723750D03*
%TO.P,A1,27,GPIO21*%
%TO.N,a2*%
X232727500Y-73183750D03*
D24*
%TO.P,A1,28,GND*%
%TO.N,GND*%
X232727500Y-70643750D03*
D22*
%TO.P,A1,29,GPIO22*%
%TO.N,b2*%
X232727500Y-68103750D03*
%TO.P,A1,30,RUN*%
%TO.N,unconnected-(A1-RUN-Pad30)*%
X232727500Y-65563750D03*
%TO.P,A1,31,GPIO26_ADC0*%
%TO.N,BCK*%
X232727500Y-63023750D03*
%TO.P,A1,32,GPIO27_ADC1*%
%TO.N,LRCK*%
X232727500Y-60483750D03*
D24*
%TO.P,A1,33,AGND*%
%TO.N,unconnected-(A1-AGND-Pad33)*%
X232727500Y-57943750D03*
D22*
%TO.P,A1,34,GPIO28_ADC2*%
%TO.N,din*%
X232727500Y-55403750D03*
%TO.P,A1,35,ADC_VREF*%
%TO.N,unconnected-(A1-ADC_VREF-Pad35)*%
X232727500Y-52863750D03*
%TO.P,A1,36,3V3*%
%TO.N,unconnected-(A1-3V3-Pad36)*%
X232727500Y-50323750D03*
%TO.P,A1,37,3V3_EN*%
%TO.N,unconnected-(A1-3V3_EN-Pad37)*%
X232727500Y-47783750D03*
D24*
%TO.P,A1,38,GND*%
%TO.N,GND*%
X232727500Y-45243750D03*
D22*
%TO.P,A1,39,VSYS*%
%TO.N,unconnected-(A1-VSYS-Pad39)*%
X232727500Y-42703750D03*
%TO.P,A1,40,VBUS*%
%TO.N,unconnected-(A1-VBUS-Pad40)*%
X232727500Y-40163750D03*
%TD*%
D10*
%TO.P,S28,1,1*%
%TO.N,col3*%
X79851250Y-66516250D03*
%TO.P,S28,2,2*%
%TO.N,Net-(D28-K)*%
X86201250Y-63976250D03*
%TD*%
D11*
%TO.P,D30,1,K*%
%TO.N,Net-(D30-K)*%
X47625000Y-82867500D03*
D12*
%TO.P,D30,2,A*%
%TO.N,row4*%
X47625000Y-90487500D03*
%TD*%
D11*
%TO.P,D16,1,K*%
%TO.N,Net-(D16-K)*%
X200025000Y-119062500D03*
D12*
%TO.P,D16,2,A*%
%TO.N,row2*%
X200025000Y-111442500D03*
%TD*%
D25*
%TO.N,b2*%
X230981250Y-73818750D03*
%TO.N,din*%
X230981250Y-57150000D03*
X161925000Y-47625000D03*
X228493235Y-59638015D03*
%TO.N,GND*%
X188118750Y-66675000D03*
X195262500Y-69056250D03*
%TO.N,row0*%
X95784447Y-113289303D03*
%TO.N,CS_LCD*%
X209550000Y-88106250D03*
X200025000Y-90487500D03*
X204787500Y-88106250D03*
%TO.N,col2*%
X203647585Y-75060085D03*
X76200000Y-131727500D03*
%TO.N,col0*%
X184206193Y-95250000D03*
X200025000Y-66675000D03*
X192114890Y-104008640D03*
%TO.N,b1*%
X234666817Y-79522277D03*
%TO.N,col1*%
X210449240Y-69955490D03*
X211104922Y-65062750D03*
X209550000Y-90487500D03*
X219199265Y-94984035D03*
%TO.N,col3*%
X76200000Y-64293750D03*
X80962500Y-64293750D03*
%TO.N,Net-(D2-K)*%
X47817352Y-130776398D03*
X51203552Y-130574101D03*
X42862500Y-128587500D03*
%TO.N,Net-(D3-K)*%
X47518235Y-116574485D03*
X42862500Y-119410002D03*
%TO.N,Net-(D6-K)*%
X92868750Y-126206250D03*
X83343750Y-145256250D03*
X80962500Y-145256250D03*
X80962500Y-147637500D03*
%TO.N,Net-(D7-K)*%
X119062500Y-130527500D03*
X111918750Y-145256250D03*
X119062500Y-147637500D03*
X111918750Y-142875000D03*
%TO.N,Net-(D8-K)*%
X123825000Y-133350000D03*
X130968750Y-142875000D03*
%TO.N,Net-(D13-K)*%
X180975000Y-138112500D03*
%TO.N,Net-(D22-K)*%
X81111250Y-69056250D03*
X66675000Y-52387500D03*
X90487500Y-78581250D03*
X83343750Y-64293750D03*
%TO.N,Net-(D25-K)*%
X126206250Y-97631250D03*
%TO.N,Net-(D27-K)*%
X84745160Y-64946977D03*
X80962500Y-76200000D03*
X82153125Y-72628125D03*
X80451250Y-68210541D03*
%TO.N,Net-(D29-K)*%
X100012500Y-73818750D03*
X100442806Y-70414727D03*
X97631250Y-76200000D03*
%TO.N,SCK*%
X188118750Y-95250000D03*
X185737500Y-92868750D03*
X183356250Y-88106250D03*
%TD*%
D26*
%TO.N,row4*%
X79208804Y-64965250D02*
X80493696Y-64965250D01*
X81402250Y-65873804D02*
X93496304Y-65873804D01*
X122872500Y-97631250D02*
X122872500Y-102393750D01*
X118110000Y-83343750D02*
X122872500Y-88106250D01*
X110966250Y-83343750D02*
X118110000Y-83343750D01*
X124301250Y-96202500D02*
X122872500Y-97631250D01*
X53686554Y-90487500D02*
X79208804Y-64965250D01*
X124301250Y-92868750D02*
X124301250Y-96202500D01*
X122872500Y-88106250D02*
X122872500Y-91440000D01*
X93496304Y-65873804D02*
X110966250Y-83343750D01*
X47625000Y-90487500D02*
X53686554Y-90487500D01*
X80493696Y-64965250D02*
X81402250Y-65873804D01*
X122872500Y-91440000D02*
X124301250Y-92868750D01*
%TO.N,b2*%
X254581250Y-126206250D02*
X231220500Y-102845500D01*
X231220500Y-102845500D02*
X231220500Y-74058000D01*
X231220500Y-74058000D02*
X230981250Y-73818750D01*
%TO.N,din*%
X162326000Y-37699000D02*
X161925000Y-38100000D01*
X222688500Y-52339800D02*
X232271450Y-61922750D01*
X177704250Y-37699000D02*
X162326000Y-37699000D01*
X233183550Y-64124750D02*
X232271450Y-64124750D01*
X233828500Y-63479800D02*
X233183550Y-64124750D01*
X228600000Y-60453300D02*
X228600000Y-59531250D01*
X221941037Y-42047750D02*
X222688500Y-42795213D01*
X233183550Y-61922750D02*
X233828500Y-62567700D01*
X219312664Y-42047750D02*
X221941037Y-42047750D01*
X178667000Y-38661750D02*
X177704250Y-37699000D01*
X232271450Y-61922750D02*
X233183550Y-61922750D01*
X161925000Y-38100000D02*
X161925000Y-47625000D01*
X215926664Y-38661750D02*
X219312664Y-42047750D01*
X233828500Y-62567700D02*
X233828500Y-63479800D01*
X232271450Y-64124750D02*
X228600000Y-60453300D01*
X232727500Y-55403750D02*
X230981250Y-57150000D01*
X178667000Y-38661750D02*
X215926664Y-38661750D01*
X222688500Y-42795213D02*
X222688500Y-52339800D01*
X228600000Y-59531250D02*
X228493235Y-59638015D01*
%TO.N,row1*%
X154781250Y-110490000D02*
X154781250Y-103845878D01*
X154781250Y-103845878D02*
X214947500Y-43679628D01*
X126206250Y-110490000D02*
X127307250Y-109389000D01*
X214947500Y-43679628D02*
X214947500Y-42703750D01*
X104775000Y-110490000D02*
X126206250Y-110490000D01*
X145256250Y-110490000D02*
X154781250Y-110490000D01*
X127307250Y-109389000D02*
X144155250Y-109389000D01*
X144155250Y-109389000D02*
X145256250Y-110490000D01*
%TO.N,GND*%
X208746000Y-64462750D02*
X215403550Y-64462750D01*
X216048500Y-81607750D02*
X214312500Y-83343750D01*
X260287500Y-103075063D02*
X254687500Y-97475063D01*
X215403550Y-64462750D02*
X216048500Y-65107700D01*
X190500000Y-82708750D02*
X208746000Y-64462750D01*
X195262500Y-77946250D02*
X190500000Y-82708750D01*
X260181250Y-118106250D02*
X262081250Y-118106250D01*
X262187500Y-91875063D02*
X241994187Y-71681750D01*
X262187500Y-103075063D02*
X260287500Y-103075063D01*
X262081250Y-118106250D02*
X262081250Y-103181313D01*
X254581250Y-123706250D02*
X260181250Y-118106250D01*
X253958813Y-91875063D02*
X232727500Y-70643750D01*
X216048500Y-65107700D02*
X216048500Y-81607750D01*
X195262500Y-69056250D02*
X195262500Y-77946250D01*
X241994187Y-71681750D02*
X225804500Y-71681750D01*
X262187500Y-91875063D02*
X253958813Y-91875063D01*
X254687500Y-97475063D02*
X256587500Y-97475063D01*
X225804500Y-71681750D02*
X214947500Y-82538750D01*
X188118750Y-64135000D02*
X188118750Y-66675000D01*
X256587500Y-97475063D02*
X262187500Y-91875063D01*
X214947500Y-82538750D02*
X214947500Y-83343750D01*
X183356250Y-59372500D02*
X188118750Y-64135000D01*
%TO.N,row0*%
X42862500Y-110490000D02*
X33337500Y-110490000D01*
X95784447Y-113289303D02*
X97631250Y-111442500D01*
X52387500Y-110490000D02*
X42862500Y-110490000D01*
%TO.N,BCK*%
X215760564Y-39062750D02*
X172412750Y-39062750D01*
X164306250Y-40481250D02*
X164306250Y-50006250D01*
X232727500Y-63023750D02*
X220136500Y-50432750D01*
X164306250Y-50006250D02*
X166370000Y-50006250D01*
X220136500Y-50432750D02*
X220136500Y-43438686D01*
X220136500Y-43438686D02*
X215760564Y-39062750D01*
X166687500Y-38100000D02*
X164306250Y-40481250D01*
X172412750Y-39062750D02*
X171450000Y-38100000D01*
X166370000Y-50006250D02*
X168116250Y-51752500D01*
X171450000Y-38100000D02*
X166687500Y-38100000D01*
%TO.N,a2*%
X233828500Y-74284750D02*
X232727500Y-73183750D01*
X233828500Y-81259800D02*
X233828500Y-74284750D01*
X254581250Y-121206250D02*
X254581250Y-102012550D01*
X254581250Y-102012550D02*
X233828500Y-81259800D01*
%TO.N,CS_LCD*%
X200025000Y-90487500D02*
X202406250Y-90487500D01*
X202406250Y-90487500D02*
X204787500Y-88106250D01*
X209550000Y-88106250D02*
X211931250Y-88106250D01*
X212248750Y-88423750D02*
X214947500Y-88423750D01*
X211931250Y-88106250D02*
X212248750Y-88423750D01*
%TO.N,col2*%
X159507250Y-141470326D02*
X166846250Y-134131326D01*
X190023240Y-91479750D02*
X190976760Y-91479750D01*
X159507250Y-151630326D02*
X159507250Y-141470326D01*
X76800000Y-131127500D02*
X90963750Y-131127500D01*
X203647585Y-83888925D02*
X190738760Y-96797750D01*
X213846500Y-68610010D02*
X213846500Y-66664750D01*
X157194076Y-153943500D02*
X159507250Y-151630326D01*
X172730250Y-113188450D02*
X172730250Y-108772740D01*
X155460250Y-130458450D02*
X172730250Y-113188450D01*
X213846500Y-66664750D02*
X214947500Y-65563750D01*
X155460250Y-153225326D02*
X156178424Y-153943500D01*
X76200000Y-131727500D02*
X76800000Y-131127500D01*
X166846250Y-134131326D02*
X166846250Y-131127500D01*
X189120950Y-96797750D02*
X189120950Y-100133974D01*
X189120950Y-100133974D02*
X155460250Y-133794674D01*
X190976760Y-91479750D02*
X213846500Y-68610010D01*
X172730250Y-108772740D02*
X190023240Y-91479750D01*
X155460250Y-133794674D02*
X155460250Y-153225326D01*
X190738760Y-96797750D02*
X189120950Y-96797750D01*
X155460250Y-153225326D02*
X155460250Y-130458450D01*
X156178424Y-153943500D02*
X157194076Y-153943500D01*
X203647585Y-75060085D02*
X203647585Y-83888925D01*
%TO.N,col0*%
X196793807Y-66675000D02*
X182139820Y-81328987D01*
X164707250Y-149617750D02*
X164707250Y-153668416D01*
X108890076Y-150177500D02*
X100806250Y-150177500D01*
X183356250Y-95250000D02*
X184206193Y-95250000D01*
X164707250Y-153668416D02*
X162906166Y-155469500D01*
X182139820Y-94033570D02*
X183356250Y-95250000D01*
X186338500Y-77130307D02*
X202985057Y-60483750D01*
X196373750Y-130810000D02*
X205422500Y-130810000D01*
X182139820Y-81328987D02*
X182139820Y-94033570D01*
X196373750Y-130810000D02*
X183515000Y-130810000D01*
X177006250Y-150177500D02*
X196373750Y-130810000D01*
X196373750Y-130810000D02*
X192114890Y-126551140D01*
X183515000Y-130810000D02*
X164707250Y-149617750D01*
X162906166Y-155469500D02*
X114182076Y-155469500D01*
X184206193Y-95250000D02*
X186338500Y-93117693D01*
X114182076Y-155469500D02*
X108890076Y-150177500D01*
X186338500Y-93117693D02*
X186338500Y-77130307D01*
X192114890Y-126551140D02*
X192114890Y-104008640D01*
X200025000Y-66675000D02*
X196793807Y-66675000D01*
X202985057Y-60483750D02*
X214947500Y-60483750D01*
%TO.N,b1*%
X254687500Y-99975063D02*
X234666817Y-79954380D01*
X234666817Y-79954380D02*
X234666817Y-79522277D01*
%TO.N,col1*%
X264088500Y-119301000D02*
X264088500Y-90574063D01*
X243052187Y-69537750D02*
X221461500Y-69537750D01*
X210449240Y-65718432D02*
X211104922Y-65062750D01*
X138588750Y-131127500D02*
X119538750Y-150177500D01*
X219199265Y-94984035D02*
X214702730Y-90487500D01*
X148431250Y-131127500D02*
X138588750Y-131127500D01*
X41830625Y-148669375D02*
X29412750Y-136251500D01*
X29412750Y-136251500D02*
X29412750Y-72016076D01*
X264088500Y-90574063D02*
X243052187Y-69537750D01*
X214702730Y-90487500D02*
X209550000Y-90487500D01*
X44413500Y-146086500D02*
X41830625Y-148669375D01*
X115447750Y-146086500D02*
X44413500Y-146086500D01*
X43338750Y-150177500D02*
X41830625Y-148669375D01*
X31908750Y-69520076D02*
X31908750Y-66516250D01*
X252579500Y-130810000D02*
X264088500Y-119301000D01*
X224790000Y-130810000D02*
X252579500Y-130810000D01*
X221461500Y-69537750D02*
X214947500Y-63023750D01*
X210449240Y-69955490D02*
X210449240Y-65718432D01*
X119538750Y-150177500D02*
X115447750Y-146086500D01*
X29412750Y-72016076D02*
X31908750Y-69520076D01*
%TO.N,col3*%
X52101576Y-134893500D02*
X56856576Y-130138500D01*
X33813750Y-131127500D02*
X79851250Y-85090000D01*
X97660304Y-131127500D02*
X110013750Y-131127500D01*
X90321304Y-129576500D02*
X96109304Y-129576500D01*
X79851250Y-85090000D02*
X79851250Y-66516250D01*
X89759304Y-130138500D02*
X90321304Y-129576500D01*
X80962500Y-64293750D02*
X76200000Y-64293750D01*
X51085924Y-134893500D02*
X52101576Y-134893500D01*
X56856576Y-130138500D02*
X89759304Y-130138500D01*
X96109304Y-129576500D02*
X97660304Y-131127500D01*
X33813750Y-131127500D02*
X47319924Y-131127500D01*
X47319924Y-131127500D02*
X51085924Y-134893500D01*
%TO.N,row2*%
X211931250Y-111918750D02*
X210502500Y-110490000D01*
X210502500Y-110490000D02*
X207168750Y-110490000D01*
X214312500Y-111918750D02*
X211931250Y-111918750D01*
X200977500Y-110490000D02*
X200025000Y-111442500D01*
X207168750Y-110490000D02*
X200977500Y-110490000D01*
%TO.N,row3*%
X224790000Y-111918750D02*
X226218750Y-110490000D01*
X221456250Y-111918750D02*
X224790000Y-111918750D01*
X110966250Y-102393750D02*
X110966250Y-97631250D01*
X110966250Y-88106250D02*
X110966250Y-92868750D01*
%TO.N,a1*%
X233183550Y-72082750D02*
X232271450Y-72082750D01*
X231621500Y-84153344D02*
X233193156Y-85725000D01*
X254687500Y-93586700D02*
X233183550Y-72082750D01*
X254687500Y-94975063D02*
X254687500Y-93586700D01*
X231621500Y-72732700D02*
X231621500Y-84153344D01*
X232271450Y-72082750D02*
X231621500Y-72732700D01*
%TO.N,Net-(D2-K)*%
X59531250Y-122266554D02*
X51223703Y-130574101D01*
X45628454Y-128587500D02*
X42862500Y-128587500D01*
X51223703Y-130574101D02*
X51203552Y-130574101D01*
X47817352Y-130776398D02*
X45628454Y-128587500D01*
X59531250Y-118110000D02*
X59531250Y-122266554D01*
%TO.N,Net-(D3-K)*%
X44682718Y-119410002D02*
X47518235Y-116574485D01*
X42862500Y-119410002D02*
X44682718Y-119410002D01*
%TO.N,Net-(D5-K)*%
X69691250Y-118110000D02*
X59213750Y-128587500D01*
X90487500Y-118110000D02*
X69691250Y-118110000D01*
%TO.N,Net-(D6-K)*%
X97631250Y-119062500D02*
X97631250Y-121443750D01*
X80962500Y-147637500D02*
X88106250Y-147637500D01*
X83343750Y-145256250D02*
X80962500Y-145256250D01*
X97631250Y-121443750D02*
X92868750Y-126206250D01*
%TO.N,Net-(D7-K)*%
X116681250Y-145256250D02*
X119062500Y-147637500D01*
X117677750Y-131912250D02*
X117677750Y-137116000D01*
X119062500Y-130527500D02*
X117677750Y-131912250D01*
X111918750Y-145256250D02*
X116681250Y-145256250D01*
X117677750Y-137116000D02*
X111918750Y-142875000D01*
%TO.N,Net-(D8-K)*%
X125888750Y-147637500D02*
X130651250Y-142875000D01*
X130651250Y-142875000D02*
X130968750Y-142875000D01*
X123825000Y-133350000D02*
X119062500Y-128587500D01*
X119062500Y-128587500D02*
X119062500Y-118110000D01*
%TO.N,Net-(D9-K)*%
X104775000Y-121126250D02*
X97313750Y-128587500D01*
X104775000Y-118110000D02*
X104775000Y-121126250D01*
%TO.N,Net-(D11-K)*%
X144938750Y-137623826D02*
X144938750Y-147637500D01*
X149982250Y-132580326D02*
X144938750Y-137623826D01*
X145256250Y-118110000D02*
X149982250Y-122836000D01*
X149982250Y-122836000D02*
X149982250Y-132580326D01*
%TO.N,Net-(D12-K)*%
X154781250Y-118110000D02*
X153230250Y-119661000D01*
X153230250Y-119661000D02*
X153230250Y-129229946D01*
X153230250Y-129229946D02*
X155059250Y-131058946D01*
X155059250Y-131058946D02*
X155059250Y-153391426D01*
X164306250Y-153502316D02*
X164306250Y-147637500D01*
X155059250Y-153391426D02*
X156736324Y-155068500D01*
X156736324Y-155068500D02*
X162740066Y-155068500D01*
X162740066Y-155068500D02*
X164306250Y-153502316D01*
%TO.N,Net-(D13-K)*%
X175228424Y-153943500D02*
X176244076Y-153943500D01*
X174510250Y-144577250D02*
X174510250Y-153225326D01*
X180975000Y-138112500D02*
X174510250Y-144577250D01*
X176244076Y-153943500D02*
X182550076Y-147637500D01*
X174510250Y-153225326D02*
X175228424Y-153943500D01*
%TO.N,Net-(D14-K)*%
X156031249Y-127337501D02*
X154781250Y-128587500D01*
X139213500Y-117009000D02*
X155882250Y-117009000D01*
X155882250Y-117009000D02*
X156031249Y-117157999D01*
X156031249Y-117157999D02*
X156031249Y-127337501D01*
X138112500Y-118110000D02*
X139213500Y-117009000D01*
%TO.N,Net-(D18-K)*%
X235756174Y-147320000D02*
X218257174Y-129821000D01*
X240982500Y-147320000D02*
X235756174Y-147320000D01*
X218257174Y-129821000D02*
X211130054Y-129821000D01*
X210221500Y-128912446D02*
X210221500Y-123629750D01*
X211130054Y-129821000D02*
X210221500Y-128912446D01*
X210221500Y-123629750D02*
X214312500Y-119538750D01*
%TO.N,Net-(D19-K)*%
X220503750Y-119538750D02*
X221456250Y-119538750D01*
X211772500Y-128270000D02*
X220503750Y-119538750D01*
%TO.N,Net-(D20-K)*%
X226218750Y-123348750D02*
X231140000Y-128270000D01*
X226218750Y-118110000D02*
X226218750Y-123348750D01*
%TO.N,Net-(D21-K)*%
X112067250Y-82887700D02*
X79155550Y-49976000D01*
X125402250Y-101421050D02*
X125402250Y-89078950D01*
X103346250Y-88106250D02*
X118734750Y-103494750D01*
X125402250Y-89078950D02*
X119211000Y-82887700D01*
X45689750Y-49976000D02*
X38258750Y-42545000D01*
X119211000Y-82887700D02*
X112067250Y-82887700D01*
X79155550Y-49976000D02*
X45689750Y-49976000D01*
X123328550Y-103494750D02*
X125402250Y-101421050D01*
X118734750Y-103494750D02*
X123328550Y-103494750D01*
%TO.N,Net-(D22-K)*%
X81111250Y-69831066D02*
X81111250Y-69056250D01*
X89861434Y-78581250D02*
X81111250Y-69831066D01*
X71437500Y-52387500D02*
X66675000Y-52387500D01*
X90487500Y-78581250D02*
X89861434Y-78581250D01*
X83343750Y-64293750D02*
X71437500Y-52387500D01*
%TO.N,Net-(D23-K)*%
X135059750Y-63333804D02*
X133833696Y-62107750D01*
X134151196Y-93239204D02*
X134151196Y-65527250D01*
X134151196Y-65527250D02*
X135059750Y-64618696D01*
X109610750Y-103895750D02*
X123494650Y-103895750D01*
X123494650Y-103895750D02*
X134151196Y-93239204D01*
X134742250Y-41902554D02*
X133833696Y-40994000D01*
X133833696Y-40994000D02*
X87752250Y-40994000D01*
X133833696Y-44096000D02*
X134742250Y-43187446D01*
X135059750Y-64618696D02*
X135059750Y-63333804D01*
X87752250Y-40994000D02*
X86201250Y-42545000D01*
X134742250Y-43187446D02*
X134742250Y-41902554D01*
X103346250Y-97631250D02*
X109610750Y-103895750D01*
X133833696Y-62107750D02*
X133833696Y-44096000D01*
%TO.N,Net-(D24-K)*%
X88660804Y-44096000D02*
X90211804Y-42545000D01*
X135143250Y-41736454D02*
X133999796Y-40593000D01*
X85558804Y-44096000D02*
X88660804Y-44096000D01*
X134234696Y-57150000D02*
X134234696Y-44262100D01*
X85959804Y-40593000D02*
X84650250Y-41902554D01*
X134552196Y-93405304D02*
X134552196Y-65693350D01*
X84650250Y-41902554D02*
X84650250Y-43187446D01*
X103346250Y-102393750D02*
X105249250Y-104296750D01*
X134552196Y-65693350D02*
X135460750Y-64784796D01*
X105249250Y-104296750D02*
X123660750Y-104296750D01*
X123660750Y-104296750D02*
X134552196Y-93405304D01*
X135143250Y-43353546D02*
X135143250Y-41736454D01*
X84650250Y-43187446D02*
X85558804Y-44096000D01*
X135460750Y-64784796D02*
X135460750Y-58376054D01*
X134234696Y-44262100D02*
X135143250Y-43353546D01*
X135460750Y-58376054D02*
X134234696Y-57150000D01*
X133999796Y-40593000D02*
X85959804Y-40593000D01*
X90211804Y-42545000D02*
X107315000Y-42545000D01*
%TO.N,Net-(D25-K)*%
X129994934Y-65108816D02*
X129994934Y-66705250D01*
X126206250Y-70493934D02*
X126206250Y-97631250D01*
X133191250Y-61912500D02*
X129994934Y-65108816D01*
X133191250Y-42545000D02*
X133191250Y-61912500D01*
X129994934Y-66705250D02*
X126206250Y-70493934D01*
%TO.N,Net-(D27-K)*%
X66675000Y-61912500D02*
X80112557Y-61912500D01*
X85256100Y-85256100D02*
X80252250Y-80252250D01*
X110068600Y-85256100D02*
X85256100Y-85256100D01*
X80252250Y-76910250D02*
X80962500Y-76200000D01*
X80252250Y-80252250D02*
X80252250Y-76910250D01*
X82153125Y-72628125D02*
X80252250Y-70727250D01*
X116681250Y-92868750D02*
X116681250Y-91868750D01*
X80112557Y-61912500D02*
X83147034Y-64946977D01*
X63976250Y-63976250D02*
X62071250Y-63976250D01*
X64293750Y-64293750D02*
X63976250Y-63976250D01*
X83147034Y-64946977D02*
X84745160Y-64946977D01*
X116681250Y-91868750D02*
X110068600Y-85256100D01*
X80252250Y-68409541D02*
X80451250Y-68210541D01*
X66675000Y-61912500D02*
X64293750Y-64293750D01*
X80252250Y-70727250D02*
X80252250Y-68409541D01*
%TO.N,Net-(D29-K)*%
X100442806Y-70381128D02*
X106847684Y-63976250D01*
X97631250Y-76200000D02*
X100012500Y-73818750D01*
X100442806Y-70414727D02*
X100442806Y-70381128D01*
%TO.N,SCK*%
X188118750Y-95250000D02*
X190341250Y-95250000D01*
X183356250Y-88106250D02*
X185737500Y-90487500D01*
X185737500Y-90487500D02*
X185737500Y-92868750D01*
%TD*%
M02*
