%TF.GenerationSoftware,KiCad,Pcbnew,9.0.5*%
%TF.CreationDate,2025-10-11T12:45:19-04:00*%
%TF.ProjectId,midikeyboard,6d696469-6b65-4796-926f-6172642e6b69,rev?*%
%TF.SameCoordinates,Original*%
%TF.FileFunction,Legend,Top*%
%TF.FilePolarity,Positive*%
%FSLAX46Y46*%
G04 Gerber Fmt 4.6, Leading zero omitted, Abs format (unit mm)*
G04 Created by KiCad (PCBNEW 9.0.5) date 2025-10-11 12:45:19*
%MOMM*%
%LPD*%
G01*
G04 APERTURE LIST*
%ADD10C,0.100000*%
%ADD11C,0.150000*%
%ADD12C,0.120000*%
%ADD13C,0.050000*%
G04 APERTURE END LIST*
D10*
X245572634Y-57022419D02*
X245572634Y-56022419D01*
X245572634Y-56022419D02*
X245905967Y-56736704D01*
X245905967Y-56736704D02*
X246239300Y-56022419D01*
X246239300Y-56022419D02*
X246239300Y-57022419D01*
X247144062Y-57022419D02*
X247144062Y-56498609D01*
X247144062Y-56498609D02*
X247096443Y-56403371D01*
X247096443Y-56403371D02*
X247001205Y-56355752D01*
X247001205Y-56355752D02*
X246810729Y-56355752D01*
X246810729Y-56355752D02*
X246715491Y-56403371D01*
X247144062Y-56974800D02*
X247048824Y-57022419D01*
X247048824Y-57022419D02*
X246810729Y-57022419D01*
X246810729Y-57022419D02*
X246715491Y-56974800D01*
X246715491Y-56974800D02*
X246667872Y-56879561D01*
X246667872Y-56879561D02*
X246667872Y-56784323D01*
X246667872Y-56784323D02*
X246715491Y-56689085D01*
X246715491Y-56689085D02*
X246810729Y-56641466D01*
X246810729Y-56641466D02*
X247048824Y-56641466D01*
X247048824Y-56641466D02*
X247144062Y-56593847D01*
X247620253Y-57022419D02*
X247620253Y-56022419D01*
X247715491Y-56641466D02*
X248001205Y-57022419D01*
X248001205Y-56355752D02*
X247620253Y-56736704D01*
X248810729Y-56974800D02*
X248715491Y-57022419D01*
X248715491Y-57022419D02*
X248525015Y-57022419D01*
X248525015Y-57022419D02*
X248429777Y-56974800D01*
X248429777Y-56974800D02*
X248382158Y-56879561D01*
X248382158Y-56879561D02*
X248382158Y-56498609D01*
X248382158Y-56498609D02*
X248429777Y-56403371D01*
X248429777Y-56403371D02*
X248525015Y-56355752D01*
X248525015Y-56355752D02*
X248715491Y-56355752D01*
X248715491Y-56355752D02*
X248810729Y-56403371D01*
X248810729Y-56403371D02*
X248858348Y-56498609D01*
X248858348Y-56498609D02*
X248858348Y-56593847D01*
X248858348Y-56593847D02*
X248382158Y-56689085D01*
X250048825Y-57022419D02*
X250048825Y-56022419D01*
X250048825Y-56403371D02*
X250144063Y-56355752D01*
X250144063Y-56355752D02*
X250334539Y-56355752D01*
X250334539Y-56355752D02*
X250429777Y-56403371D01*
X250429777Y-56403371D02*
X250477396Y-56450990D01*
X250477396Y-56450990D02*
X250525015Y-56546228D01*
X250525015Y-56546228D02*
X250525015Y-56831942D01*
X250525015Y-56831942D02*
X250477396Y-56927180D01*
X250477396Y-56927180D02*
X250429777Y-56974800D01*
X250429777Y-56974800D02*
X250334539Y-57022419D01*
X250334539Y-57022419D02*
X250144063Y-57022419D01*
X250144063Y-57022419D02*
X250048825Y-56974800D01*
X250858349Y-56355752D02*
X251096444Y-57022419D01*
X251334539Y-56355752D02*
X251096444Y-57022419D01*
X251096444Y-57022419D02*
X251001206Y-57260514D01*
X251001206Y-57260514D02*
X250953587Y-57308133D01*
X250953587Y-57308133D02*
X250858349Y-57355752D01*
X252477397Y-57022419D02*
X252477397Y-56022419D01*
X252477397Y-56498609D02*
X253048825Y-56498609D01*
X253048825Y-57022419D02*
X253048825Y-56022419D01*
X253953587Y-56355752D02*
X253953587Y-57022419D01*
X253525016Y-56355752D02*
X253525016Y-56879561D01*
X253525016Y-56879561D02*
X253572635Y-56974800D01*
X253572635Y-56974800D02*
X253667873Y-57022419D01*
X253667873Y-57022419D02*
X253810730Y-57022419D01*
X253810730Y-57022419D02*
X253905968Y-56974800D01*
X253905968Y-56974800D02*
X253953587Y-56927180D01*
X254858349Y-56355752D02*
X254858349Y-57165276D01*
X254858349Y-57165276D02*
X254810730Y-57260514D01*
X254810730Y-57260514D02*
X254763111Y-57308133D01*
X254763111Y-57308133D02*
X254667873Y-57355752D01*
X254667873Y-57355752D02*
X254525016Y-57355752D01*
X254525016Y-57355752D02*
X254429778Y-57308133D01*
X254858349Y-56974800D02*
X254763111Y-57022419D01*
X254763111Y-57022419D02*
X254572635Y-57022419D01*
X254572635Y-57022419D02*
X254477397Y-56974800D01*
X254477397Y-56974800D02*
X254429778Y-56927180D01*
X254429778Y-56927180D02*
X254382159Y-56831942D01*
X254382159Y-56831942D02*
X254382159Y-56546228D01*
X254382159Y-56546228D02*
X254429778Y-56450990D01*
X254429778Y-56450990D02*
X254477397Y-56403371D01*
X254477397Y-56403371D02*
X254572635Y-56355752D01*
X254572635Y-56355752D02*
X254763111Y-56355752D01*
X254763111Y-56355752D02*
X254858349Y-56403371D01*
X255477397Y-57022419D02*
X255382159Y-56974800D01*
X255382159Y-56974800D02*
X255334540Y-56927180D01*
X255334540Y-56927180D02*
X255286921Y-56831942D01*
X255286921Y-56831942D02*
X255286921Y-56546228D01*
X255286921Y-56546228D02*
X255334540Y-56450990D01*
X255334540Y-56450990D02*
X255382159Y-56403371D01*
X255382159Y-56403371D02*
X255477397Y-56355752D01*
X255477397Y-56355752D02*
X255620254Y-56355752D01*
X255620254Y-56355752D02*
X255715492Y-56403371D01*
X255715492Y-56403371D02*
X255763111Y-56450990D01*
X255763111Y-56450990D02*
X255810730Y-56546228D01*
X255810730Y-56546228D02*
X255810730Y-56831942D01*
X255810730Y-56831942D02*
X255763111Y-56927180D01*
X255763111Y-56927180D02*
X255715492Y-56974800D01*
X255715492Y-56974800D02*
X255620254Y-57022419D01*
X255620254Y-57022419D02*
X255477397Y-57022419D01*
X257334540Y-56498609D02*
X257477397Y-56546228D01*
X257477397Y-56546228D02*
X257525016Y-56593847D01*
X257525016Y-56593847D02*
X257572635Y-56689085D01*
X257572635Y-56689085D02*
X257572635Y-56831942D01*
X257572635Y-56831942D02*
X257525016Y-56927180D01*
X257525016Y-56927180D02*
X257477397Y-56974800D01*
X257477397Y-56974800D02*
X257382159Y-57022419D01*
X257382159Y-57022419D02*
X257001207Y-57022419D01*
X257001207Y-57022419D02*
X257001207Y-56022419D01*
X257001207Y-56022419D02*
X257334540Y-56022419D01*
X257334540Y-56022419D02*
X257429778Y-56070038D01*
X257429778Y-56070038D02*
X257477397Y-56117657D01*
X257477397Y-56117657D02*
X257525016Y-56212895D01*
X257525016Y-56212895D02*
X257525016Y-56308133D01*
X257525016Y-56308133D02*
X257477397Y-56403371D01*
X257477397Y-56403371D02*
X257429778Y-56450990D01*
X257429778Y-56450990D02*
X257334540Y-56498609D01*
X257334540Y-56498609D02*
X257001207Y-56498609D01*
X258001207Y-57022419D02*
X258001207Y-56355752D01*
X258001207Y-56546228D02*
X258048826Y-56450990D01*
X258048826Y-56450990D02*
X258096445Y-56403371D01*
X258096445Y-56403371D02*
X258191683Y-56355752D01*
X258191683Y-56355752D02*
X258286921Y-56355752D01*
X258620255Y-57022419D02*
X258620255Y-56355752D01*
X258620255Y-56022419D02*
X258572636Y-56070038D01*
X258572636Y-56070038D02*
X258620255Y-56117657D01*
X258620255Y-56117657D02*
X258667874Y-56070038D01*
X258667874Y-56070038D02*
X258620255Y-56022419D01*
X258620255Y-56022419D02*
X258620255Y-56117657D01*
X259048826Y-56974800D02*
X259144064Y-57022419D01*
X259144064Y-57022419D02*
X259334540Y-57022419D01*
X259334540Y-57022419D02*
X259429778Y-56974800D01*
X259429778Y-56974800D02*
X259477397Y-56879561D01*
X259477397Y-56879561D02*
X259477397Y-56831942D01*
X259477397Y-56831942D02*
X259429778Y-56736704D01*
X259429778Y-56736704D02*
X259334540Y-56689085D01*
X259334540Y-56689085D02*
X259191683Y-56689085D01*
X259191683Y-56689085D02*
X259096445Y-56641466D01*
X259096445Y-56641466D02*
X259048826Y-56546228D01*
X259048826Y-56546228D02*
X259048826Y-56498609D01*
X259048826Y-56498609D02*
X259096445Y-56403371D01*
X259096445Y-56403371D02*
X259191683Y-56355752D01*
X259191683Y-56355752D02*
X259334540Y-56355752D01*
X259334540Y-56355752D02*
X259429778Y-56403371D01*
X260286921Y-56974800D02*
X260191683Y-57022419D01*
X260191683Y-57022419D02*
X260001207Y-57022419D01*
X260001207Y-57022419D02*
X259905969Y-56974800D01*
X259905969Y-56974800D02*
X259858350Y-56879561D01*
X259858350Y-56879561D02*
X259858350Y-56498609D01*
X259858350Y-56498609D02*
X259905969Y-56403371D01*
X259905969Y-56403371D02*
X260001207Y-56355752D01*
X260001207Y-56355752D02*
X260191683Y-56355752D01*
X260191683Y-56355752D02*
X260286921Y-56403371D01*
X260286921Y-56403371D02*
X260334540Y-56498609D01*
X260334540Y-56498609D02*
X260334540Y-56593847D01*
X260334540Y-56593847D02*
X259858350Y-56689085D01*
X260763112Y-57022419D02*
X260763112Y-56022419D01*
X260763112Y-56403371D02*
X260858350Y-56355752D01*
X260858350Y-56355752D02*
X261048826Y-56355752D01*
X261048826Y-56355752D02*
X261144064Y-56403371D01*
X261144064Y-56403371D02*
X261191683Y-56450990D01*
X261191683Y-56450990D02*
X261239302Y-56546228D01*
X261239302Y-56546228D02*
X261239302Y-56831942D01*
X261239302Y-56831942D02*
X261191683Y-56927180D01*
X261191683Y-56927180D02*
X261144064Y-56974800D01*
X261144064Y-56974800D02*
X261048826Y-57022419D01*
X261048826Y-57022419D02*
X260858350Y-57022419D01*
X260858350Y-57022419D02*
X260763112Y-56974800D01*
X261810731Y-57022419D02*
X261715493Y-56974800D01*
X261715493Y-56974800D02*
X261667874Y-56927180D01*
X261667874Y-56927180D02*
X261620255Y-56831942D01*
X261620255Y-56831942D02*
X261620255Y-56546228D01*
X261620255Y-56546228D02*
X261667874Y-56450990D01*
X261667874Y-56450990D02*
X261715493Y-56403371D01*
X261715493Y-56403371D02*
X261810731Y-56355752D01*
X261810731Y-56355752D02*
X261953588Y-56355752D01*
X261953588Y-56355752D02*
X262048826Y-56403371D01*
X262048826Y-56403371D02*
X262096445Y-56450990D01*
X262096445Y-56450990D02*
X262144064Y-56546228D01*
X262144064Y-56546228D02*
X262144064Y-56831942D01*
X262144064Y-56831942D02*
X262096445Y-56927180D01*
X262096445Y-56927180D02*
X262048826Y-56974800D01*
X262048826Y-56974800D02*
X261953588Y-57022419D01*
X261953588Y-57022419D02*
X261810731Y-57022419D01*
X262572636Y-57022419D02*
X262572636Y-56355752D01*
X262572636Y-56022419D02*
X262525017Y-56070038D01*
X262525017Y-56070038D02*
X262572636Y-56117657D01*
X262572636Y-56117657D02*
X262620255Y-56070038D01*
X262620255Y-56070038D02*
X262572636Y-56022419D01*
X262572636Y-56022419D02*
X262572636Y-56117657D01*
X263001207Y-56974800D02*
X263096445Y-57022419D01*
X263096445Y-57022419D02*
X263286921Y-57022419D01*
X263286921Y-57022419D02*
X263382159Y-56974800D01*
X263382159Y-56974800D02*
X263429778Y-56879561D01*
X263429778Y-56879561D02*
X263429778Y-56831942D01*
X263429778Y-56831942D02*
X263382159Y-56736704D01*
X263382159Y-56736704D02*
X263286921Y-56689085D01*
X263286921Y-56689085D02*
X263144064Y-56689085D01*
X263144064Y-56689085D02*
X263048826Y-56641466D01*
X263048826Y-56641466D02*
X263001207Y-56546228D01*
X263001207Y-56546228D02*
X263001207Y-56498609D01*
X263001207Y-56498609D02*
X263048826Y-56403371D01*
X263048826Y-56403371D02*
X263144064Y-56355752D01*
X263144064Y-56355752D02*
X263286921Y-56355752D01*
X263286921Y-56355752D02*
X263382159Y-56403371D01*
D11*
X207994405Y-125757200D02*
X208137262Y-125804819D01*
X208137262Y-125804819D02*
X208375357Y-125804819D01*
X208375357Y-125804819D02*
X208470595Y-125757200D01*
X208470595Y-125757200D02*
X208518214Y-125709580D01*
X208518214Y-125709580D02*
X208565833Y-125614342D01*
X208565833Y-125614342D02*
X208565833Y-125519104D01*
X208565833Y-125519104D02*
X208518214Y-125423866D01*
X208518214Y-125423866D02*
X208470595Y-125376247D01*
X208470595Y-125376247D02*
X208375357Y-125328628D01*
X208375357Y-125328628D02*
X208184881Y-125281009D01*
X208184881Y-125281009D02*
X208089643Y-125233390D01*
X208089643Y-125233390D02*
X208042024Y-125185771D01*
X208042024Y-125185771D02*
X207994405Y-125090533D01*
X207994405Y-125090533D02*
X207994405Y-124995295D01*
X207994405Y-124995295D02*
X208042024Y-124900057D01*
X208042024Y-124900057D02*
X208089643Y-124852438D01*
X208089643Y-124852438D02*
X208184881Y-124804819D01*
X208184881Y-124804819D02*
X208422976Y-124804819D01*
X208422976Y-124804819D02*
X208565833Y-124852438D01*
X209518214Y-125804819D02*
X208946786Y-125804819D01*
X209232500Y-125804819D02*
X209232500Y-124804819D01*
X209232500Y-124804819D02*
X209137262Y-124947676D01*
X209137262Y-124947676D02*
X209042024Y-125042914D01*
X209042024Y-125042914D02*
X208946786Y-125090533D01*
X209994405Y-125804819D02*
X210184881Y-125804819D01*
X210184881Y-125804819D02*
X210280119Y-125757200D01*
X210280119Y-125757200D02*
X210327738Y-125709580D01*
X210327738Y-125709580D02*
X210422976Y-125566723D01*
X210422976Y-125566723D02*
X210470595Y-125376247D01*
X210470595Y-125376247D02*
X210470595Y-124995295D01*
X210470595Y-124995295D02*
X210422976Y-124900057D01*
X210422976Y-124900057D02*
X210375357Y-124852438D01*
X210375357Y-124852438D02*
X210280119Y-124804819D01*
X210280119Y-124804819D02*
X210089643Y-124804819D01*
X210089643Y-124804819D02*
X209994405Y-124852438D01*
X209994405Y-124852438D02*
X209946786Y-124900057D01*
X209946786Y-124900057D02*
X209899167Y-124995295D01*
X209899167Y-124995295D02*
X209899167Y-125233390D01*
X209899167Y-125233390D02*
X209946786Y-125328628D01*
X209946786Y-125328628D02*
X209994405Y-125376247D01*
X209994405Y-125376247D02*
X210089643Y-125423866D01*
X210089643Y-125423866D02*
X210280119Y-125423866D01*
X210280119Y-125423866D02*
X210375357Y-125376247D01*
X210375357Y-125376247D02*
X210422976Y-125328628D01*
X210422976Y-125328628D02*
X210470595Y-125233390D01*
X227361905Y-125757200D02*
X227504762Y-125804819D01*
X227504762Y-125804819D02*
X227742857Y-125804819D01*
X227742857Y-125804819D02*
X227838095Y-125757200D01*
X227838095Y-125757200D02*
X227885714Y-125709580D01*
X227885714Y-125709580D02*
X227933333Y-125614342D01*
X227933333Y-125614342D02*
X227933333Y-125519104D01*
X227933333Y-125519104D02*
X227885714Y-125423866D01*
X227885714Y-125423866D02*
X227838095Y-125376247D01*
X227838095Y-125376247D02*
X227742857Y-125328628D01*
X227742857Y-125328628D02*
X227552381Y-125281009D01*
X227552381Y-125281009D02*
X227457143Y-125233390D01*
X227457143Y-125233390D02*
X227409524Y-125185771D01*
X227409524Y-125185771D02*
X227361905Y-125090533D01*
X227361905Y-125090533D02*
X227361905Y-124995295D01*
X227361905Y-124995295D02*
X227409524Y-124900057D01*
X227409524Y-124900057D02*
X227457143Y-124852438D01*
X227457143Y-124852438D02*
X227552381Y-124804819D01*
X227552381Y-124804819D02*
X227790476Y-124804819D01*
X227790476Y-124804819D02*
X227933333Y-124852438D01*
X228314286Y-124900057D02*
X228361905Y-124852438D01*
X228361905Y-124852438D02*
X228457143Y-124804819D01*
X228457143Y-124804819D02*
X228695238Y-124804819D01*
X228695238Y-124804819D02*
X228790476Y-124852438D01*
X228790476Y-124852438D02*
X228838095Y-124900057D01*
X228838095Y-124900057D02*
X228885714Y-124995295D01*
X228885714Y-124995295D02*
X228885714Y-125090533D01*
X228885714Y-125090533D02*
X228838095Y-125233390D01*
X228838095Y-125233390D02*
X228266667Y-125804819D01*
X228266667Y-125804819D02*
X228885714Y-125804819D01*
X229504762Y-124804819D02*
X229600000Y-124804819D01*
X229600000Y-124804819D02*
X229695238Y-124852438D01*
X229695238Y-124852438D02*
X229742857Y-124900057D01*
X229742857Y-124900057D02*
X229790476Y-124995295D01*
X229790476Y-124995295D02*
X229838095Y-125185771D01*
X229838095Y-125185771D02*
X229838095Y-125423866D01*
X229838095Y-125423866D02*
X229790476Y-125614342D01*
X229790476Y-125614342D02*
X229742857Y-125709580D01*
X229742857Y-125709580D02*
X229695238Y-125757200D01*
X229695238Y-125757200D02*
X229600000Y-125804819D01*
X229600000Y-125804819D02*
X229504762Y-125804819D01*
X229504762Y-125804819D02*
X229409524Y-125757200D01*
X229409524Y-125757200D02*
X229361905Y-125709580D01*
X229361905Y-125709580D02*
X229314286Y-125614342D01*
X229314286Y-125614342D02*
X229266667Y-125423866D01*
X229266667Y-125423866D02*
X229266667Y-125185771D01*
X229266667Y-125185771D02*
X229314286Y-124995295D01*
X229314286Y-124995295D02*
X229361905Y-124900057D01*
X229361905Y-124900057D02*
X229409524Y-124852438D01*
X229409524Y-124852438D02*
X229504762Y-124804819D01*
X18288095Y-127273569D02*
X18288095Y-126273569D01*
X18288095Y-126749759D02*
X18859523Y-126749759D01*
X18859523Y-127273569D02*
X18859523Y-126273569D01*
X19240476Y-126273569D02*
X19859523Y-126273569D01*
X19859523Y-126273569D02*
X19526190Y-126654521D01*
X19526190Y-126654521D02*
X19669047Y-126654521D01*
X19669047Y-126654521D02*
X19764285Y-126702140D01*
X19764285Y-126702140D02*
X19811904Y-126749759D01*
X19811904Y-126749759D02*
X19859523Y-126844997D01*
X19859523Y-126844997D02*
X19859523Y-127083092D01*
X19859523Y-127083092D02*
X19811904Y-127178330D01*
X19811904Y-127178330D02*
X19764285Y-127225950D01*
X19764285Y-127225950D02*
X19669047Y-127273569D01*
X19669047Y-127273569D02*
X19383333Y-127273569D01*
X19383333Y-127273569D02*
X19288095Y-127225950D01*
X19288095Y-127225950D02*
X19240476Y-127178330D01*
X169418155Y-126074700D02*
X169561012Y-126122319D01*
X169561012Y-126122319D02*
X169799107Y-126122319D01*
X169799107Y-126122319D02*
X169894345Y-126074700D01*
X169894345Y-126074700D02*
X169941964Y-126027080D01*
X169941964Y-126027080D02*
X169989583Y-125931842D01*
X169989583Y-125931842D02*
X169989583Y-125836604D01*
X169989583Y-125836604D02*
X169941964Y-125741366D01*
X169941964Y-125741366D02*
X169894345Y-125693747D01*
X169894345Y-125693747D02*
X169799107Y-125646128D01*
X169799107Y-125646128D02*
X169608631Y-125598509D01*
X169608631Y-125598509D02*
X169513393Y-125550890D01*
X169513393Y-125550890D02*
X169465774Y-125503271D01*
X169465774Y-125503271D02*
X169418155Y-125408033D01*
X169418155Y-125408033D02*
X169418155Y-125312795D01*
X169418155Y-125312795D02*
X169465774Y-125217557D01*
X169465774Y-125217557D02*
X169513393Y-125169938D01*
X169513393Y-125169938D02*
X169608631Y-125122319D01*
X169608631Y-125122319D02*
X169846726Y-125122319D01*
X169846726Y-125122319D02*
X169989583Y-125169938D01*
X170941964Y-126122319D02*
X170370536Y-126122319D01*
X170656250Y-126122319D02*
X170656250Y-125122319D01*
X170656250Y-125122319D02*
X170561012Y-125265176D01*
X170561012Y-125265176D02*
X170465774Y-125360414D01*
X170465774Y-125360414D02*
X170370536Y-125408033D01*
X171846726Y-125122319D02*
X171370536Y-125122319D01*
X171370536Y-125122319D02*
X171322917Y-125598509D01*
X171322917Y-125598509D02*
X171370536Y-125550890D01*
X171370536Y-125550890D02*
X171465774Y-125503271D01*
X171465774Y-125503271D02*
X171703869Y-125503271D01*
X171703869Y-125503271D02*
X171799107Y-125550890D01*
X171799107Y-125550890D02*
X171846726Y-125598509D01*
X171846726Y-125598509D02*
X171894345Y-125693747D01*
X171894345Y-125693747D02*
X171894345Y-125931842D01*
X171894345Y-125931842D02*
X171846726Y-126027080D01*
X171846726Y-126027080D02*
X171799107Y-126074700D01*
X171799107Y-126074700D02*
X171703869Y-126122319D01*
X171703869Y-126122319D02*
X171465774Y-126122319D01*
X171465774Y-126122319D02*
X171370536Y-126074700D01*
X171370536Y-126074700D02*
X171322917Y-126027080D01*
X58293155Y-61463450D02*
X58436012Y-61511069D01*
X58436012Y-61511069D02*
X58674107Y-61511069D01*
X58674107Y-61511069D02*
X58769345Y-61463450D01*
X58769345Y-61463450D02*
X58816964Y-61415830D01*
X58816964Y-61415830D02*
X58864583Y-61320592D01*
X58864583Y-61320592D02*
X58864583Y-61225354D01*
X58864583Y-61225354D02*
X58816964Y-61130116D01*
X58816964Y-61130116D02*
X58769345Y-61082497D01*
X58769345Y-61082497D02*
X58674107Y-61034878D01*
X58674107Y-61034878D02*
X58483631Y-60987259D01*
X58483631Y-60987259D02*
X58388393Y-60939640D01*
X58388393Y-60939640D02*
X58340774Y-60892021D01*
X58340774Y-60892021D02*
X58293155Y-60796783D01*
X58293155Y-60796783D02*
X58293155Y-60701545D01*
X58293155Y-60701545D02*
X58340774Y-60606307D01*
X58340774Y-60606307D02*
X58388393Y-60558688D01*
X58388393Y-60558688D02*
X58483631Y-60511069D01*
X58483631Y-60511069D02*
X58721726Y-60511069D01*
X58721726Y-60511069D02*
X58864583Y-60558688D01*
X59245536Y-60606307D02*
X59293155Y-60558688D01*
X59293155Y-60558688D02*
X59388393Y-60511069D01*
X59388393Y-60511069D02*
X59626488Y-60511069D01*
X59626488Y-60511069D02*
X59721726Y-60558688D01*
X59721726Y-60558688D02*
X59769345Y-60606307D01*
X59769345Y-60606307D02*
X59816964Y-60701545D01*
X59816964Y-60701545D02*
X59816964Y-60796783D01*
X59816964Y-60796783D02*
X59769345Y-60939640D01*
X59769345Y-60939640D02*
X59197917Y-61511069D01*
X59197917Y-61511069D02*
X59816964Y-61511069D01*
X60150298Y-60511069D02*
X60816964Y-60511069D01*
X60816964Y-60511069D02*
X60388393Y-61511069D01*
X34480655Y-40032200D02*
X34623512Y-40079819D01*
X34623512Y-40079819D02*
X34861607Y-40079819D01*
X34861607Y-40079819D02*
X34956845Y-40032200D01*
X34956845Y-40032200D02*
X35004464Y-39984580D01*
X35004464Y-39984580D02*
X35052083Y-39889342D01*
X35052083Y-39889342D02*
X35052083Y-39794104D01*
X35052083Y-39794104D02*
X35004464Y-39698866D01*
X35004464Y-39698866D02*
X34956845Y-39651247D01*
X34956845Y-39651247D02*
X34861607Y-39603628D01*
X34861607Y-39603628D02*
X34671131Y-39556009D01*
X34671131Y-39556009D02*
X34575893Y-39508390D01*
X34575893Y-39508390D02*
X34528274Y-39460771D01*
X34528274Y-39460771D02*
X34480655Y-39365533D01*
X34480655Y-39365533D02*
X34480655Y-39270295D01*
X34480655Y-39270295D02*
X34528274Y-39175057D01*
X34528274Y-39175057D02*
X34575893Y-39127438D01*
X34575893Y-39127438D02*
X34671131Y-39079819D01*
X34671131Y-39079819D02*
X34909226Y-39079819D01*
X34909226Y-39079819D02*
X35052083Y-39127438D01*
X35433036Y-39175057D02*
X35480655Y-39127438D01*
X35480655Y-39127438D02*
X35575893Y-39079819D01*
X35575893Y-39079819D02*
X35813988Y-39079819D01*
X35813988Y-39079819D02*
X35909226Y-39127438D01*
X35909226Y-39127438D02*
X35956845Y-39175057D01*
X35956845Y-39175057D02*
X36004464Y-39270295D01*
X36004464Y-39270295D02*
X36004464Y-39365533D01*
X36004464Y-39365533D02*
X35956845Y-39508390D01*
X35956845Y-39508390D02*
X35385417Y-40079819D01*
X35385417Y-40079819D02*
X36004464Y-40079819D01*
X36956845Y-40079819D02*
X36385417Y-40079819D01*
X36671131Y-40079819D02*
X36671131Y-39079819D01*
X36671131Y-39079819D02*
X36575893Y-39222676D01*
X36575893Y-39222676D02*
X36480655Y-39317914D01*
X36480655Y-39317914D02*
X36385417Y-39365533D01*
X256047917Y-116913450D02*
X256190774Y-116961069D01*
X256190774Y-116961069D02*
X256428869Y-116961069D01*
X256428869Y-116961069D02*
X256524107Y-116913450D01*
X256524107Y-116913450D02*
X256571726Y-116865830D01*
X256571726Y-116865830D02*
X256619345Y-116770592D01*
X256619345Y-116770592D02*
X256619345Y-116675354D01*
X256619345Y-116675354D02*
X256571726Y-116580116D01*
X256571726Y-116580116D02*
X256524107Y-116532497D01*
X256524107Y-116532497D02*
X256428869Y-116484878D01*
X256428869Y-116484878D02*
X256238393Y-116437259D01*
X256238393Y-116437259D02*
X256143155Y-116389640D01*
X256143155Y-116389640D02*
X256095536Y-116342021D01*
X256095536Y-116342021D02*
X256047917Y-116246783D01*
X256047917Y-116246783D02*
X256047917Y-116151545D01*
X256047917Y-116151545D02*
X256095536Y-116056307D01*
X256095536Y-116056307D02*
X256143155Y-116008688D01*
X256143155Y-116008688D02*
X256238393Y-115961069D01*
X256238393Y-115961069D02*
X256476488Y-115961069D01*
X256476488Y-115961069D02*
X256619345Y-116008688D01*
X256952679Y-115961069D02*
X257190774Y-116961069D01*
X257190774Y-116961069D02*
X257381250Y-116246783D01*
X257381250Y-116246783D02*
X257571726Y-116961069D01*
X257571726Y-116961069D02*
X257809822Y-115961069D01*
X258143155Y-116056307D02*
X258190774Y-116008688D01*
X258190774Y-116008688D02*
X258286012Y-115961069D01*
X258286012Y-115961069D02*
X258524107Y-115961069D01*
X258524107Y-115961069D02*
X258619345Y-116008688D01*
X258619345Y-116008688D02*
X258666964Y-116056307D01*
X258666964Y-116056307D02*
X258714583Y-116151545D01*
X258714583Y-116151545D02*
X258714583Y-116246783D01*
X258714583Y-116246783D02*
X258666964Y-116389640D01*
X258666964Y-116389640D02*
X258095536Y-116961069D01*
X258095536Y-116961069D02*
X258714583Y-116961069D01*
X27019345Y-145124700D02*
X27162202Y-145172319D01*
X27162202Y-145172319D02*
X27400297Y-145172319D01*
X27400297Y-145172319D02*
X27495535Y-145124700D01*
X27495535Y-145124700D02*
X27543154Y-145077080D01*
X27543154Y-145077080D02*
X27590773Y-144981842D01*
X27590773Y-144981842D02*
X27590773Y-144886604D01*
X27590773Y-144886604D02*
X27543154Y-144791366D01*
X27543154Y-144791366D02*
X27495535Y-144743747D01*
X27495535Y-144743747D02*
X27400297Y-144696128D01*
X27400297Y-144696128D02*
X27209821Y-144648509D01*
X27209821Y-144648509D02*
X27114583Y-144600890D01*
X27114583Y-144600890D02*
X27066964Y-144553271D01*
X27066964Y-144553271D02*
X27019345Y-144458033D01*
X27019345Y-144458033D02*
X27019345Y-144362795D01*
X27019345Y-144362795D02*
X27066964Y-144267557D01*
X27066964Y-144267557D02*
X27114583Y-144219938D01*
X27114583Y-144219938D02*
X27209821Y-144172319D01*
X27209821Y-144172319D02*
X27447916Y-144172319D01*
X27447916Y-144172319D02*
X27590773Y-144219938D01*
X28543154Y-145172319D02*
X27971726Y-145172319D01*
X28257440Y-145172319D02*
X28257440Y-144172319D01*
X28257440Y-144172319D02*
X28162202Y-144315176D01*
X28162202Y-144315176D02*
X28066964Y-144410414D01*
X28066964Y-144410414D02*
X27971726Y-144458033D01*
D10*
X171534669Y-55706404D02*
X172344192Y-55706404D01*
X172344192Y-55706404D02*
X172439430Y-55658785D01*
X172439430Y-55658785D02*
X172487050Y-55611166D01*
X172487050Y-55611166D02*
X172534669Y-55515928D01*
X172534669Y-55515928D02*
X172534669Y-55325452D01*
X172534669Y-55325452D02*
X172487050Y-55230214D01*
X172487050Y-55230214D02*
X172439430Y-55182595D01*
X172439430Y-55182595D02*
X172344192Y-55134976D01*
X172344192Y-55134976D02*
X171534669Y-55134976D01*
X172534669Y-54134976D02*
X172534669Y-54706404D01*
X172534669Y-54420690D02*
X171534669Y-54420690D01*
X171534669Y-54420690D02*
X171677526Y-54515928D01*
X171677526Y-54515928D02*
X171772764Y-54611166D01*
X171772764Y-54611166D02*
X171820383Y-54706404D01*
X184534669Y-49313547D02*
X184510859Y-49361166D01*
X184510859Y-49361166D02*
X184510859Y-49432595D01*
X184510859Y-49432595D02*
X184534669Y-49504023D01*
X184534669Y-49504023D02*
X184582288Y-49551642D01*
X184582288Y-49551642D02*
X184629907Y-49575452D01*
X184629907Y-49575452D02*
X184725145Y-49599261D01*
X184725145Y-49599261D02*
X184796573Y-49599261D01*
X184796573Y-49599261D02*
X184891811Y-49575452D01*
X184891811Y-49575452D02*
X184939430Y-49551642D01*
X184939430Y-49551642D02*
X184987050Y-49504023D01*
X184987050Y-49504023D02*
X185010859Y-49432595D01*
X185010859Y-49432595D02*
X185010859Y-49384976D01*
X185010859Y-49384976D02*
X184987050Y-49313547D01*
X184987050Y-49313547D02*
X184963240Y-49289738D01*
X184963240Y-49289738D02*
X184796573Y-49289738D01*
X184796573Y-49289738D02*
X184796573Y-49384976D01*
X184510859Y-65331091D02*
X185010859Y-65164425D01*
X185010859Y-65164425D02*
X184510859Y-64997758D01*
X185010859Y-64831092D02*
X184510859Y-64831092D01*
X185010859Y-64592997D02*
X184510859Y-64592997D01*
X184510859Y-64592997D02*
X185010859Y-64307283D01*
X185010859Y-64307283D02*
X184510859Y-64307283D01*
X167010859Y-54873071D02*
X166510859Y-54873071D01*
X166510859Y-54873071D02*
X166868002Y-54706404D01*
X166868002Y-54706404D02*
X166510859Y-54539738D01*
X166510859Y-54539738D02*
X167010859Y-54539738D01*
X166510859Y-54301642D02*
X166915621Y-54301642D01*
X166915621Y-54301642D02*
X166963240Y-54277832D01*
X166963240Y-54277832D02*
X166987050Y-54254023D01*
X166987050Y-54254023D02*
X167010859Y-54206404D01*
X167010859Y-54206404D02*
X167010859Y-54111166D01*
X167010859Y-54111166D02*
X166987050Y-54063547D01*
X166987050Y-54063547D02*
X166963240Y-54039737D01*
X166963240Y-54039737D02*
X166915621Y-54015928D01*
X166915621Y-54015928D02*
X166510859Y-54015928D01*
X184534669Y-62497758D02*
X184510859Y-62545377D01*
X184510859Y-62545377D02*
X184510859Y-62616806D01*
X184510859Y-62616806D02*
X184534669Y-62688234D01*
X184534669Y-62688234D02*
X184582288Y-62735853D01*
X184582288Y-62735853D02*
X184629907Y-62759663D01*
X184629907Y-62759663D02*
X184725145Y-62783472D01*
X184725145Y-62783472D02*
X184796573Y-62783472D01*
X184796573Y-62783472D02*
X184891811Y-62759663D01*
X184891811Y-62759663D02*
X184939430Y-62735853D01*
X184939430Y-62735853D02*
X184987050Y-62688234D01*
X184987050Y-62688234D02*
X185010859Y-62616806D01*
X185010859Y-62616806D02*
X185010859Y-62569187D01*
X185010859Y-62569187D02*
X184987050Y-62497758D01*
X184987050Y-62497758D02*
X184963240Y-62473949D01*
X184963240Y-62473949D02*
X184796573Y-62473949D01*
X184796573Y-62473949D02*
X184796573Y-62569187D01*
X185010859Y-62259663D02*
X184510859Y-62259663D01*
X184510859Y-62259663D02*
X185010859Y-61973949D01*
X185010859Y-61973949D02*
X184510859Y-61973949D01*
X185010859Y-61735853D02*
X184510859Y-61735853D01*
X184510859Y-61735853D02*
X184510859Y-61616805D01*
X184510859Y-61616805D02*
X184534669Y-61545377D01*
X184534669Y-61545377D02*
X184582288Y-61497758D01*
X184582288Y-61497758D02*
X184629907Y-61473948D01*
X184629907Y-61473948D02*
X184725145Y-61450139D01*
X184725145Y-61450139D02*
X184796573Y-61450139D01*
X184796573Y-61450139D02*
X184891811Y-61473948D01*
X184891811Y-61473948D02*
X184939430Y-61497758D01*
X184939430Y-61497758D02*
X184987050Y-61545377D01*
X184987050Y-61545377D02*
X185010859Y-61616805D01*
X185010859Y-61616805D02*
X185010859Y-61735853D01*
X184748954Y-54908785D02*
X184772764Y-54837357D01*
X184772764Y-54837357D02*
X184796573Y-54813547D01*
X184796573Y-54813547D02*
X184844192Y-54789738D01*
X184844192Y-54789738D02*
X184915621Y-54789738D01*
X184915621Y-54789738D02*
X184963240Y-54813547D01*
X184963240Y-54813547D02*
X184987050Y-54837357D01*
X184987050Y-54837357D02*
X185010859Y-54884976D01*
X185010859Y-54884976D02*
X185010859Y-55075452D01*
X185010859Y-55075452D02*
X184510859Y-55075452D01*
X184510859Y-55075452D02*
X184510859Y-54908785D01*
X184510859Y-54908785D02*
X184534669Y-54861166D01*
X184534669Y-54861166D02*
X184558478Y-54837357D01*
X184558478Y-54837357D02*
X184606097Y-54813547D01*
X184606097Y-54813547D02*
X184653716Y-54813547D01*
X184653716Y-54813547D02*
X184701335Y-54837357D01*
X184701335Y-54837357D02*
X184725145Y-54861166D01*
X184725145Y-54861166D02*
X184748954Y-54908785D01*
X184748954Y-54908785D02*
X184748954Y-55075452D01*
X184963240Y-54289738D02*
X184987050Y-54313547D01*
X184987050Y-54313547D02*
X185010859Y-54384976D01*
X185010859Y-54384976D02*
X185010859Y-54432595D01*
X185010859Y-54432595D02*
X184987050Y-54504023D01*
X184987050Y-54504023D02*
X184939430Y-54551642D01*
X184939430Y-54551642D02*
X184891811Y-54575452D01*
X184891811Y-54575452D02*
X184796573Y-54599261D01*
X184796573Y-54599261D02*
X184725145Y-54599261D01*
X184725145Y-54599261D02*
X184629907Y-54575452D01*
X184629907Y-54575452D02*
X184582288Y-54551642D01*
X184582288Y-54551642D02*
X184534669Y-54504023D01*
X184534669Y-54504023D02*
X184510859Y-54432595D01*
X184510859Y-54432595D02*
X184510859Y-54384976D01*
X184510859Y-54384976D02*
X184534669Y-54313547D01*
X184534669Y-54313547D02*
X184558478Y-54289738D01*
X185010859Y-54075452D02*
X184510859Y-54075452D01*
X185010859Y-53789738D02*
X184725145Y-54004023D01*
X184510859Y-53789738D02*
X184796573Y-54075452D01*
X167010859Y-62301642D02*
X166510859Y-62301642D01*
X166510859Y-62301642D02*
X166510859Y-62182594D01*
X166510859Y-62182594D02*
X166534669Y-62111166D01*
X166534669Y-62111166D02*
X166582288Y-62063547D01*
X166582288Y-62063547D02*
X166629907Y-62039737D01*
X166629907Y-62039737D02*
X166725145Y-62015928D01*
X166725145Y-62015928D02*
X166796573Y-62015928D01*
X166796573Y-62015928D02*
X166891811Y-62039737D01*
X166891811Y-62039737D02*
X166939430Y-62063547D01*
X166939430Y-62063547D02*
X166987050Y-62111166D01*
X166987050Y-62111166D02*
X167010859Y-62182594D01*
X167010859Y-62182594D02*
X167010859Y-62301642D01*
X166748954Y-61801642D02*
X166748954Y-61634975D01*
X167010859Y-61563547D02*
X167010859Y-61801642D01*
X167010859Y-61801642D02*
X166510859Y-61801642D01*
X166510859Y-61801642D02*
X166510859Y-61563547D01*
X166510859Y-49825451D02*
X166510859Y-49515927D01*
X166510859Y-49515927D02*
X166701335Y-49682594D01*
X166701335Y-49682594D02*
X166701335Y-49611165D01*
X166701335Y-49611165D02*
X166725145Y-49563546D01*
X166725145Y-49563546D02*
X166748954Y-49539737D01*
X166748954Y-49539737D02*
X166796573Y-49515927D01*
X166796573Y-49515927D02*
X166915621Y-49515927D01*
X166915621Y-49515927D02*
X166963240Y-49539737D01*
X166963240Y-49539737D02*
X166987050Y-49563546D01*
X166987050Y-49563546D02*
X167010859Y-49611165D01*
X167010859Y-49611165D02*
X167010859Y-49754022D01*
X167010859Y-49754022D02*
X166987050Y-49801641D01*
X166987050Y-49801641D02*
X166963240Y-49825451D01*
X166510859Y-49373070D02*
X167010859Y-49206404D01*
X167010859Y-49206404D02*
X166510859Y-49039737D01*
X185010859Y-57456404D02*
X184510859Y-57456404D01*
X184510859Y-57456404D02*
X184510859Y-57337356D01*
X184510859Y-57337356D02*
X184534669Y-57265928D01*
X184534669Y-57265928D02*
X184582288Y-57218309D01*
X184582288Y-57218309D02*
X184629907Y-57194499D01*
X184629907Y-57194499D02*
X184725145Y-57170690D01*
X184725145Y-57170690D02*
X184796573Y-57170690D01*
X184796573Y-57170690D02*
X184891811Y-57194499D01*
X184891811Y-57194499D02*
X184939430Y-57218309D01*
X184939430Y-57218309D02*
X184987050Y-57265928D01*
X184987050Y-57265928D02*
X185010859Y-57337356D01*
X185010859Y-57337356D02*
X185010859Y-57456404D01*
X185010859Y-56956404D02*
X184510859Y-56956404D01*
X185010859Y-56718309D02*
X184510859Y-56718309D01*
X184510859Y-56718309D02*
X185010859Y-56432595D01*
X185010859Y-56432595D02*
X184510859Y-56432595D01*
X185010859Y-52504024D02*
X185010859Y-52742119D01*
X185010859Y-52742119D02*
X184510859Y-52742119D01*
X184510859Y-52242119D02*
X184510859Y-52146881D01*
X184510859Y-52146881D02*
X184534669Y-52099262D01*
X184534669Y-52099262D02*
X184582288Y-52051643D01*
X184582288Y-52051643D02*
X184677526Y-52027833D01*
X184677526Y-52027833D02*
X184844192Y-52027833D01*
X184844192Y-52027833D02*
X184939430Y-52051643D01*
X184939430Y-52051643D02*
X184987050Y-52099262D01*
X184987050Y-52099262D02*
X185010859Y-52146881D01*
X185010859Y-52146881D02*
X185010859Y-52242119D01*
X185010859Y-52242119D02*
X184987050Y-52289738D01*
X184987050Y-52289738D02*
X184939430Y-52337357D01*
X184939430Y-52337357D02*
X184844192Y-52361166D01*
X184844192Y-52361166D02*
X184677526Y-52361166D01*
X184677526Y-52361166D02*
X184582288Y-52337357D01*
X184582288Y-52337357D02*
X184534669Y-52289738D01*
X184534669Y-52289738D02*
X184510859Y-52242119D01*
X184510859Y-51813547D02*
X184915621Y-51813547D01*
X184915621Y-51813547D02*
X184963240Y-51789737D01*
X184963240Y-51789737D02*
X184987050Y-51765928D01*
X184987050Y-51765928D02*
X185010859Y-51718309D01*
X185010859Y-51718309D02*
X185010859Y-51623071D01*
X185010859Y-51623071D02*
X184987050Y-51575452D01*
X184987050Y-51575452D02*
X184963240Y-51551642D01*
X184963240Y-51551642D02*
X184915621Y-51527833D01*
X184915621Y-51527833D02*
X184510859Y-51527833D01*
X184510859Y-51361165D02*
X184510859Y-51075451D01*
X185010859Y-51218308D02*
X184510859Y-51218308D01*
X184510859Y-60307282D02*
X185010859Y-60188234D01*
X185010859Y-60188234D02*
X184653716Y-60092996D01*
X184653716Y-60092996D02*
X185010859Y-59997758D01*
X185010859Y-59997758D02*
X184510859Y-59878711D01*
X184987050Y-59712043D02*
X185010859Y-59640615D01*
X185010859Y-59640615D02*
X185010859Y-59521567D01*
X185010859Y-59521567D02*
X184987050Y-59473948D01*
X184987050Y-59473948D02*
X184963240Y-59450139D01*
X184963240Y-59450139D02*
X184915621Y-59426329D01*
X184915621Y-59426329D02*
X184868002Y-59426329D01*
X184868002Y-59426329D02*
X184820383Y-59450139D01*
X184820383Y-59450139D02*
X184796573Y-59473948D01*
X184796573Y-59473948D02*
X184772764Y-59521567D01*
X184772764Y-59521567D02*
X184748954Y-59616805D01*
X184748954Y-59616805D02*
X184725145Y-59664424D01*
X184725145Y-59664424D02*
X184701335Y-59688234D01*
X184701335Y-59688234D02*
X184653716Y-59712043D01*
X184653716Y-59712043D02*
X184606097Y-59712043D01*
X184606097Y-59712043D02*
X184558478Y-59688234D01*
X184558478Y-59688234D02*
X184534669Y-59664424D01*
X184534669Y-59664424D02*
X184510859Y-59616805D01*
X184510859Y-59616805D02*
X184510859Y-59497758D01*
X184510859Y-59497758D02*
X184534669Y-59426329D01*
X184748954Y-59212044D02*
X184748954Y-59045377D01*
X185010859Y-58973949D02*
X185010859Y-59212044D01*
X185010859Y-59212044D02*
X184510859Y-59212044D01*
X184510859Y-59212044D02*
X184510859Y-58973949D01*
X185010859Y-58521568D02*
X185010859Y-58759663D01*
X185010859Y-58759663D02*
X184510859Y-58759663D01*
X167010859Y-57611166D02*
X166510859Y-57611166D01*
X166510859Y-57611166D02*
X166868002Y-57444499D01*
X166868002Y-57444499D02*
X166510859Y-57277833D01*
X166510859Y-57277833D02*
X167010859Y-57277833D01*
X166963240Y-56754023D02*
X166987050Y-56777832D01*
X166987050Y-56777832D02*
X167010859Y-56849261D01*
X167010859Y-56849261D02*
X167010859Y-56896880D01*
X167010859Y-56896880D02*
X166987050Y-56968308D01*
X166987050Y-56968308D02*
X166939430Y-57015927D01*
X166939430Y-57015927D02*
X166891811Y-57039737D01*
X166891811Y-57039737D02*
X166796573Y-57063546D01*
X166796573Y-57063546D02*
X166725145Y-57063546D01*
X166725145Y-57063546D02*
X166629907Y-57039737D01*
X166629907Y-57039737D02*
X166582288Y-57015927D01*
X166582288Y-57015927D02*
X166534669Y-56968308D01*
X166534669Y-56968308D02*
X166510859Y-56896880D01*
X166510859Y-56896880D02*
X166510859Y-56849261D01*
X166510859Y-56849261D02*
X166534669Y-56777832D01*
X166534669Y-56777832D02*
X166558478Y-56754023D01*
X167010859Y-56539737D02*
X166510859Y-56539737D01*
X167010859Y-56254023D02*
X166725145Y-56468308D01*
X166510859Y-56254023D02*
X166796573Y-56539737D01*
X185010859Y-47004024D02*
X184772764Y-47170690D01*
X185010859Y-47289738D02*
X184510859Y-47289738D01*
X184510859Y-47289738D02*
X184510859Y-47099262D01*
X184510859Y-47099262D02*
X184534669Y-47051643D01*
X184534669Y-47051643D02*
X184558478Y-47027833D01*
X184558478Y-47027833D02*
X184606097Y-47004024D01*
X184606097Y-47004024D02*
X184677526Y-47004024D01*
X184677526Y-47004024D02*
X184725145Y-47027833D01*
X184725145Y-47027833D02*
X184748954Y-47051643D01*
X184748954Y-47051643D02*
X184772764Y-47099262D01*
X184772764Y-47099262D02*
X184772764Y-47289738D01*
X184510859Y-46694500D02*
X184510859Y-46599262D01*
X184510859Y-46599262D02*
X184534669Y-46551643D01*
X184534669Y-46551643D02*
X184582288Y-46504024D01*
X184582288Y-46504024D02*
X184677526Y-46480214D01*
X184677526Y-46480214D02*
X184844192Y-46480214D01*
X184844192Y-46480214D02*
X184939430Y-46504024D01*
X184939430Y-46504024D02*
X184987050Y-46551643D01*
X184987050Y-46551643D02*
X185010859Y-46599262D01*
X185010859Y-46599262D02*
X185010859Y-46694500D01*
X185010859Y-46694500D02*
X184987050Y-46742119D01*
X184987050Y-46742119D02*
X184939430Y-46789738D01*
X184939430Y-46789738D02*
X184844192Y-46813547D01*
X184844192Y-46813547D02*
X184677526Y-46813547D01*
X184677526Y-46813547D02*
X184582288Y-46789738D01*
X184582288Y-46789738D02*
X184534669Y-46742119D01*
X184534669Y-46742119D02*
X184510859Y-46694500D01*
X184510859Y-46265928D02*
X184915621Y-46265928D01*
X184915621Y-46265928D02*
X184963240Y-46242118D01*
X184963240Y-46242118D02*
X184987050Y-46218309D01*
X184987050Y-46218309D02*
X185010859Y-46170690D01*
X185010859Y-46170690D02*
X185010859Y-46075452D01*
X185010859Y-46075452D02*
X184987050Y-46027833D01*
X184987050Y-46027833D02*
X184963240Y-46004023D01*
X184963240Y-46004023D02*
X184915621Y-45980214D01*
X184915621Y-45980214D02*
X184510859Y-45980214D01*
X184510859Y-45813546D02*
X184510859Y-45527832D01*
X185010859Y-45670689D02*
X184510859Y-45670689D01*
X166748954Y-59694499D02*
X166748954Y-59861166D01*
X167010859Y-59861166D02*
X166510859Y-59861166D01*
X166510859Y-59861166D02*
X166510859Y-59623071D01*
X167010859Y-59432595D02*
X166510859Y-59432595D01*
X167010859Y-58956405D02*
X167010859Y-59194500D01*
X167010859Y-59194500D02*
X166510859Y-59194500D01*
X166748954Y-52158785D02*
X166748954Y-52325452D01*
X167010859Y-52325452D02*
X166510859Y-52325452D01*
X166510859Y-52325452D02*
X166510859Y-52087357D01*
X167010859Y-51896881D02*
X166510859Y-51896881D01*
X166510859Y-51896881D02*
X166868002Y-51730214D01*
X166868002Y-51730214D02*
X166510859Y-51563548D01*
X166510859Y-51563548D02*
X167010859Y-51563548D01*
D11*
X84804345Y-145124700D02*
X84947202Y-145172319D01*
X84947202Y-145172319D02*
X85185297Y-145172319D01*
X85185297Y-145172319D02*
X85280535Y-145124700D01*
X85280535Y-145124700D02*
X85328154Y-145077080D01*
X85328154Y-145077080D02*
X85375773Y-144981842D01*
X85375773Y-144981842D02*
X85375773Y-144886604D01*
X85375773Y-144886604D02*
X85328154Y-144791366D01*
X85328154Y-144791366D02*
X85280535Y-144743747D01*
X85280535Y-144743747D02*
X85185297Y-144696128D01*
X85185297Y-144696128D02*
X84994821Y-144648509D01*
X84994821Y-144648509D02*
X84899583Y-144600890D01*
X84899583Y-144600890D02*
X84851964Y-144553271D01*
X84851964Y-144553271D02*
X84804345Y-144458033D01*
X84804345Y-144458033D02*
X84804345Y-144362795D01*
X84804345Y-144362795D02*
X84851964Y-144267557D01*
X84851964Y-144267557D02*
X84899583Y-144219938D01*
X84899583Y-144219938D02*
X84994821Y-144172319D01*
X84994821Y-144172319D02*
X85232916Y-144172319D01*
X85232916Y-144172319D02*
X85375773Y-144219938D01*
X86232916Y-144172319D02*
X86042440Y-144172319D01*
X86042440Y-144172319D02*
X85947202Y-144219938D01*
X85947202Y-144219938D02*
X85899583Y-144267557D01*
X85899583Y-144267557D02*
X85804345Y-144410414D01*
X85804345Y-144410414D02*
X85756726Y-144600890D01*
X85756726Y-144600890D02*
X85756726Y-144981842D01*
X85756726Y-144981842D02*
X85804345Y-145077080D01*
X85804345Y-145077080D02*
X85851964Y-145124700D01*
X85851964Y-145124700D02*
X85947202Y-145172319D01*
X85947202Y-145172319D02*
X86137678Y-145172319D01*
X86137678Y-145172319D02*
X86232916Y-145124700D01*
X86232916Y-145124700D02*
X86280535Y-145077080D01*
X86280535Y-145077080D02*
X86328154Y-144981842D01*
X86328154Y-144981842D02*
X86328154Y-144743747D01*
X86328154Y-144743747D02*
X86280535Y-144648509D01*
X86280535Y-144648509D02*
X86232916Y-144600890D01*
X86232916Y-144600890D02*
X86137678Y-144553271D01*
X86137678Y-144553271D02*
X85947202Y-144553271D01*
X85947202Y-144553271D02*
X85851964Y-144600890D01*
X85851964Y-144600890D02*
X85804345Y-144648509D01*
X85804345Y-144648509D02*
X85756726Y-144743747D01*
X103854405Y-61463450D02*
X103997262Y-61511069D01*
X103997262Y-61511069D02*
X104235357Y-61511069D01*
X104235357Y-61511069D02*
X104330595Y-61463450D01*
X104330595Y-61463450D02*
X104378214Y-61415830D01*
X104378214Y-61415830D02*
X104425833Y-61320592D01*
X104425833Y-61320592D02*
X104425833Y-61225354D01*
X104425833Y-61225354D02*
X104378214Y-61130116D01*
X104378214Y-61130116D02*
X104330595Y-61082497D01*
X104330595Y-61082497D02*
X104235357Y-61034878D01*
X104235357Y-61034878D02*
X104044881Y-60987259D01*
X104044881Y-60987259D02*
X103949643Y-60939640D01*
X103949643Y-60939640D02*
X103902024Y-60892021D01*
X103902024Y-60892021D02*
X103854405Y-60796783D01*
X103854405Y-60796783D02*
X103854405Y-60701545D01*
X103854405Y-60701545D02*
X103902024Y-60606307D01*
X103902024Y-60606307D02*
X103949643Y-60558688D01*
X103949643Y-60558688D02*
X104044881Y-60511069D01*
X104044881Y-60511069D02*
X104282976Y-60511069D01*
X104282976Y-60511069D02*
X104425833Y-60558688D01*
X104806786Y-60606307D02*
X104854405Y-60558688D01*
X104854405Y-60558688D02*
X104949643Y-60511069D01*
X104949643Y-60511069D02*
X105187738Y-60511069D01*
X105187738Y-60511069D02*
X105282976Y-60558688D01*
X105282976Y-60558688D02*
X105330595Y-60606307D01*
X105330595Y-60606307D02*
X105378214Y-60701545D01*
X105378214Y-60701545D02*
X105378214Y-60796783D01*
X105378214Y-60796783D02*
X105330595Y-60939640D01*
X105330595Y-60939640D02*
X104759167Y-61511069D01*
X104759167Y-61511069D02*
X105378214Y-61511069D01*
X105854405Y-61511069D02*
X106044881Y-61511069D01*
X106044881Y-61511069D02*
X106140119Y-61463450D01*
X106140119Y-61463450D02*
X106187738Y-61415830D01*
X106187738Y-61415830D02*
X106282976Y-61272973D01*
X106282976Y-61272973D02*
X106330595Y-61082497D01*
X106330595Y-61082497D02*
X106330595Y-60701545D01*
X106330595Y-60701545D02*
X106282976Y-60606307D01*
X106282976Y-60606307D02*
X106235357Y-60558688D01*
X106235357Y-60558688D02*
X106140119Y-60511069D01*
X106140119Y-60511069D02*
X105949643Y-60511069D01*
X105949643Y-60511069D02*
X105854405Y-60558688D01*
X105854405Y-60558688D02*
X105806786Y-60606307D01*
X105806786Y-60606307D02*
X105759167Y-60701545D01*
X105759167Y-60701545D02*
X105759167Y-60939640D01*
X105759167Y-60939640D02*
X105806786Y-61034878D01*
X105806786Y-61034878D02*
X105854405Y-61082497D01*
X105854405Y-61082497D02*
X105949643Y-61130116D01*
X105949643Y-61130116D02*
X106140119Y-61130116D01*
X106140119Y-61130116D02*
X106235357Y-61082497D01*
X106235357Y-61082497D02*
X106282976Y-61034878D01*
X106282976Y-61034878D02*
X106330595Y-60939640D01*
X190166666Y-76853569D02*
X190166666Y-77567854D01*
X190166666Y-77567854D02*
X190119047Y-77710711D01*
X190119047Y-77710711D02*
X190023809Y-77805950D01*
X190023809Y-77805950D02*
X189880952Y-77853569D01*
X189880952Y-77853569D02*
X189785714Y-77853569D01*
X191166666Y-77853569D02*
X190595238Y-77853569D01*
X190880952Y-77853569D02*
X190880952Y-76853569D01*
X190880952Y-76853569D02*
X190785714Y-76996426D01*
X190785714Y-76996426D02*
X190690476Y-77091664D01*
X190690476Y-77091664D02*
X190595238Y-77139283D01*
X141160655Y-145124700D02*
X141303512Y-145172319D01*
X141303512Y-145172319D02*
X141541607Y-145172319D01*
X141541607Y-145172319D02*
X141636845Y-145124700D01*
X141636845Y-145124700D02*
X141684464Y-145077080D01*
X141684464Y-145077080D02*
X141732083Y-144981842D01*
X141732083Y-144981842D02*
X141732083Y-144886604D01*
X141732083Y-144886604D02*
X141684464Y-144791366D01*
X141684464Y-144791366D02*
X141636845Y-144743747D01*
X141636845Y-144743747D02*
X141541607Y-144696128D01*
X141541607Y-144696128D02*
X141351131Y-144648509D01*
X141351131Y-144648509D02*
X141255893Y-144600890D01*
X141255893Y-144600890D02*
X141208274Y-144553271D01*
X141208274Y-144553271D02*
X141160655Y-144458033D01*
X141160655Y-144458033D02*
X141160655Y-144362795D01*
X141160655Y-144362795D02*
X141208274Y-144267557D01*
X141208274Y-144267557D02*
X141255893Y-144219938D01*
X141255893Y-144219938D02*
X141351131Y-144172319D01*
X141351131Y-144172319D02*
X141589226Y-144172319D01*
X141589226Y-144172319D02*
X141732083Y-144219938D01*
X142684464Y-145172319D02*
X142113036Y-145172319D01*
X142398750Y-145172319D02*
X142398750Y-144172319D01*
X142398750Y-144172319D02*
X142303512Y-144315176D01*
X142303512Y-144315176D02*
X142208274Y-144410414D01*
X142208274Y-144410414D02*
X142113036Y-144458033D01*
X143636845Y-145172319D02*
X143065417Y-145172319D01*
X143351131Y-145172319D02*
X143351131Y-144172319D01*
X143351131Y-144172319D02*
X143255893Y-144315176D01*
X143255893Y-144315176D02*
X143160655Y-144410414D01*
X143160655Y-144410414D02*
X143065417Y-144458033D01*
X179578155Y-145124700D02*
X179721012Y-145172319D01*
X179721012Y-145172319D02*
X179959107Y-145172319D01*
X179959107Y-145172319D02*
X180054345Y-145124700D01*
X180054345Y-145124700D02*
X180101964Y-145077080D01*
X180101964Y-145077080D02*
X180149583Y-144981842D01*
X180149583Y-144981842D02*
X180149583Y-144886604D01*
X180149583Y-144886604D02*
X180101964Y-144791366D01*
X180101964Y-144791366D02*
X180054345Y-144743747D01*
X180054345Y-144743747D02*
X179959107Y-144696128D01*
X179959107Y-144696128D02*
X179768631Y-144648509D01*
X179768631Y-144648509D02*
X179673393Y-144600890D01*
X179673393Y-144600890D02*
X179625774Y-144553271D01*
X179625774Y-144553271D02*
X179578155Y-144458033D01*
X179578155Y-144458033D02*
X179578155Y-144362795D01*
X179578155Y-144362795D02*
X179625774Y-144267557D01*
X179625774Y-144267557D02*
X179673393Y-144219938D01*
X179673393Y-144219938D02*
X179768631Y-144172319D01*
X179768631Y-144172319D02*
X180006726Y-144172319D01*
X180006726Y-144172319D02*
X180149583Y-144219938D01*
X181101964Y-145172319D02*
X180530536Y-145172319D01*
X180816250Y-145172319D02*
X180816250Y-144172319D01*
X180816250Y-144172319D02*
X180721012Y-144315176D01*
X180721012Y-144315176D02*
X180625774Y-144410414D01*
X180625774Y-144410414D02*
X180530536Y-144458033D01*
X181435298Y-144172319D02*
X182054345Y-144172319D01*
X182054345Y-144172319D02*
X181721012Y-144553271D01*
X181721012Y-144553271D02*
X181863869Y-144553271D01*
X181863869Y-144553271D02*
X181959107Y-144600890D01*
X181959107Y-144600890D02*
X182006726Y-144648509D01*
X182006726Y-144648509D02*
X182054345Y-144743747D01*
X182054345Y-144743747D02*
X182054345Y-144981842D01*
X182054345Y-144981842D02*
X182006726Y-145077080D01*
X182006726Y-145077080D02*
X181959107Y-145124700D01*
X181959107Y-145124700D02*
X181863869Y-145172319D01*
X181863869Y-145172319D02*
X181578155Y-145172319D01*
X181578155Y-145172319D02*
X181482917Y-145124700D01*
X181482917Y-145124700D02*
X181435298Y-145077080D01*
X256154167Y-90682263D02*
X256297024Y-90729882D01*
X256297024Y-90729882D02*
X256535119Y-90729882D01*
X256535119Y-90729882D02*
X256630357Y-90682263D01*
X256630357Y-90682263D02*
X256677976Y-90634643D01*
X256677976Y-90634643D02*
X256725595Y-90539405D01*
X256725595Y-90539405D02*
X256725595Y-90444167D01*
X256725595Y-90444167D02*
X256677976Y-90348929D01*
X256677976Y-90348929D02*
X256630357Y-90301310D01*
X256630357Y-90301310D02*
X256535119Y-90253691D01*
X256535119Y-90253691D02*
X256344643Y-90206072D01*
X256344643Y-90206072D02*
X256249405Y-90158453D01*
X256249405Y-90158453D02*
X256201786Y-90110834D01*
X256201786Y-90110834D02*
X256154167Y-90015596D01*
X256154167Y-90015596D02*
X256154167Y-89920358D01*
X256154167Y-89920358D02*
X256201786Y-89825120D01*
X256201786Y-89825120D02*
X256249405Y-89777501D01*
X256249405Y-89777501D02*
X256344643Y-89729882D01*
X256344643Y-89729882D02*
X256582738Y-89729882D01*
X256582738Y-89729882D02*
X256725595Y-89777501D01*
X257058929Y-89729882D02*
X257297024Y-90729882D01*
X257297024Y-90729882D02*
X257487500Y-90015596D01*
X257487500Y-90015596D02*
X257677976Y-90729882D01*
X257677976Y-90729882D02*
X257916072Y-89729882D01*
X258820833Y-90729882D02*
X258249405Y-90729882D01*
X258535119Y-90729882D02*
X258535119Y-89729882D01*
X258535119Y-89729882D02*
X258439881Y-89872739D01*
X258439881Y-89872739D02*
X258344643Y-89967977D01*
X258344643Y-89967977D02*
X258249405Y-90015596D01*
X18288095Y-39167319D02*
X18288095Y-38167319D01*
X18288095Y-38643509D02*
X18859523Y-38643509D01*
X18859523Y-39167319D02*
X18859523Y-38167319D01*
X19859523Y-39167319D02*
X19288095Y-39167319D01*
X19573809Y-39167319D02*
X19573809Y-38167319D01*
X19573809Y-38167319D02*
X19478571Y-38310176D01*
X19478571Y-38310176D02*
X19383333Y-38405414D01*
X19383333Y-38405414D02*
X19288095Y-38453033D01*
X129730655Y-61463450D02*
X129873512Y-61511069D01*
X129873512Y-61511069D02*
X130111607Y-61511069D01*
X130111607Y-61511069D02*
X130206845Y-61463450D01*
X130206845Y-61463450D02*
X130254464Y-61415830D01*
X130254464Y-61415830D02*
X130302083Y-61320592D01*
X130302083Y-61320592D02*
X130302083Y-61225354D01*
X130302083Y-61225354D02*
X130254464Y-61130116D01*
X130254464Y-61130116D02*
X130206845Y-61082497D01*
X130206845Y-61082497D02*
X130111607Y-61034878D01*
X130111607Y-61034878D02*
X129921131Y-60987259D01*
X129921131Y-60987259D02*
X129825893Y-60939640D01*
X129825893Y-60939640D02*
X129778274Y-60892021D01*
X129778274Y-60892021D02*
X129730655Y-60796783D01*
X129730655Y-60796783D02*
X129730655Y-60701545D01*
X129730655Y-60701545D02*
X129778274Y-60606307D01*
X129778274Y-60606307D02*
X129825893Y-60558688D01*
X129825893Y-60558688D02*
X129921131Y-60511069D01*
X129921131Y-60511069D02*
X130159226Y-60511069D01*
X130159226Y-60511069D02*
X130302083Y-60558688D01*
X130635417Y-60511069D02*
X131254464Y-60511069D01*
X131254464Y-60511069D02*
X130921131Y-60892021D01*
X130921131Y-60892021D02*
X131063988Y-60892021D01*
X131063988Y-60892021D02*
X131159226Y-60939640D01*
X131159226Y-60939640D02*
X131206845Y-60987259D01*
X131206845Y-60987259D02*
X131254464Y-61082497D01*
X131254464Y-61082497D02*
X131254464Y-61320592D01*
X131254464Y-61320592D02*
X131206845Y-61415830D01*
X131206845Y-61415830D02*
X131159226Y-61463450D01*
X131159226Y-61463450D02*
X131063988Y-61511069D01*
X131063988Y-61511069D02*
X130778274Y-61511069D01*
X130778274Y-61511069D02*
X130683036Y-61463450D01*
X130683036Y-61463450D02*
X130635417Y-61415830D01*
X131873512Y-60511069D02*
X131968750Y-60511069D01*
X131968750Y-60511069D02*
X132063988Y-60558688D01*
X132063988Y-60558688D02*
X132111607Y-60606307D01*
X132111607Y-60606307D02*
X132159226Y-60701545D01*
X132159226Y-60701545D02*
X132206845Y-60892021D01*
X132206845Y-60892021D02*
X132206845Y-61130116D01*
X132206845Y-61130116D02*
X132159226Y-61320592D01*
X132159226Y-61320592D02*
X132111607Y-61415830D01*
X132111607Y-61415830D02*
X132063988Y-61463450D01*
X132063988Y-61463450D02*
X131968750Y-61511069D01*
X131968750Y-61511069D02*
X131873512Y-61511069D01*
X131873512Y-61511069D02*
X131778274Y-61463450D01*
X131778274Y-61463450D02*
X131730655Y-61415830D01*
X131730655Y-61415830D02*
X131683036Y-61320592D01*
X131683036Y-61320592D02*
X131635417Y-61130116D01*
X131635417Y-61130116D02*
X131635417Y-60892021D01*
X131635417Y-60892021D02*
X131683036Y-60701545D01*
X131683036Y-60701545D02*
X131730655Y-60606307D01*
X131730655Y-60606307D02*
X131778274Y-60558688D01*
X131778274Y-60558688D02*
X131873512Y-60511069D01*
X199104405Y-144807200D02*
X199247262Y-144854819D01*
X199247262Y-144854819D02*
X199485357Y-144854819D01*
X199485357Y-144854819D02*
X199580595Y-144807200D01*
X199580595Y-144807200D02*
X199628214Y-144759580D01*
X199628214Y-144759580D02*
X199675833Y-144664342D01*
X199675833Y-144664342D02*
X199675833Y-144569104D01*
X199675833Y-144569104D02*
X199628214Y-144473866D01*
X199628214Y-144473866D02*
X199580595Y-144426247D01*
X199580595Y-144426247D02*
X199485357Y-144378628D01*
X199485357Y-144378628D02*
X199294881Y-144331009D01*
X199294881Y-144331009D02*
X199199643Y-144283390D01*
X199199643Y-144283390D02*
X199152024Y-144235771D01*
X199152024Y-144235771D02*
X199104405Y-144140533D01*
X199104405Y-144140533D02*
X199104405Y-144045295D01*
X199104405Y-144045295D02*
X199152024Y-143950057D01*
X199152024Y-143950057D02*
X199199643Y-143902438D01*
X199199643Y-143902438D02*
X199294881Y-143854819D01*
X199294881Y-143854819D02*
X199532976Y-143854819D01*
X199532976Y-143854819D02*
X199675833Y-143902438D01*
X200628214Y-144854819D02*
X200056786Y-144854819D01*
X200342500Y-144854819D02*
X200342500Y-143854819D01*
X200342500Y-143854819D02*
X200247262Y-143997676D01*
X200247262Y-143997676D02*
X200152024Y-144092914D01*
X200152024Y-144092914D02*
X200056786Y-144140533D01*
X201485357Y-143854819D02*
X201294881Y-143854819D01*
X201294881Y-143854819D02*
X201199643Y-143902438D01*
X201199643Y-143902438D02*
X201152024Y-143950057D01*
X201152024Y-143950057D02*
X201056786Y-144092914D01*
X201056786Y-144092914D02*
X201009167Y-144283390D01*
X201009167Y-144283390D02*
X201009167Y-144664342D01*
X201009167Y-144664342D02*
X201056786Y-144759580D01*
X201056786Y-144759580D02*
X201104405Y-144807200D01*
X201104405Y-144807200D02*
X201199643Y-144854819D01*
X201199643Y-144854819D02*
X201390119Y-144854819D01*
X201390119Y-144854819D02*
X201485357Y-144807200D01*
X201485357Y-144807200D02*
X201532976Y-144759580D01*
X201532976Y-144759580D02*
X201580595Y-144664342D01*
X201580595Y-144664342D02*
X201580595Y-144426247D01*
X201580595Y-144426247D02*
X201532976Y-144331009D01*
X201532976Y-144331009D02*
X201485357Y-144283390D01*
X201485357Y-144283390D02*
X201390119Y-144235771D01*
X201390119Y-144235771D02*
X201199643Y-144235771D01*
X201199643Y-144235771D02*
X201104405Y-144283390D01*
X201104405Y-144283390D02*
X201056786Y-144331009D01*
X201056786Y-144331009D02*
X201009167Y-144426247D01*
X58293155Y-40032200D02*
X58436012Y-40079819D01*
X58436012Y-40079819D02*
X58674107Y-40079819D01*
X58674107Y-40079819D02*
X58769345Y-40032200D01*
X58769345Y-40032200D02*
X58816964Y-39984580D01*
X58816964Y-39984580D02*
X58864583Y-39889342D01*
X58864583Y-39889342D02*
X58864583Y-39794104D01*
X58864583Y-39794104D02*
X58816964Y-39698866D01*
X58816964Y-39698866D02*
X58769345Y-39651247D01*
X58769345Y-39651247D02*
X58674107Y-39603628D01*
X58674107Y-39603628D02*
X58483631Y-39556009D01*
X58483631Y-39556009D02*
X58388393Y-39508390D01*
X58388393Y-39508390D02*
X58340774Y-39460771D01*
X58340774Y-39460771D02*
X58293155Y-39365533D01*
X58293155Y-39365533D02*
X58293155Y-39270295D01*
X58293155Y-39270295D02*
X58340774Y-39175057D01*
X58340774Y-39175057D02*
X58388393Y-39127438D01*
X58388393Y-39127438D02*
X58483631Y-39079819D01*
X58483631Y-39079819D02*
X58721726Y-39079819D01*
X58721726Y-39079819D02*
X58864583Y-39127438D01*
X59245536Y-39175057D02*
X59293155Y-39127438D01*
X59293155Y-39127438D02*
X59388393Y-39079819D01*
X59388393Y-39079819D02*
X59626488Y-39079819D01*
X59626488Y-39079819D02*
X59721726Y-39127438D01*
X59721726Y-39127438D02*
X59769345Y-39175057D01*
X59769345Y-39175057D02*
X59816964Y-39270295D01*
X59816964Y-39270295D02*
X59816964Y-39365533D01*
X59816964Y-39365533D02*
X59769345Y-39508390D01*
X59769345Y-39508390D02*
X59197917Y-40079819D01*
X59197917Y-40079819D02*
X59816964Y-40079819D01*
X60197917Y-39175057D02*
X60245536Y-39127438D01*
X60245536Y-39127438D02*
X60340774Y-39079819D01*
X60340774Y-39079819D02*
X60578869Y-39079819D01*
X60578869Y-39079819D02*
X60674107Y-39127438D01*
X60674107Y-39127438D02*
X60721726Y-39175057D01*
X60721726Y-39175057D02*
X60769345Y-39270295D01*
X60769345Y-39270295D02*
X60769345Y-39365533D01*
X60769345Y-39365533D02*
X60721726Y-39508390D01*
X60721726Y-39508390D02*
X60150298Y-40079819D01*
X60150298Y-40079819D02*
X60769345Y-40079819D01*
X34480655Y-61463450D02*
X34623512Y-61511069D01*
X34623512Y-61511069D02*
X34861607Y-61511069D01*
X34861607Y-61511069D02*
X34956845Y-61463450D01*
X34956845Y-61463450D02*
X35004464Y-61415830D01*
X35004464Y-61415830D02*
X35052083Y-61320592D01*
X35052083Y-61320592D02*
X35052083Y-61225354D01*
X35052083Y-61225354D02*
X35004464Y-61130116D01*
X35004464Y-61130116D02*
X34956845Y-61082497D01*
X34956845Y-61082497D02*
X34861607Y-61034878D01*
X34861607Y-61034878D02*
X34671131Y-60987259D01*
X34671131Y-60987259D02*
X34575893Y-60939640D01*
X34575893Y-60939640D02*
X34528274Y-60892021D01*
X34528274Y-60892021D02*
X34480655Y-60796783D01*
X34480655Y-60796783D02*
X34480655Y-60701545D01*
X34480655Y-60701545D02*
X34528274Y-60606307D01*
X34528274Y-60606307D02*
X34575893Y-60558688D01*
X34575893Y-60558688D02*
X34671131Y-60511069D01*
X34671131Y-60511069D02*
X34909226Y-60511069D01*
X34909226Y-60511069D02*
X35052083Y-60558688D01*
X35433036Y-60606307D02*
X35480655Y-60558688D01*
X35480655Y-60558688D02*
X35575893Y-60511069D01*
X35575893Y-60511069D02*
X35813988Y-60511069D01*
X35813988Y-60511069D02*
X35909226Y-60558688D01*
X35909226Y-60558688D02*
X35956845Y-60606307D01*
X35956845Y-60606307D02*
X36004464Y-60701545D01*
X36004464Y-60701545D02*
X36004464Y-60796783D01*
X36004464Y-60796783D02*
X35956845Y-60939640D01*
X35956845Y-60939640D02*
X35385417Y-61511069D01*
X35385417Y-61511069D02*
X36004464Y-61511069D01*
X36861607Y-60511069D02*
X36671131Y-60511069D01*
X36671131Y-60511069D02*
X36575893Y-60558688D01*
X36575893Y-60558688D02*
X36528274Y-60606307D01*
X36528274Y-60606307D02*
X36433036Y-60749164D01*
X36433036Y-60749164D02*
X36385417Y-60939640D01*
X36385417Y-60939640D02*
X36385417Y-61320592D01*
X36385417Y-61320592D02*
X36433036Y-61415830D01*
X36433036Y-61415830D02*
X36480655Y-61463450D01*
X36480655Y-61463450D02*
X36575893Y-61511069D01*
X36575893Y-61511069D02*
X36766369Y-61511069D01*
X36766369Y-61511069D02*
X36861607Y-61463450D01*
X36861607Y-61463450D02*
X36909226Y-61415830D01*
X36909226Y-61415830D02*
X36956845Y-61320592D01*
X36956845Y-61320592D02*
X36956845Y-61082497D01*
X36956845Y-61082497D02*
X36909226Y-60987259D01*
X36909226Y-60987259D02*
X36861607Y-60939640D01*
X36861607Y-60939640D02*
X36766369Y-60892021D01*
X36766369Y-60892021D02*
X36575893Y-60892021D01*
X36575893Y-60892021D02*
X36480655Y-60939640D01*
X36480655Y-60939640D02*
X36433036Y-60987259D01*
X36433036Y-60987259D02*
X36385417Y-61082497D01*
X122586845Y-145124700D02*
X122729702Y-145172319D01*
X122729702Y-145172319D02*
X122967797Y-145172319D01*
X122967797Y-145172319D02*
X123063035Y-145124700D01*
X123063035Y-145124700D02*
X123110654Y-145077080D01*
X123110654Y-145077080D02*
X123158273Y-144981842D01*
X123158273Y-144981842D02*
X123158273Y-144886604D01*
X123158273Y-144886604D02*
X123110654Y-144791366D01*
X123110654Y-144791366D02*
X123063035Y-144743747D01*
X123063035Y-144743747D02*
X122967797Y-144696128D01*
X122967797Y-144696128D02*
X122777321Y-144648509D01*
X122777321Y-144648509D02*
X122682083Y-144600890D01*
X122682083Y-144600890D02*
X122634464Y-144553271D01*
X122634464Y-144553271D02*
X122586845Y-144458033D01*
X122586845Y-144458033D02*
X122586845Y-144362795D01*
X122586845Y-144362795D02*
X122634464Y-144267557D01*
X122634464Y-144267557D02*
X122682083Y-144219938D01*
X122682083Y-144219938D02*
X122777321Y-144172319D01*
X122777321Y-144172319D02*
X123015416Y-144172319D01*
X123015416Y-144172319D02*
X123158273Y-144219938D01*
X123729702Y-144600890D02*
X123634464Y-144553271D01*
X123634464Y-144553271D02*
X123586845Y-144505652D01*
X123586845Y-144505652D02*
X123539226Y-144410414D01*
X123539226Y-144410414D02*
X123539226Y-144362795D01*
X123539226Y-144362795D02*
X123586845Y-144267557D01*
X123586845Y-144267557D02*
X123634464Y-144219938D01*
X123634464Y-144219938D02*
X123729702Y-144172319D01*
X123729702Y-144172319D02*
X123920178Y-144172319D01*
X123920178Y-144172319D02*
X124015416Y-144219938D01*
X124015416Y-144219938D02*
X124063035Y-144267557D01*
X124063035Y-144267557D02*
X124110654Y-144362795D01*
X124110654Y-144362795D02*
X124110654Y-144410414D01*
X124110654Y-144410414D02*
X124063035Y-144505652D01*
X124063035Y-144505652D02*
X124015416Y-144553271D01*
X124015416Y-144553271D02*
X123920178Y-144600890D01*
X123920178Y-144600890D02*
X123729702Y-144600890D01*
X123729702Y-144600890D02*
X123634464Y-144648509D01*
X123634464Y-144648509D02*
X123586845Y-144696128D01*
X123586845Y-144696128D02*
X123539226Y-144791366D01*
X123539226Y-144791366D02*
X123539226Y-144981842D01*
X123539226Y-144981842D02*
X123586845Y-145077080D01*
X123586845Y-145077080D02*
X123634464Y-145124700D01*
X123634464Y-145124700D02*
X123729702Y-145172319D01*
X123729702Y-145172319D02*
X123920178Y-145172319D01*
X123920178Y-145172319D02*
X124015416Y-145124700D01*
X124015416Y-145124700D02*
X124063035Y-145077080D01*
X124063035Y-145077080D02*
X124110654Y-144981842D01*
X124110654Y-144981842D02*
X124110654Y-144791366D01*
X124110654Y-144791366D02*
X124063035Y-144696128D01*
X124063035Y-144696128D02*
X124015416Y-144648509D01*
X124015416Y-144648509D02*
X123920178Y-144600890D01*
X161591666Y-83362319D02*
X161591666Y-84076604D01*
X161591666Y-84076604D02*
X161544047Y-84219461D01*
X161544047Y-84219461D02*
X161448809Y-84314700D01*
X161448809Y-84314700D02*
X161305952Y-84362319D01*
X161305952Y-84362319D02*
X161210714Y-84362319D01*
X162020238Y-83457557D02*
X162067857Y-83409938D01*
X162067857Y-83409938D02*
X162163095Y-83362319D01*
X162163095Y-83362319D02*
X162401190Y-83362319D01*
X162401190Y-83362319D02*
X162496428Y-83409938D01*
X162496428Y-83409938D02*
X162544047Y-83457557D01*
X162544047Y-83457557D02*
X162591666Y-83552795D01*
X162591666Y-83552795D02*
X162591666Y-83648033D01*
X162591666Y-83648033D02*
X162544047Y-83790890D01*
X162544047Y-83790890D02*
X161972619Y-84362319D01*
X161972619Y-84362319D02*
X162591666Y-84362319D01*
X237204405Y-144807200D02*
X237347262Y-144854819D01*
X237347262Y-144854819D02*
X237585357Y-144854819D01*
X237585357Y-144854819D02*
X237680595Y-144807200D01*
X237680595Y-144807200D02*
X237728214Y-144759580D01*
X237728214Y-144759580D02*
X237775833Y-144664342D01*
X237775833Y-144664342D02*
X237775833Y-144569104D01*
X237775833Y-144569104D02*
X237728214Y-144473866D01*
X237728214Y-144473866D02*
X237680595Y-144426247D01*
X237680595Y-144426247D02*
X237585357Y-144378628D01*
X237585357Y-144378628D02*
X237394881Y-144331009D01*
X237394881Y-144331009D02*
X237299643Y-144283390D01*
X237299643Y-144283390D02*
X237252024Y-144235771D01*
X237252024Y-144235771D02*
X237204405Y-144140533D01*
X237204405Y-144140533D02*
X237204405Y-144045295D01*
X237204405Y-144045295D02*
X237252024Y-143950057D01*
X237252024Y-143950057D02*
X237299643Y-143902438D01*
X237299643Y-143902438D02*
X237394881Y-143854819D01*
X237394881Y-143854819D02*
X237632976Y-143854819D01*
X237632976Y-143854819D02*
X237775833Y-143902438D01*
X238728214Y-144854819D02*
X238156786Y-144854819D01*
X238442500Y-144854819D02*
X238442500Y-143854819D01*
X238442500Y-143854819D02*
X238347262Y-143997676D01*
X238347262Y-143997676D02*
X238252024Y-144092914D01*
X238252024Y-144092914D02*
X238156786Y-144140533D01*
X239299643Y-144283390D02*
X239204405Y-144235771D01*
X239204405Y-144235771D02*
X239156786Y-144188152D01*
X239156786Y-144188152D02*
X239109167Y-144092914D01*
X239109167Y-144092914D02*
X239109167Y-144045295D01*
X239109167Y-144045295D02*
X239156786Y-143950057D01*
X239156786Y-143950057D02*
X239204405Y-143902438D01*
X239204405Y-143902438D02*
X239299643Y-143854819D01*
X239299643Y-143854819D02*
X239490119Y-143854819D01*
X239490119Y-143854819D02*
X239585357Y-143902438D01*
X239585357Y-143902438D02*
X239632976Y-143950057D01*
X239632976Y-143950057D02*
X239680595Y-144045295D01*
X239680595Y-144045295D02*
X239680595Y-144092914D01*
X239680595Y-144092914D02*
X239632976Y-144188152D01*
X239632976Y-144188152D02*
X239585357Y-144235771D01*
X239585357Y-144235771D02*
X239490119Y-144283390D01*
X239490119Y-144283390D02*
X239299643Y-144283390D01*
X239299643Y-144283390D02*
X239204405Y-144331009D01*
X239204405Y-144331009D02*
X239156786Y-144378628D01*
X239156786Y-144378628D02*
X239109167Y-144473866D01*
X239109167Y-144473866D02*
X239109167Y-144664342D01*
X239109167Y-144664342D02*
X239156786Y-144759580D01*
X239156786Y-144759580D02*
X239204405Y-144807200D01*
X239204405Y-144807200D02*
X239299643Y-144854819D01*
X239299643Y-144854819D02*
X239490119Y-144854819D01*
X239490119Y-144854819D02*
X239585357Y-144807200D01*
X239585357Y-144807200D02*
X239632976Y-144759580D01*
X239632976Y-144759580D02*
X239680595Y-144664342D01*
X239680595Y-144664342D02*
X239680595Y-144473866D01*
X239680595Y-144473866D02*
X239632976Y-144378628D01*
X239632976Y-144378628D02*
X239585357Y-144331009D01*
X239585357Y-144331009D02*
X239490119Y-144283390D01*
X217836905Y-144807200D02*
X217979762Y-144854819D01*
X217979762Y-144854819D02*
X218217857Y-144854819D01*
X218217857Y-144854819D02*
X218313095Y-144807200D01*
X218313095Y-144807200D02*
X218360714Y-144759580D01*
X218360714Y-144759580D02*
X218408333Y-144664342D01*
X218408333Y-144664342D02*
X218408333Y-144569104D01*
X218408333Y-144569104D02*
X218360714Y-144473866D01*
X218360714Y-144473866D02*
X218313095Y-144426247D01*
X218313095Y-144426247D02*
X218217857Y-144378628D01*
X218217857Y-144378628D02*
X218027381Y-144331009D01*
X218027381Y-144331009D02*
X217932143Y-144283390D01*
X217932143Y-144283390D02*
X217884524Y-144235771D01*
X217884524Y-144235771D02*
X217836905Y-144140533D01*
X217836905Y-144140533D02*
X217836905Y-144045295D01*
X217836905Y-144045295D02*
X217884524Y-143950057D01*
X217884524Y-143950057D02*
X217932143Y-143902438D01*
X217932143Y-143902438D02*
X218027381Y-143854819D01*
X218027381Y-143854819D02*
X218265476Y-143854819D01*
X218265476Y-143854819D02*
X218408333Y-143902438D01*
X219360714Y-144854819D02*
X218789286Y-144854819D01*
X219075000Y-144854819D02*
X219075000Y-143854819D01*
X219075000Y-143854819D02*
X218979762Y-143997676D01*
X218979762Y-143997676D02*
X218884524Y-144092914D01*
X218884524Y-144092914D02*
X218789286Y-144140533D01*
X219694048Y-143854819D02*
X220360714Y-143854819D01*
X220360714Y-143854819D02*
X219932143Y-144854819D01*
X160528155Y-145124700D02*
X160671012Y-145172319D01*
X160671012Y-145172319D02*
X160909107Y-145172319D01*
X160909107Y-145172319D02*
X161004345Y-145124700D01*
X161004345Y-145124700D02*
X161051964Y-145077080D01*
X161051964Y-145077080D02*
X161099583Y-144981842D01*
X161099583Y-144981842D02*
X161099583Y-144886604D01*
X161099583Y-144886604D02*
X161051964Y-144791366D01*
X161051964Y-144791366D02*
X161004345Y-144743747D01*
X161004345Y-144743747D02*
X160909107Y-144696128D01*
X160909107Y-144696128D02*
X160718631Y-144648509D01*
X160718631Y-144648509D02*
X160623393Y-144600890D01*
X160623393Y-144600890D02*
X160575774Y-144553271D01*
X160575774Y-144553271D02*
X160528155Y-144458033D01*
X160528155Y-144458033D02*
X160528155Y-144362795D01*
X160528155Y-144362795D02*
X160575774Y-144267557D01*
X160575774Y-144267557D02*
X160623393Y-144219938D01*
X160623393Y-144219938D02*
X160718631Y-144172319D01*
X160718631Y-144172319D02*
X160956726Y-144172319D01*
X160956726Y-144172319D02*
X161099583Y-144219938D01*
X162051964Y-145172319D02*
X161480536Y-145172319D01*
X161766250Y-145172319D02*
X161766250Y-144172319D01*
X161766250Y-144172319D02*
X161671012Y-144315176D01*
X161671012Y-144315176D02*
X161575774Y-144410414D01*
X161575774Y-144410414D02*
X161480536Y-144458033D01*
X162432917Y-144267557D02*
X162480536Y-144219938D01*
X162480536Y-144219938D02*
X162575774Y-144172319D01*
X162575774Y-144172319D02*
X162813869Y-144172319D01*
X162813869Y-144172319D02*
X162909107Y-144219938D01*
X162909107Y-144219938D02*
X162956726Y-144267557D01*
X162956726Y-144267557D02*
X163004345Y-144362795D01*
X163004345Y-144362795D02*
X163004345Y-144458033D01*
X163004345Y-144458033D02*
X162956726Y-144600890D01*
X162956726Y-144600890D02*
X162385298Y-145172319D01*
X162385298Y-145172319D02*
X163004345Y-145172319D01*
X103536905Y-40032200D02*
X103679762Y-40079819D01*
X103679762Y-40079819D02*
X103917857Y-40079819D01*
X103917857Y-40079819D02*
X104013095Y-40032200D01*
X104013095Y-40032200D02*
X104060714Y-39984580D01*
X104060714Y-39984580D02*
X104108333Y-39889342D01*
X104108333Y-39889342D02*
X104108333Y-39794104D01*
X104108333Y-39794104D02*
X104060714Y-39698866D01*
X104060714Y-39698866D02*
X104013095Y-39651247D01*
X104013095Y-39651247D02*
X103917857Y-39603628D01*
X103917857Y-39603628D02*
X103727381Y-39556009D01*
X103727381Y-39556009D02*
X103632143Y-39508390D01*
X103632143Y-39508390D02*
X103584524Y-39460771D01*
X103584524Y-39460771D02*
X103536905Y-39365533D01*
X103536905Y-39365533D02*
X103536905Y-39270295D01*
X103536905Y-39270295D02*
X103584524Y-39175057D01*
X103584524Y-39175057D02*
X103632143Y-39127438D01*
X103632143Y-39127438D02*
X103727381Y-39079819D01*
X103727381Y-39079819D02*
X103965476Y-39079819D01*
X103965476Y-39079819D02*
X104108333Y-39127438D01*
X104489286Y-39175057D02*
X104536905Y-39127438D01*
X104536905Y-39127438D02*
X104632143Y-39079819D01*
X104632143Y-39079819D02*
X104870238Y-39079819D01*
X104870238Y-39079819D02*
X104965476Y-39127438D01*
X104965476Y-39127438D02*
X105013095Y-39175057D01*
X105013095Y-39175057D02*
X105060714Y-39270295D01*
X105060714Y-39270295D02*
X105060714Y-39365533D01*
X105060714Y-39365533D02*
X105013095Y-39508390D01*
X105013095Y-39508390D02*
X104441667Y-40079819D01*
X104441667Y-40079819D02*
X105060714Y-40079819D01*
X105917857Y-39413152D02*
X105917857Y-40079819D01*
X105679762Y-39032200D02*
X105441667Y-39746485D01*
X105441667Y-39746485D02*
X106060714Y-39746485D01*
X263556845Y-153467319D02*
X263556845Y-152467319D01*
X263556845Y-152943509D02*
X264128273Y-152943509D01*
X264128273Y-153467319D02*
X264128273Y-152467319D01*
X265033035Y-152800652D02*
X265033035Y-153467319D01*
X264794940Y-152419700D02*
X264556845Y-153133985D01*
X264556845Y-153133985D02*
X265175892Y-153133985D01*
X55911845Y-126074700D02*
X56054702Y-126122319D01*
X56054702Y-126122319D02*
X56292797Y-126122319D01*
X56292797Y-126122319D02*
X56388035Y-126074700D01*
X56388035Y-126074700D02*
X56435654Y-126027080D01*
X56435654Y-126027080D02*
X56483273Y-125931842D01*
X56483273Y-125931842D02*
X56483273Y-125836604D01*
X56483273Y-125836604D02*
X56435654Y-125741366D01*
X56435654Y-125741366D02*
X56388035Y-125693747D01*
X56388035Y-125693747D02*
X56292797Y-125646128D01*
X56292797Y-125646128D02*
X56102321Y-125598509D01*
X56102321Y-125598509D02*
X56007083Y-125550890D01*
X56007083Y-125550890D02*
X55959464Y-125503271D01*
X55959464Y-125503271D02*
X55911845Y-125408033D01*
X55911845Y-125408033D02*
X55911845Y-125312795D01*
X55911845Y-125312795D02*
X55959464Y-125217557D01*
X55959464Y-125217557D02*
X56007083Y-125169938D01*
X56007083Y-125169938D02*
X56102321Y-125122319D01*
X56102321Y-125122319D02*
X56340416Y-125122319D01*
X56340416Y-125122319D02*
X56483273Y-125169938D01*
X57388035Y-125122319D02*
X56911845Y-125122319D01*
X56911845Y-125122319D02*
X56864226Y-125598509D01*
X56864226Y-125598509D02*
X56911845Y-125550890D01*
X56911845Y-125550890D02*
X57007083Y-125503271D01*
X57007083Y-125503271D02*
X57245178Y-125503271D01*
X57245178Y-125503271D02*
X57340416Y-125550890D01*
X57340416Y-125550890D02*
X57388035Y-125598509D01*
X57388035Y-125598509D02*
X57435654Y-125693747D01*
X57435654Y-125693747D02*
X57435654Y-125931842D01*
X57435654Y-125931842D02*
X57388035Y-126027080D01*
X57388035Y-126027080D02*
X57340416Y-126074700D01*
X57340416Y-126074700D02*
X57245178Y-126122319D01*
X57245178Y-126122319D02*
X57007083Y-126122319D01*
X57007083Y-126122319D02*
X56911845Y-126074700D01*
X56911845Y-126074700D02*
X56864226Y-126027080D01*
X129413155Y-40032200D02*
X129556012Y-40079819D01*
X129556012Y-40079819D02*
X129794107Y-40079819D01*
X129794107Y-40079819D02*
X129889345Y-40032200D01*
X129889345Y-40032200D02*
X129936964Y-39984580D01*
X129936964Y-39984580D02*
X129984583Y-39889342D01*
X129984583Y-39889342D02*
X129984583Y-39794104D01*
X129984583Y-39794104D02*
X129936964Y-39698866D01*
X129936964Y-39698866D02*
X129889345Y-39651247D01*
X129889345Y-39651247D02*
X129794107Y-39603628D01*
X129794107Y-39603628D02*
X129603631Y-39556009D01*
X129603631Y-39556009D02*
X129508393Y-39508390D01*
X129508393Y-39508390D02*
X129460774Y-39460771D01*
X129460774Y-39460771D02*
X129413155Y-39365533D01*
X129413155Y-39365533D02*
X129413155Y-39270295D01*
X129413155Y-39270295D02*
X129460774Y-39175057D01*
X129460774Y-39175057D02*
X129508393Y-39127438D01*
X129508393Y-39127438D02*
X129603631Y-39079819D01*
X129603631Y-39079819D02*
X129841726Y-39079819D01*
X129841726Y-39079819D02*
X129984583Y-39127438D01*
X130365536Y-39175057D02*
X130413155Y-39127438D01*
X130413155Y-39127438D02*
X130508393Y-39079819D01*
X130508393Y-39079819D02*
X130746488Y-39079819D01*
X130746488Y-39079819D02*
X130841726Y-39127438D01*
X130841726Y-39127438D02*
X130889345Y-39175057D01*
X130889345Y-39175057D02*
X130936964Y-39270295D01*
X130936964Y-39270295D02*
X130936964Y-39365533D01*
X130936964Y-39365533D02*
X130889345Y-39508390D01*
X130889345Y-39508390D02*
X130317917Y-40079819D01*
X130317917Y-40079819D02*
X130936964Y-40079819D01*
X131841726Y-39079819D02*
X131365536Y-39079819D01*
X131365536Y-39079819D02*
X131317917Y-39556009D01*
X131317917Y-39556009D02*
X131365536Y-39508390D01*
X131365536Y-39508390D02*
X131460774Y-39460771D01*
X131460774Y-39460771D02*
X131698869Y-39460771D01*
X131698869Y-39460771D02*
X131794107Y-39508390D01*
X131794107Y-39508390D02*
X131841726Y-39556009D01*
X131841726Y-39556009D02*
X131889345Y-39651247D01*
X131889345Y-39651247D02*
X131889345Y-39889342D01*
X131889345Y-39889342D02*
X131841726Y-39984580D01*
X131841726Y-39984580D02*
X131794107Y-40032200D01*
X131794107Y-40032200D02*
X131698869Y-40079819D01*
X131698869Y-40079819D02*
X131460774Y-40079819D01*
X131460774Y-40079819D02*
X131365536Y-40032200D01*
X131365536Y-40032200D02*
X131317917Y-39984580D01*
X36861845Y-126074700D02*
X37004702Y-126122319D01*
X37004702Y-126122319D02*
X37242797Y-126122319D01*
X37242797Y-126122319D02*
X37338035Y-126074700D01*
X37338035Y-126074700D02*
X37385654Y-126027080D01*
X37385654Y-126027080D02*
X37433273Y-125931842D01*
X37433273Y-125931842D02*
X37433273Y-125836604D01*
X37433273Y-125836604D02*
X37385654Y-125741366D01*
X37385654Y-125741366D02*
X37338035Y-125693747D01*
X37338035Y-125693747D02*
X37242797Y-125646128D01*
X37242797Y-125646128D02*
X37052321Y-125598509D01*
X37052321Y-125598509D02*
X36957083Y-125550890D01*
X36957083Y-125550890D02*
X36909464Y-125503271D01*
X36909464Y-125503271D02*
X36861845Y-125408033D01*
X36861845Y-125408033D02*
X36861845Y-125312795D01*
X36861845Y-125312795D02*
X36909464Y-125217557D01*
X36909464Y-125217557D02*
X36957083Y-125169938D01*
X36957083Y-125169938D02*
X37052321Y-125122319D01*
X37052321Y-125122319D02*
X37290416Y-125122319D01*
X37290416Y-125122319D02*
X37433273Y-125169938D01*
X38290416Y-125455652D02*
X38290416Y-126122319D01*
X38052321Y-125074700D02*
X37814226Y-125788985D01*
X37814226Y-125788985D02*
X38433273Y-125788985D01*
X103854345Y-145124700D02*
X103997202Y-145172319D01*
X103997202Y-145172319D02*
X104235297Y-145172319D01*
X104235297Y-145172319D02*
X104330535Y-145124700D01*
X104330535Y-145124700D02*
X104378154Y-145077080D01*
X104378154Y-145077080D02*
X104425773Y-144981842D01*
X104425773Y-144981842D02*
X104425773Y-144886604D01*
X104425773Y-144886604D02*
X104378154Y-144791366D01*
X104378154Y-144791366D02*
X104330535Y-144743747D01*
X104330535Y-144743747D02*
X104235297Y-144696128D01*
X104235297Y-144696128D02*
X104044821Y-144648509D01*
X104044821Y-144648509D02*
X103949583Y-144600890D01*
X103949583Y-144600890D02*
X103901964Y-144553271D01*
X103901964Y-144553271D02*
X103854345Y-144458033D01*
X103854345Y-144458033D02*
X103854345Y-144362795D01*
X103854345Y-144362795D02*
X103901964Y-144267557D01*
X103901964Y-144267557D02*
X103949583Y-144219938D01*
X103949583Y-144219938D02*
X104044821Y-144172319D01*
X104044821Y-144172319D02*
X104282916Y-144172319D01*
X104282916Y-144172319D02*
X104425773Y-144219938D01*
X104759107Y-144172319D02*
X105425773Y-144172319D01*
X105425773Y-144172319D02*
X104997202Y-145172319D01*
X265938095Y-39167319D02*
X265938095Y-38167319D01*
X265938095Y-38643509D02*
X266509523Y-38643509D01*
X266509523Y-39167319D02*
X266509523Y-38167319D01*
X266938095Y-38262557D02*
X266985714Y-38214938D01*
X266985714Y-38214938D02*
X267080952Y-38167319D01*
X267080952Y-38167319D02*
X267319047Y-38167319D01*
X267319047Y-38167319D02*
X267414285Y-38214938D01*
X267414285Y-38214938D02*
X267461904Y-38262557D01*
X267461904Y-38262557D02*
X267509523Y-38357795D01*
X267509523Y-38357795D02*
X267509523Y-38453033D01*
X267509523Y-38453033D02*
X267461904Y-38595890D01*
X267461904Y-38595890D02*
X266890476Y-39167319D01*
X266890476Y-39167319D02*
X267509523Y-39167319D01*
X82423155Y-40032200D02*
X82566012Y-40079819D01*
X82566012Y-40079819D02*
X82804107Y-40079819D01*
X82804107Y-40079819D02*
X82899345Y-40032200D01*
X82899345Y-40032200D02*
X82946964Y-39984580D01*
X82946964Y-39984580D02*
X82994583Y-39889342D01*
X82994583Y-39889342D02*
X82994583Y-39794104D01*
X82994583Y-39794104D02*
X82946964Y-39698866D01*
X82946964Y-39698866D02*
X82899345Y-39651247D01*
X82899345Y-39651247D02*
X82804107Y-39603628D01*
X82804107Y-39603628D02*
X82613631Y-39556009D01*
X82613631Y-39556009D02*
X82518393Y-39508390D01*
X82518393Y-39508390D02*
X82470774Y-39460771D01*
X82470774Y-39460771D02*
X82423155Y-39365533D01*
X82423155Y-39365533D02*
X82423155Y-39270295D01*
X82423155Y-39270295D02*
X82470774Y-39175057D01*
X82470774Y-39175057D02*
X82518393Y-39127438D01*
X82518393Y-39127438D02*
X82613631Y-39079819D01*
X82613631Y-39079819D02*
X82851726Y-39079819D01*
X82851726Y-39079819D02*
X82994583Y-39127438D01*
X83375536Y-39175057D02*
X83423155Y-39127438D01*
X83423155Y-39127438D02*
X83518393Y-39079819D01*
X83518393Y-39079819D02*
X83756488Y-39079819D01*
X83756488Y-39079819D02*
X83851726Y-39127438D01*
X83851726Y-39127438D02*
X83899345Y-39175057D01*
X83899345Y-39175057D02*
X83946964Y-39270295D01*
X83946964Y-39270295D02*
X83946964Y-39365533D01*
X83946964Y-39365533D02*
X83899345Y-39508390D01*
X83899345Y-39508390D02*
X83327917Y-40079819D01*
X83327917Y-40079819D02*
X83946964Y-40079819D01*
X84280298Y-39079819D02*
X84899345Y-39079819D01*
X84899345Y-39079819D02*
X84566012Y-39460771D01*
X84566012Y-39460771D02*
X84708869Y-39460771D01*
X84708869Y-39460771D02*
X84804107Y-39508390D01*
X84804107Y-39508390D02*
X84851726Y-39556009D01*
X84851726Y-39556009D02*
X84899345Y-39651247D01*
X84899345Y-39651247D02*
X84899345Y-39889342D01*
X84899345Y-39889342D02*
X84851726Y-39984580D01*
X84851726Y-39984580D02*
X84804107Y-40032200D01*
X84804107Y-40032200D02*
X84708869Y-40079819D01*
X84708869Y-40079819D02*
X84423155Y-40079819D01*
X84423155Y-40079819D02*
X84327917Y-40032200D01*
X84327917Y-40032200D02*
X84280298Y-39984580D01*
X112585655Y-126074700D02*
X112728512Y-126122319D01*
X112728512Y-126122319D02*
X112966607Y-126122319D01*
X112966607Y-126122319D02*
X113061845Y-126074700D01*
X113061845Y-126074700D02*
X113109464Y-126027080D01*
X113109464Y-126027080D02*
X113157083Y-125931842D01*
X113157083Y-125931842D02*
X113157083Y-125836604D01*
X113157083Y-125836604D02*
X113109464Y-125741366D01*
X113109464Y-125741366D02*
X113061845Y-125693747D01*
X113061845Y-125693747D02*
X112966607Y-125646128D01*
X112966607Y-125646128D02*
X112776131Y-125598509D01*
X112776131Y-125598509D02*
X112680893Y-125550890D01*
X112680893Y-125550890D02*
X112633274Y-125503271D01*
X112633274Y-125503271D02*
X112585655Y-125408033D01*
X112585655Y-125408033D02*
X112585655Y-125312795D01*
X112585655Y-125312795D02*
X112633274Y-125217557D01*
X112633274Y-125217557D02*
X112680893Y-125169938D01*
X112680893Y-125169938D02*
X112776131Y-125122319D01*
X112776131Y-125122319D02*
X113014226Y-125122319D01*
X113014226Y-125122319D02*
X113157083Y-125169938D01*
X114109464Y-126122319D02*
X113538036Y-126122319D01*
X113823750Y-126122319D02*
X113823750Y-125122319D01*
X113823750Y-125122319D02*
X113728512Y-125265176D01*
X113728512Y-125265176D02*
X113633274Y-125360414D01*
X113633274Y-125360414D02*
X113538036Y-125408033D01*
X114728512Y-125122319D02*
X114823750Y-125122319D01*
X114823750Y-125122319D02*
X114918988Y-125169938D01*
X114918988Y-125169938D02*
X114966607Y-125217557D01*
X114966607Y-125217557D02*
X115014226Y-125312795D01*
X115014226Y-125312795D02*
X115061845Y-125503271D01*
X115061845Y-125503271D02*
X115061845Y-125741366D01*
X115061845Y-125741366D02*
X115014226Y-125931842D01*
X115014226Y-125931842D02*
X114966607Y-126027080D01*
X114966607Y-126027080D02*
X114918988Y-126074700D01*
X114918988Y-126074700D02*
X114823750Y-126122319D01*
X114823750Y-126122319D02*
X114728512Y-126122319D01*
X114728512Y-126122319D02*
X114633274Y-126074700D01*
X114633274Y-126074700D02*
X114585655Y-126027080D01*
X114585655Y-126027080D02*
X114538036Y-125931842D01*
X114538036Y-125931842D02*
X114490417Y-125741366D01*
X114490417Y-125741366D02*
X114490417Y-125503271D01*
X114490417Y-125503271D02*
X114538036Y-125312795D01*
X114538036Y-125312795D02*
X114585655Y-125217557D01*
X114585655Y-125217557D02*
X114633274Y-125169938D01*
X114633274Y-125169938D02*
X114728512Y-125122319D01*
X151003155Y-126074700D02*
X151146012Y-126122319D01*
X151146012Y-126122319D02*
X151384107Y-126122319D01*
X151384107Y-126122319D02*
X151479345Y-126074700D01*
X151479345Y-126074700D02*
X151526964Y-126027080D01*
X151526964Y-126027080D02*
X151574583Y-125931842D01*
X151574583Y-125931842D02*
X151574583Y-125836604D01*
X151574583Y-125836604D02*
X151526964Y-125741366D01*
X151526964Y-125741366D02*
X151479345Y-125693747D01*
X151479345Y-125693747D02*
X151384107Y-125646128D01*
X151384107Y-125646128D02*
X151193631Y-125598509D01*
X151193631Y-125598509D02*
X151098393Y-125550890D01*
X151098393Y-125550890D02*
X151050774Y-125503271D01*
X151050774Y-125503271D02*
X151003155Y-125408033D01*
X151003155Y-125408033D02*
X151003155Y-125312795D01*
X151003155Y-125312795D02*
X151050774Y-125217557D01*
X151050774Y-125217557D02*
X151098393Y-125169938D01*
X151098393Y-125169938D02*
X151193631Y-125122319D01*
X151193631Y-125122319D02*
X151431726Y-125122319D01*
X151431726Y-125122319D02*
X151574583Y-125169938D01*
X152526964Y-126122319D02*
X151955536Y-126122319D01*
X152241250Y-126122319D02*
X152241250Y-125122319D01*
X152241250Y-125122319D02*
X152146012Y-125265176D01*
X152146012Y-125265176D02*
X152050774Y-125360414D01*
X152050774Y-125360414D02*
X151955536Y-125408033D01*
X153384107Y-125455652D02*
X153384107Y-126122319D01*
X153146012Y-125074700D02*
X152907917Y-125788985D01*
X152907917Y-125788985D02*
X153526964Y-125788985D01*
X94011845Y-126074700D02*
X94154702Y-126122319D01*
X94154702Y-126122319D02*
X94392797Y-126122319D01*
X94392797Y-126122319D02*
X94488035Y-126074700D01*
X94488035Y-126074700D02*
X94535654Y-126027080D01*
X94535654Y-126027080D02*
X94583273Y-125931842D01*
X94583273Y-125931842D02*
X94583273Y-125836604D01*
X94583273Y-125836604D02*
X94535654Y-125741366D01*
X94535654Y-125741366D02*
X94488035Y-125693747D01*
X94488035Y-125693747D02*
X94392797Y-125646128D01*
X94392797Y-125646128D02*
X94202321Y-125598509D01*
X94202321Y-125598509D02*
X94107083Y-125550890D01*
X94107083Y-125550890D02*
X94059464Y-125503271D01*
X94059464Y-125503271D02*
X94011845Y-125408033D01*
X94011845Y-125408033D02*
X94011845Y-125312795D01*
X94011845Y-125312795D02*
X94059464Y-125217557D01*
X94059464Y-125217557D02*
X94107083Y-125169938D01*
X94107083Y-125169938D02*
X94202321Y-125122319D01*
X94202321Y-125122319D02*
X94440416Y-125122319D01*
X94440416Y-125122319D02*
X94583273Y-125169938D01*
X95059464Y-126122319D02*
X95249940Y-126122319D01*
X95249940Y-126122319D02*
X95345178Y-126074700D01*
X95345178Y-126074700D02*
X95392797Y-126027080D01*
X95392797Y-126027080D02*
X95488035Y-125884223D01*
X95488035Y-125884223D02*
X95535654Y-125693747D01*
X95535654Y-125693747D02*
X95535654Y-125312795D01*
X95535654Y-125312795D02*
X95488035Y-125217557D01*
X95488035Y-125217557D02*
X95440416Y-125169938D01*
X95440416Y-125169938D02*
X95345178Y-125122319D01*
X95345178Y-125122319D02*
X95154702Y-125122319D01*
X95154702Y-125122319D02*
X95059464Y-125169938D01*
X95059464Y-125169938D02*
X95011845Y-125217557D01*
X95011845Y-125217557D02*
X94964226Y-125312795D01*
X94964226Y-125312795D02*
X94964226Y-125550890D01*
X94964226Y-125550890D02*
X95011845Y-125646128D01*
X95011845Y-125646128D02*
X95059464Y-125693747D01*
X95059464Y-125693747D02*
X95154702Y-125741366D01*
X95154702Y-125741366D02*
X95345178Y-125741366D01*
X95345178Y-125741366D02*
X95440416Y-125693747D01*
X95440416Y-125693747D02*
X95488035Y-125646128D01*
X95488035Y-125646128D02*
X95535654Y-125550890D01*
X65436845Y-145124700D02*
X65579702Y-145172319D01*
X65579702Y-145172319D02*
X65817797Y-145172319D01*
X65817797Y-145172319D02*
X65913035Y-145124700D01*
X65913035Y-145124700D02*
X65960654Y-145077080D01*
X65960654Y-145077080D02*
X66008273Y-144981842D01*
X66008273Y-144981842D02*
X66008273Y-144886604D01*
X66008273Y-144886604D02*
X65960654Y-144791366D01*
X65960654Y-144791366D02*
X65913035Y-144743747D01*
X65913035Y-144743747D02*
X65817797Y-144696128D01*
X65817797Y-144696128D02*
X65627321Y-144648509D01*
X65627321Y-144648509D02*
X65532083Y-144600890D01*
X65532083Y-144600890D02*
X65484464Y-144553271D01*
X65484464Y-144553271D02*
X65436845Y-144458033D01*
X65436845Y-144458033D02*
X65436845Y-144362795D01*
X65436845Y-144362795D02*
X65484464Y-144267557D01*
X65484464Y-144267557D02*
X65532083Y-144219938D01*
X65532083Y-144219938D02*
X65627321Y-144172319D01*
X65627321Y-144172319D02*
X65865416Y-144172319D01*
X65865416Y-144172319D02*
X66008273Y-144219938D01*
X66341607Y-144172319D02*
X66960654Y-144172319D01*
X66960654Y-144172319D02*
X66627321Y-144553271D01*
X66627321Y-144553271D02*
X66770178Y-144553271D01*
X66770178Y-144553271D02*
X66865416Y-144600890D01*
X66865416Y-144600890D02*
X66913035Y-144648509D01*
X66913035Y-144648509D02*
X66960654Y-144743747D01*
X66960654Y-144743747D02*
X66960654Y-144981842D01*
X66960654Y-144981842D02*
X66913035Y-145077080D01*
X66913035Y-145077080D02*
X66865416Y-145124700D01*
X66865416Y-145124700D02*
X66770178Y-145172319D01*
X66770178Y-145172319D02*
X66484464Y-145172319D01*
X66484464Y-145172319D02*
X66389226Y-145124700D01*
X66389226Y-145124700D02*
X66341607Y-145077080D01*
X46386845Y-145124700D02*
X46529702Y-145172319D01*
X46529702Y-145172319D02*
X46767797Y-145172319D01*
X46767797Y-145172319D02*
X46863035Y-145124700D01*
X46863035Y-145124700D02*
X46910654Y-145077080D01*
X46910654Y-145077080D02*
X46958273Y-144981842D01*
X46958273Y-144981842D02*
X46958273Y-144886604D01*
X46958273Y-144886604D02*
X46910654Y-144791366D01*
X46910654Y-144791366D02*
X46863035Y-144743747D01*
X46863035Y-144743747D02*
X46767797Y-144696128D01*
X46767797Y-144696128D02*
X46577321Y-144648509D01*
X46577321Y-144648509D02*
X46482083Y-144600890D01*
X46482083Y-144600890D02*
X46434464Y-144553271D01*
X46434464Y-144553271D02*
X46386845Y-144458033D01*
X46386845Y-144458033D02*
X46386845Y-144362795D01*
X46386845Y-144362795D02*
X46434464Y-144267557D01*
X46434464Y-144267557D02*
X46482083Y-144219938D01*
X46482083Y-144219938D02*
X46577321Y-144172319D01*
X46577321Y-144172319D02*
X46815416Y-144172319D01*
X46815416Y-144172319D02*
X46958273Y-144219938D01*
X47339226Y-144267557D02*
X47386845Y-144219938D01*
X47386845Y-144219938D02*
X47482083Y-144172319D01*
X47482083Y-144172319D02*
X47720178Y-144172319D01*
X47720178Y-144172319D02*
X47815416Y-144219938D01*
X47815416Y-144219938D02*
X47863035Y-144267557D01*
X47863035Y-144267557D02*
X47910654Y-144362795D01*
X47910654Y-144362795D02*
X47910654Y-144458033D01*
X47910654Y-144458033D02*
X47863035Y-144600890D01*
X47863035Y-144600890D02*
X47291607Y-145172319D01*
X47291607Y-145172319D02*
X47910654Y-145172319D01*
X235874160Y-89227854D02*
X236350350Y-89227854D01*
X235778922Y-89513569D02*
X236112255Y-88513569D01*
X236112255Y-88513569D02*
X236445588Y-89513569D01*
X237302731Y-89513569D02*
X236731303Y-89513569D01*
X237017017Y-89513569D02*
X237017017Y-88513569D01*
X237017017Y-88513569D02*
X236921779Y-88656426D01*
X236921779Y-88656426D02*
X236826541Y-88751664D01*
X236826541Y-88751664D02*
X236731303Y-88799283D01*
X82423155Y-61463450D02*
X82566012Y-61511069D01*
X82566012Y-61511069D02*
X82804107Y-61511069D01*
X82804107Y-61511069D02*
X82899345Y-61463450D01*
X82899345Y-61463450D02*
X82946964Y-61415830D01*
X82946964Y-61415830D02*
X82994583Y-61320592D01*
X82994583Y-61320592D02*
X82994583Y-61225354D01*
X82994583Y-61225354D02*
X82946964Y-61130116D01*
X82946964Y-61130116D02*
X82899345Y-61082497D01*
X82899345Y-61082497D02*
X82804107Y-61034878D01*
X82804107Y-61034878D02*
X82613631Y-60987259D01*
X82613631Y-60987259D02*
X82518393Y-60939640D01*
X82518393Y-60939640D02*
X82470774Y-60892021D01*
X82470774Y-60892021D02*
X82423155Y-60796783D01*
X82423155Y-60796783D02*
X82423155Y-60701545D01*
X82423155Y-60701545D02*
X82470774Y-60606307D01*
X82470774Y-60606307D02*
X82518393Y-60558688D01*
X82518393Y-60558688D02*
X82613631Y-60511069D01*
X82613631Y-60511069D02*
X82851726Y-60511069D01*
X82851726Y-60511069D02*
X82994583Y-60558688D01*
X83375536Y-60606307D02*
X83423155Y-60558688D01*
X83423155Y-60558688D02*
X83518393Y-60511069D01*
X83518393Y-60511069D02*
X83756488Y-60511069D01*
X83756488Y-60511069D02*
X83851726Y-60558688D01*
X83851726Y-60558688D02*
X83899345Y-60606307D01*
X83899345Y-60606307D02*
X83946964Y-60701545D01*
X83946964Y-60701545D02*
X83946964Y-60796783D01*
X83946964Y-60796783D02*
X83899345Y-60939640D01*
X83899345Y-60939640D02*
X83327917Y-61511069D01*
X83327917Y-61511069D02*
X83946964Y-61511069D01*
X84518393Y-60939640D02*
X84423155Y-60892021D01*
X84423155Y-60892021D02*
X84375536Y-60844402D01*
X84375536Y-60844402D02*
X84327917Y-60749164D01*
X84327917Y-60749164D02*
X84327917Y-60701545D01*
X84327917Y-60701545D02*
X84375536Y-60606307D01*
X84375536Y-60606307D02*
X84423155Y-60558688D01*
X84423155Y-60558688D02*
X84518393Y-60511069D01*
X84518393Y-60511069D02*
X84708869Y-60511069D01*
X84708869Y-60511069D02*
X84804107Y-60558688D01*
X84804107Y-60558688D02*
X84851726Y-60606307D01*
X84851726Y-60606307D02*
X84899345Y-60701545D01*
X84899345Y-60701545D02*
X84899345Y-60749164D01*
X84899345Y-60749164D02*
X84851726Y-60844402D01*
X84851726Y-60844402D02*
X84804107Y-60892021D01*
X84804107Y-60892021D02*
X84708869Y-60939640D01*
X84708869Y-60939640D02*
X84518393Y-60939640D01*
X84518393Y-60939640D02*
X84423155Y-60987259D01*
X84423155Y-60987259D02*
X84375536Y-61034878D01*
X84375536Y-61034878D02*
X84327917Y-61130116D01*
X84327917Y-61130116D02*
X84327917Y-61320592D01*
X84327917Y-61320592D02*
X84375536Y-61415830D01*
X84375536Y-61415830D02*
X84423155Y-61463450D01*
X84423155Y-61463450D02*
X84518393Y-61511069D01*
X84518393Y-61511069D02*
X84708869Y-61511069D01*
X84708869Y-61511069D02*
X84804107Y-61463450D01*
X84804107Y-61463450D02*
X84851726Y-61415830D01*
X84851726Y-61415830D02*
X84899345Y-61320592D01*
X84899345Y-61320592D02*
X84899345Y-61130116D01*
X84899345Y-61130116D02*
X84851726Y-61034878D01*
X84851726Y-61034878D02*
X84804107Y-60987259D01*
X84804107Y-60987259D02*
X84708869Y-60939640D01*
D12*
%TO.C,S19*%
X202132500Y-126250000D02*
X202132500Y-140450000D01*
X202132500Y-140450000D02*
X216332500Y-140450000D01*
X216332500Y-126250000D02*
X202132500Y-126250000D01*
X216332500Y-140450000D02*
X216332500Y-126250000D01*
D10*
%TO.C,D29*%
X106406250Y-83343750D02*
X106806250Y-83343750D01*
X106806250Y-82793750D02*
X106806250Y-83893750D01*
X106806250Y-83343750D02*
X107406250Y-82943750D01*
X107406250Y-82943750D02*
X107406250Y-83743750D01*
X107406250Y-83343750D02*
X107906250Y-83343750D01*
X107406250Y-83743750D02*
X106806250Y-83343750D01*
D12*
%TO.C,S20*%
X221500000Y-126250000D02*
X221500000Y-140450000D01*
X221500000Y-140450000D02*
X235700000Y-140450000D01*
X235700000Y-126250000D02*
X221500000Y-126250000D01*
X235700000Y-140450000D02*
X235700000Y-126250000D01*
D10*
%TO.C,D9*%
X104225000Y-114650000D02*
X105325000Y-114650000D01*
X104375000Y-114050000D02*
X105175000Y-114050000D01*
X104775000Y-114050000D02*
X104775000Y-113550000D01*
X104775000Y-114650000D02*
X104375000Y-114050000D01*
X104775000Y-115050000D02*
X104775000Y-114650000D01*
X105175000Y-114050000D02*
X104775000Y-114650000D01*
D12*
%TO.C,S15*%
X163556250Y-126567500D02*
X163556250Y-140767500D01*
X163556250Y-140767500D02*
X177756250Y-140767500D01*
X177756250Y-126567500D02*
X163556250Y-126567500D01*
X177756250Y-140767500D02*
X177756250Y-126567500D01*
%TO.C,S27*%
X52431250Y-61956250D02*
X52431250Y-76156250D01*
X52431250Y-76156250D02*
X66631250Y-76156250D01*
X66631250Y-61956250D02*
X52431250Y-61956250D01*
X66631250Y-76156250D02*
X66631250Y-61956250D01*
%TO.C,S21*%
X28618750Y-40525000D02*
X28618750Y-54725000D01*
X28618750Y-54725000D02*
X42818750Y-54725000D01*
X42818750Y-40525000D02*
X28618750Y-40525000D01*
X42818750Y-54725000D02*
X42818750Y-40525000D01*
D10*
%TO.C,D8*%
X118512500Y-114650000D02*
X119612500Y-114650000D01*
X118662500Y-114050000D02*
X119462500Y-114050000D01*
X119062500Y-114050000D02*
X119062500Y-113550000D01*
X119062500Y-114650000D02*
X118662500Y-114050000D01*
X119062500Y-115050000D02*
X119062500Y-114650000D01*
X119462500Y-114050000D02*
X119062500Y-114650000D01*
D12*
%TO.C,SW2*%
X254281250Y-119606250D02*
X254881250Y-119606250D01*
X254581250Y-119906250D02*
X254281250Y-119606250D01*
X254881250Y-119606250D02*
X254581250Y-119906250D01*
X255981250Y-117806250D02*
X255981250Y-129606250D01*
X260081250Y-117806250D02*
X255981250Y-117806250D01*
X260081250Y-129606250D02*
X255981250Y-129606250D01*
X261581250Y-123706250D02*
X262581250Y-123706250D01*
X262081250Y-123206250D02*
X262081250Y-124206250D01*
X264081250Y-117806250D02*
X268181250Y-117806250D01*
X268181250Y-117806250D02*
X268181250Y-120206250D01*
X268181250Y-122406250D02*
X268181250Y-125006250D01*
X268181250Y-127206250D02*
X268181250Y-129606250D01*
X268181250Y-129606250D02*
X264081250Y-129606250D01*
X265081250Y-123706250D02*
G75*
G02*
X259081250Y-123706250I-3000000J0D01*
G01*
X259081250Y-123706250D02*
G75*
G02*
X265081250Y-123706250I3000000J0D01*
G01*
%TO.C,S1*%
X20681250Y-145617500D02*
X20681250Y-159817500D01*
X20681250Y-159817500D02*
X34881250Y-159817500D01*
X34881250Y-145617500D02*
X20681250Y-145617500D01*
X34881250Y-159817500D02*
X34881250Y-145617500D01*
D10*
%TO.C,D28*%
X118312500Y-88106250D02*
X118712500Y-88106250D01*
X118712500Y-87556250D02*
X118712500Y-88656250D01*
X118712500Y-88106250D02*
X119312500Y-87706250D01*
X119312500Y-87706250D02*
X119312500Y-88506250D01*
X119312500Y-88106250D02*
X119812500Y-88106250D01*
X119312500Y-88506250D02*
X118712500Y-88106250D01*
D13*
%TO.C,U1*%
X165576250Y-68262500D02*
X165576250Y-42862500D01*
X168116250Y-40322500D02*
X183356250Y-40322500D01*
X183356250Y-70802500D02*
X168116250Y-70802500D01*
X185896250Y-42862500D02*
X185896250Y-68262500D01*
X165576250Y-42862500D02*
G75*
G02*
X168116250Y-40322500I2540000J0D01*
G01*
X168116250Y-70802500D02*
G75*
G02*
X165576250Y-68262500I1J2540001D01*
G01*
X183356250Y-40322500D02*
G75*
G02*
X185896250Y-42862500I0J-2540000D01*
G01*
X185896250Y-68262500D02*
G75*
G02*
X183356250Y-70802500I-2540001J1D01*
G01*
D12*
%TO.C,S6*%
X78466250Y-145617500D02*
X78466250Y-159817500D01*
X78466250Y-159817500D02*
X92666250Y-159817500D01*
X92666250Y-145617500D02*
X78466250Y-145617500D01*
X92666250Y-159817500D02*
X92666250Y-145617500D01*
%TO.C,S29*%
X97992500Y-61956250D02*
X97992500Y-76156250D01*
X97992500Y-76156250D02*
X112192500Y-76156250D01*
X112192500Y-61956250D02*
X97992500Y-61956250D01*
X112192500Y-76156250D02*
X112192500Y-61956250D01*
%TO.C,J1*%
X189170000Y-81438750D02*
X189170000Y-99278750D01*
X189170000Y-81438750D02*
X191830000Y-81438750D01*
X189170000Y-99278750D02*
X191830000Y-99278750D01*
X190500000Y-78838750D02*
X191830000Y-78838750D01*
X191830000Y-78838750D02*
X191830000Y-80168750D01*
X191830000Y-81438750D02*
X191830000Y-99278750D01*
D10*
%TO.C,D18*%
X213762500Y-116078750D02*
X214862500Y-116078750D01*
X213912500Y-115478750D02*
X214712500Y-115478750D01*
X214312500Y-115478750D02*
X214312500Y-114978750D01*
X214312500Y-116078750D02*
X213912500Y-115478750D01*
X214312500Y-116478750D02*
X214312500Y-116078750D01*
X214712500Y-115478750D02*
X214312500Y-116078750D01*
D12*
%TO.C,S11*%
X135298750Y-145617500D02*
X135298750Y-159817500D01*
X135298750Y-159817500D02*
X149498750Y-159817500D01*
X149498750Y-145617500D02*
X135298750Y-145617500D01*
X149498750Y-159817500D02*
X149498750Y-145617500D01*
D10*
%TO.C,D10*%
X111368750Y-114650000D02*
X112468750Y-114650000D01*
X111518750Y-114050000D02*
X112318750Y-114050000D01*
X111918750Y-114050000D02*
X111918750Y-113550000D01*
X111918750Y-114650000D02*
X111518750Y-114050000D01*
X111918750Y-115050000D02*
X111918750Y-114650000D01*
X112318750Y-114050000D02*
X111918750Y-114650000D01*
D12*
%TO.C,S13*%
X173716250Y-145617500D02*
X173716250Y-159817500D01*
X173716250Y-159817500D02*
X187916250Y-159817500D01*
X187916250Y-145617500D02*
X173716250Y-145617500D01*
X187916250Y-159817500D02*
X187916250Y-145617500D01*
D10*
%TO.C,D32*%
X86086250Y-92868750D02*
X86486250Y-92868750D01*
X86486250Y-92318750D02*
X86486250Y-93418750D01*
X86486250Y-92868750D02*
X87086250Y-92468750D01*
X87086250Y-92468750D02*
X87086250Y-93268750D01*
X87086250Y-92868750D02*
X87586250Y-92868750D01*
X87086250Y-93268750D02*
X86486250Y-92868750D01*
D12*
%TO.C,SW1*%
X254387500Y-93375063D02*
X254987500Y-93375063D01*
X254687500Y-93675063D02*
X254387500Y-93375063D01*
X254987500Y-93375063D02*
X254687500Y-93675063D01*
X256087500Y-91575063D02*
X256087500Y-103375063D01*
X260187500Y-91575063D02*
X256087500Y-91575063D01*
X260187500Y-103375063D02*
X256087500Y-103375063D01*
X261687500Y-97475063D02*
X262687500Y-97475063D01*
X262187500Y-96975063D02*
X262187500Y-97975063D01*
X264187500Y-91575063D02*
X268287500Y-91575063D01*
X268287500Y-91575063D02*
X268287500Y-93975063D01*
X268287500Y-96175063D02*
X268287500Y-98775063D01*
X268287500Y-100975063D02*
X268287500Y-103375063D01*
X268287500Y-103375063D02*
X264187500Y-103375063D01*
X265187500Y-97475063D02*
G75*
G02*
X259187500Y-97475063I-3000000J0D01*
G01*
X259187500Y-97475063D02*
G75*
G02*
X265187500Y-97475063I3000000J0D01*
G01*
D10*
%TO.C,D1*%
X32787500Y-114650000D02*
X33887500Y-114650000D01*
X32937500Y-114050000D02*
X33737500Y-114050000D01*
X33337500Y-114050000D02*
X33337500Y-113550000D01*
X33337500Y-114650000D02*
X32937500Y-114050000D01*
X33337500Y-115050000D02*
X33337500Y-114650000D01*
X33737500Y-114050000D02*
X33337500Y-114650000D01*
%TO.C,D25*%
X118312500Y-102393750D02*
X118712500Y-102393750D01*
X118712500Y-101843750D02*
X118712500Y-102943750D01*
X118712500Y-102393750D02*
X119312500Y-101993750D01*
X119312500Y-101993750D02*
X119312500Y-102793750D01*
X119312500Y-102393750D02*
X119812500Y-102393750D01*
X119312500Y-102793750D02*
X118712500Y-102393750D01*
%TO.C,D13*%
X163756250Y-114650000D02*
X164856250Y-114650000D01*
X163906250Y-114050000D02*
X164706250Y-114050000D01*
X164306250Y-114050000D02*
X164306250Y-113550000D01*
X164306250Y-114650000D02*
X163906250Y-114050000D01*
X164306250Y-115050000D02*
X164306250Y-114650000D01*
X164706250Y-114050000D02*
X164306250Y-114650000D01*
D12*
%TO.C,S30*%
X123868750Y-61956250D02*
X123868750Y-76156250D01*
X123868750Y-76156250D02*
X138068750Y-76156250D01*
X138068750Y-61956250D02*
X123868750Y-61956250D01*
X138068750Y-76156250D02*
X138068750Y-61956250D01*
%TO.C,S16*%
X193242500Y-145300000D02*
X193242500Y-159500000D01*
X193242500Y-159500000D02*
X207442500Y-159500000D01*
X207442500Y-145300000D02*
X193242500Y-145300000D01*
X207442500Y-159500000D02*
X207442500Y-145300000D01*
D10*
%TO.C,D23*%
X106406250Y-97631250D02*
X106806250Y-97631250D01*
X106806250Y-97081250D02*
X106806250Y-98181250D01*
X106806250Y-97631250D02*
X107406250Y-97231250D01*
X107406250Y-97231250D02*
X107406250Y-98031250D01*
X107406250Y-97631250D02*
X107906250Y-97631250D01*
X107406250Y-98031250D02*
X106806250Y-97631250D01*
D12*
%TO.C,S22*%
X52431250Y-40525000D02*
X52431250Y-54725000D01*
X52431250Y-54725000D02*
X66631250Y-54725000D01*
X66631250Y-40525000D02*
X52431250Y-40525000D01*
X66631250Y-54725000D02*
X66631250Y-40525000D01*
%TO.C,S26*%
X28618750Y-61956250D02*
X28618750Y-76156250D01*
X28618750Y-76156250D02*
X42818750Y-76156250D01*
X42818750Y-61956250D02*
X28618750Y-61956250D01*
X42818750Y-76156250D02*
X42818750Y-61956250D01*
D10*
%TO.C,D4*%
X42312500Y-114650000D02*
X43412500Y-114650000D01*
X42462500Y-114050000D02*
X43262500Y-114050000D01*
X42862500Y-114050000D02*
X42862500Y-113550000D01*
X42862500Y-114650000D02*
X42462500Y-114050000D01*
X42862500Y-115050000D02*
X42862500Y-114650000D01*
X43262500Y-114050000D02*
X42862500Y-114650000D01*
D12*
%TO.C,S8*%
X116248750Y-145617500D02*
X116248750Y-159817500D01*
X116248750Y-159817500D02*
X130448750Y-159817500D01*
X130448750Y-145617500D02*
X116248750Y-145617500D01*
X130448750Y-159817500D02*
X130448750Y-145617500D01*
D10*
%TO.C,D7*%
X125656250Y-114650000D02*
X126756250Y-114650000D01*
X125806250Y-114050000D02*
X126606250Y-114050000D01*
X126206250Y-114050000D02*
X126206250Y-113550000D01*
X126206250Y-114650000D02*
X125806250Y-114050000D01*
X126206250Y-115050000D02*
X126206250Y-114650000D01*
X126606250Y-114050000D02*
X126206250Y-114650000D01*
%TO.C,D6*%
X97081250Y-115602500D02*
X98181250Y-115602500D01*
X97231250Y-115002500D02*
X98031250Y-115002500D01*
X97631250Y-115002500D02*
X97631250Y-114502500D01*
X97631250Y-115602500D02*
X97231250Y-115002500D01*
X97631250Y-116002500D02*
X97631250Y-115602500D01*
X98031250Y-115002500D02*
X97631250Y-115602500D01*
%TO.C,D2*%
X58981250Y-114650000D02*
X60081250Y-114650000D01*
X59131250Y-114050000D02*
X59931250Y-114050000D01*
X59531250Y-114050000D02*
X59531250Y-113550000D01*
X59531250Y-114650000D02*
X59131250Y-114050000D01*
X59531250Y-115050000D02*
X59531250Y-114650000D01*
X59931250Y-114050000D02*
X59531250Y-114650000D01*
%TO.C,D20*%
X225668750Y-114650000D02*
X226768750Y-114650000D01*
X225818750Y-114050000D02*
X226618750Y-114050000D01*
X226218750Y-114050000D02*
X226218750Y-113550000D01*
X226218750Y-114650000D02*
X225818750Y-114050000D01*
X226218750Y-115050000D02*
X226218750Y-114650000D01*
X226618750Y-114050000D02*
X226218750Y-114650000D01*
D12*
%TO.C,J2*%
X160595000Y-87947500D02*
X160595000Y-95627500D01*
X160595000Y-87947500D02*
X163255000Y-87947500D01*
X160595000Y-95627500D02*
X163255000Y-95627500D01*
X161925000Y-85347500D02*
X163255000Y-85347500D01*
X163255000Y-85347500D02*
X163255000Y-86677500D01*
X163255000Y-87947500D02*
X163255000Y-95627500D01*
D10*
%TO.C,D12*%
X154231250Y-114650000D02*
X155331250Y-114650000D01*
X154381250Y-114050000D02*
X155181250Y-114050000D01*
X154781250Y-114050000D02*
X154781250Y-113550000D01*
X154781250Y-114650000D02*
X154381250Y-114050000D01*
X154781250Y-115050000D02*
X154781250Y-114650000D01*
X155181250Y-114050000D02*
X154781250Y-114650000D01*
D12*
%TO.C,S18*%
X231342500Y-145300000D02*
X231342500Y-159500000D01*
X231342500Y-159500000D02*
X245542500Y-159500000D01*
X245542500Y-145300000D02*
X231342500Y-145300000D01*
X245542500Y-159500000D02*
X245542500Y-145300000D01*
D10*
%TO.C,D26*%
X118312500Y-97631250D02*
X118712500Y-97631250D01*
X118712500Y-97081250D02*
X118712500Y-98181250D01*
X118712500Y-97631250D02*
X119312500Y-97231250D01*
X119312500Y-97231250D02*
X119312500Y-98031250D01*
X119312500Y-97631250D02*
X119812500Y-97631250D01*
X119312500Y-98031250D02*
X118712500Y-97631250D01*
D12*
%TO.C,S17*%
X211975000Y-145300000D02*
X211975000Y-159500000D01*
X211975000Y-159500000D02*
X226175000Y-159500000D01*
X226175000Y-145300000D02*
X211975000Y-145300000D01*
X226175000Y-159500000D02*
X226175000Y-145300000D01*
D10*
%TO.C,D19*%
X220906250Y-116078750D02*
X222006250Y-116078750D01*
X221056250Y-115478750D02*
X221856250Y-115478750D01*
X221456250Y-115478750D02*
X221456250Y-114978750D01*
X221456250Y-116078750D02*
X221056250Y-115478750D01*
X221456250Y-116478750D02*
X221456250Y-116078750D01*
X221856250Y-115478750D02*
X221456250Y-116078750D01*
D12*
%TO.C,S12*%
X154666250Y-145617500D02*
X154666250Y-159817500D01*
X154666250Y-159817500D02*
X168866250Y-159817500D01*
X168866250Y-145617500D02*
X154666250Y-145617500D01*
X168866250Y-159817500D02*
X168866250Y-145617500D01*
D10*
%TO.C,D31*%
X68306250Y-85725000D02*
X68706250Y-85725000D01*
X68706250Y-85175000D02*
X68706250Y-86275000D01*
X68706250Y-85725000D02*
X69306250Y-85325000D01*
X69306250Y-85325000D02*
X69306250Y-86125000D01*
X69306250Y-85725000D02*
X69806250Y-85725000D01*
X69306250Y-86125000D02*
X68706250Y-85725000D01*
D12*
%TO.C,S24*%
X97675000Y-40525000D02*
X97675000Y-54725000D01*
X97675000Y-54725000D02*
X111875000Y-54725000D01*
X111875000Y-40525000D02*
X97675000Y-40525000D01*
X111875000Y-54725000D02*
X111875000Y-40525000D01*
D10*
%TO.C,D21*%
X106406250Y-88106250D02*
X106806250Y-88106250D01*
X106806250Y-87556250D02*
X106806250Y-88656250D01*
X106806250Y-88106250D02*
X107406250Y-87706250D01*
X107406250Y-87706250D02*
X107406250Y-88506250D01*
X107406250Y-88106250D02*
X107906250Y-88106250D01*
X107406250Y-88506250D02*
X106806250Y-88106250D01*
%TO.C,D14*%
X137562500Y-114650000D02*
X138662500Y-114650000D01*
X137712500Y-114050000D02*
X138512500Y-114050000D01*
X138112500Y-114050000D02*
X138112500Y-113550000D01*
X138112500Y-114650000D02*
X137712500Y-114050000D01*
X138112500Y-115050000D02*
X138112500Y-114650000D01*
X138512500Y-114050000D02*
X138112500Y-114650000D01*
D12*
%TO.C,S5*%
X49573750Y-126567500D02*
X49573750Y-140767500D01*
X49573750Y-140767500D02*
X63773750Y-140767500D01*
X63773750Y-126567500D02*
X49573750Y-126567500D01*
X63773750Y-140767500D02*
X63773750Y-126567500D01*
D10*
%TO.C,D22*%
X106406250Y-92868750D02*
X106806250Y-92868750D01*
X106806250Y-92318750D02*
X106806250Y-93418750D01*
X106806250Y-92868750D02*
X107406250Y-92468750D01*
X107406250Y-92468750D02*
X107406250Y-93268750D01*
X107406250Y-92868750D02*
X107906250Y-92868750D01*
X107406250Y-93268750D02*
X106806250Y-92868750D01*
D12*
%TO.C,S25*%
X123551250Y-40525000D02*
X123551250Y-54725000D01*
X123551250Y-54725000D02*
X137751250Y-54725000D01*
X137751250Y-40525000D02*
X123551250Y-40525000D01*
X137751250Y-54725000D02*
X137751250Y-40525000D01*
%TO.C,S4*%
X30523750Y-126567500D02*
X30523750Y-140767500D01*
X30523750Y-140767500D02*
X44723750Y-140767500D01*
X44723750Y-126567500D02*
X30523750Y-126567500D01*
X44723750Y-140767500D02*
X44723750Y-126567500D01*
%TO.C,S7*%
X97516250Y-145617500D02*
X97516250Y-159817500D01*
X97516250Y-159817500D02*
X111716250Y-159817500D01*
X111716250Y-145617500D02*
X97516250Y-145617500D01*
X111716250Y-159817500D02*
X111716250Y-145617500D01*
D10*
%TO.C,D3*%
X51837500Y-114650000D02*
X52937500Y-114650000D01*
X51987500Y-114050000D02*
X52787500Y-114050000D01*
X52387500Y-114050000D02*
X52387500Y-113550000D01*
X52387500Y-114650000D02*
X51987500Y-114050000D01*
X52387500Y-115050000D02*
X52387500Y-114650000D01*
X52787500Y-114050000D02*
X52387500Y-114650000D01*
%TO.C,D17*%
X206618750Y-114650000D02*
X207718750Y-114650000D01*
X206768750Y-114050000D02*
X207568750Y-114050000D01*
X207168750Y-114050000D02*
X207168750Y-113550000D01*
X207168750Y-114650000D02*
X206768750Y-114050000D01*
X207168750Y-115050000D02*
X207168750Y-114650000D01*
X207568750Y-114050000D02*
X207168750Y-114650000D01*
%TO.C,D24*%
X106406250Y-102393750D02*
X106806250Y-102393750D01*
X106806250Y-101843750D02*
X106806250Y-102943750D01*
X106806250Y-102393750D02*
X107406250Y-101993750D01*
X107406250Y-101993750D02*
X107406250Y-102793750D01*
X107406250Y-102393750D02*
X107906250Y-102393750D01*
X107406250Y-102793750D02*
X106806250Y-102393750D01*
D12*
%TO.C,S23*%
X76561250Y-40525000D02*
X76561250Y-54725000D01*
X76561250Y-54725000D02*
X90761250Y-54725000D01*
X90761250Y-40525000D02*
X76561250Y-40525000D01*
X90761250Y-54725000D02*
X90761250Y-40525000D01*
D10*
%TO.C,D27*%
X119741250Y-92868750D02*
X120141250Y-92868750D01*
X120141250Y-92318750D02*
X120141250Y-93418750D01*
X120141250Y-92868750D02*
X120741250Y-92468750D01*
X120741250Y-92468750D02*
X120741250Y-93268750D01*
X120741250Y-92868750D02*
X121241250Y-92868750D01*
X120741250Y-93268750D02*
X120141250Y-92868750D01*
D12*
%TO.C,S10*%
X106723750Y-126567500D02*
X106723750Y-140767500D01*
X106723750Y-140767500D02*
X120923750Y-140767500D01*
X120923750Y-126567500D02*
X106723750Y-126567500D01*
X120923750Y-140767500D02*
X120923750Y-126567500D01*
D10*
%TO.C,D11*%
X144706250Y-114650000D02*
X145806250Y-114650000D01*
X144856250Y-114050000D02*
X145656250Y-114050000D01*
X145256250Y-114050000D02*
X145256250Y-113550000D01*
X145256250Y-114650000D02*
X144856250Y-114050000D01*
X145256250Y-115050000D02*
X145256250Y-114650000D01*
X145656250Y-114050000D02*
X145256250Y-114650000D01*
%TO.C,D15*%
X173281250Y-115602500D02*
X174381250Y-115602500D01*
X173431250Y-115002500D02*
X174231250Y-115002500D01*
X173831250Y-115002500D02*
X173831250Y-114502500D01*
X173831250Y-115602500D02*
X173431250Y-115002500D01*
X173831250Y-116002500D02*
X173831250Y-115602500D01*
X174231250Y-115002500D02*
X173831250Y-115602500D01*
D12*
%TO.C,S14*%
X145141250Y-126567500D02*
X145141250Y-140767500D01*
X145141250Y-140767500D02*
X159341250Y-140767500D01*
X159341250Y-126567500D02*
X145141250Y-126567500D01*
X159341250Y-140767500D02*
X159341250Y-126567500D01*
D10*
%TO.C,D5*%
X89937500Y-114650000D02*
X91037500Y-114650000D01*
X90087500Y-114050000D02*
X90887500Y-114050000D01*
X90487500Y-114050000D02*
X90487500Y-113550000D01*
X90487500Y-114650000D02*
X90087500Y-114050000D01*
X90487500Y-115050000D02*
X90487500Y-114650000D01*
X90887500Y-114050000D02*
X90487500Y-114650000D01*
D12*
%TO.C,S9*%
X87673750Y-126567500D02*
X87673750Y-140767500D01*
X87673750Y-140767500D02*
X101873750Y-140767500D01*
X101873750Y-126567500D02*
X87673750Y-126567500D01*
X101873750Y-140767500D02*
X101873750Y-126567500D01*
%TO.C,S3*%
X59098750Y-145617500D02*
X59098750Y-159817500D01*
X59098750Y-159817500D02*
X73298750Y-159817500D01*
X73298750Y-145617500D02*
X59098750Y-145617500D01*
X73298750Y-159817500D02*
X73298750Y-145617500D01*
%TO.C,S2*%
X40048750Y-145617500D02*
X40048750Y-159817500D01*
X40048750Y-159817500D02*
X54248750Y-159817500D01*
X54248750Y-145617500D02*
X40048750Y-145617500D01*
X54248750Y-159817500D02*
X54248750Y-145617500D01*
%TO.C,A1*%
X213227500Y-41223750D02*
X212747500Y-41223750D01*
X213227500Y-41223750D02*
X213227500Y-41643750D01*
X213227500Y-43763750D02*
X213227500Y-44183750D01*
X213227500Y-46303750D02*
X213227500Y-46723750D01*
X213227500Y-48843750D02*
X213227500Y-49263750D01*
X213227500Y-51383750D02*
X213227500Y-51803750D01*
X213227500Y-53923750D02*
X213227500Y-54343750D01*
X213227500Y-56463750D02*
X213227500Y-56883750D01*
X213227500Y-59003750D02*
X213227500Y-59423750D01*
X213227500Y-61543750D02*
X213227500Y-61963750D01*
X213227500Y-64083750D02*
X213227500Y-64503750D01*
X213227500Y-66623750D02*
X213227500Y-67043750D01*
X213227500Y-69163750D02*
X213227500Y-69583750D01*
X213227500Y-71703750D02*
X213227500Y-72123750D01*
X213227500Y-74243750D02*
X213227500Y-74663750D01*
X213227500Y-76783750D02*
X213227500Y-77203750D01*
X213227500Y-79323750D02*
X213227500Y-79743750D01*
X213227500Y-81863750D02*
X213227500Y-82283750D01*
X213227500Y-84403750D02*
X213227500Y-84823750D01*
X213227500Y-86943750D02*
X213227500Y-87363750D01*
X213257824Y-39103750D02*
X212747500Y-39103750D01*
X213567500Y-39103813D02*
X213567500Y-38746750D01*
X213567500Y-41223750D02*
X213567500Y-41643750D01*
X213567500Y-43763750D02*
X213567500Y-44183750D01*
X213567500Y-46303750D02*
X213567500Y-46723750D01*
X213567500Y-48843750D02*
X213567500Y-49263750D01*
X213567500Y-51383750D02*
X213567500Y-51803750D01*
X213567500Y-53923750D02*
X213567500Y-54343750D01*
X213567500Y-56463750D02*
X213567500Y-56883750D01*
X213567500Y-59003750D02*
X213567500Y-59423750D01*
X213567500Y-61543750D02*
X213567500Y-61963750D01*
X213567500Y-64083750D02*
X213567500Y-64503750D01*
X213567500Y-66623750D02*
X213567500Y-67043750D01*
X213567500Y-69163750D02*
X213567500Y-69583750D01*
X213567500Y-71703750D02*
X213567500Y-72123750D01*
X213567500Y-74243750D02*
X213567500Y-74663750D01*
X213567500Y-76783750D02*
X213567500Y-77203750D01*
X213567500Y-79323750D02*
X213567500Y-79743750D01*
X213567500Y-81863750D02*
X213567500Y-82283750D01*
X213567500Y-84403750D02*
X213567500Y-84823750D01*
X213567500Y-86943750D02*
X213567500Y-87363750D01*
X213567500Y-89483687D02*
X213567500Y-89840750D01*
X213837500Y-38683750D02*
X216327500Y-38683750D01*
X213837500Y-89903750D02*
X217675439Y-89903750D01*
X216327500Y-38683750D02*
X216327500Y-39597270D01*
X216327500Y-38683750D02*
X217675440Y-38683750D01*
X216327500Y-41990230D02*
X216327500Y-86597270D01*
X216327500Y-88990230D02*
X216327500Y-89903750D01*
X218599561Y-38683750D02*
X219602500Y-38683750D01*
X219602500Y-38683750D02*
X228072500Y-38683750D01*
X219937500Y-38683750D02*
X219937500Y-39599750D01*
X219937500Y-41987750D02*
X219937500Y-43203750D01*
X219937500Y-43203750D02*
X220233590Y-43203750D01*
X220237500Y-89903750D02*
X218599561Y-89903750D01*
X222591410Y-43203750D02*
X225083590Y-43203750D01*
X227437500Y-89903750D02*
X220237500Y-89903750D01*
X227441410Y-43203750D02*
X227737500Y-43203750D01*
X227737500Y-38683750D02*
X227737500Y-39599750D01*
X227737500Y-41987750D02*
X227737500Y-43203750D01*
X228072500Y-38683750D02*
X229075439Y-38683750D01*
X229075439Y-89903750D02*
X227437500Y-89903750D01*
X229999561Y-38683750D02*
X231347500Y-38683750D01*
X229999561Y-89903750D02*
X233837500Y-89903750D01*
X231347500Y-38683750D02*
X231347500Y-39597270D01*
X231347500Y-41990230D02*
X231347500Y-86597270D01*
X231347500Y-88990230D02*
X231347500Y-89903750D01*
X233837500Y-38683750D02*
X231347500Y-38683750D01*
X234107500Y-39103813D02*
X234107500Y-38746750D01*
X234107500Y-41223750D02*
X234107500Y-41643750D01*
X234107500Y-43763750D02*
X234107500Y-44183750D01*
X234107500Y-46303750D02*
X234107500Y-46723750D01*
X234107500Y-48843750D02*
X234107500Y-49263750D01*
X234107500Y-51383750D02*
X234107500Y-51803750D01*
X234107500Y-53923750D02*
X234107500Y-54343750D01*
X234107500Y-56463750D02*
X234107500Y-56883750D01*
X234107500Y-59003750D02*
X234107500Y-59423750D01*
X234107500Y-61543750D02*
X234107500Y-61963750D01*
X234107500Y-64083750D02*
X234107500Y-64503750D01*
X234107500Y-66623750D02*
X234107500Y-67043750D01*
X234107500Y-69163750D02*
X234107500Y-69583750D01*
X234107500Y-71703750D02*
X234107500Y-72123750D01*
X234107500Y-74243750D02*
X234107500Y-74663750D01*
X234107500Y-76783750D02*
X234107500Y-77203750D01*
X234107500Y-79323750D02*
X234107500Y-79743750D01*
X234107500Y-81863750D02*
X234107500Y-82283750D01*
X234107500Y-84403750D02*
X234107500Y-84823750D01*
X234107500Y-86943750D02*
X234107500Y-87363750D01*
X234107500Y-89483687D02*
X234107500Y-89840750D01*
X234447500Y-41223750D02*
X234447500Y-41643750D01*
X234447500Y-43763750D02*
X234447500Y-44183750D01*
X234447500Y-46303750D02*
X234447500Y-46723750D01*
X234447500Y-48843750D02*
X234447500Y-49263750D01*
X234447500Y-51383750D02*
X234447500Y-51803750D01*
X234447500Y-53923750D02*
X234447500Y-54343750D01*
X234447500Y-56463750D02*
X234447500Y-56883750D01*
X234447500Y-59003750D02*
X234447500Y-59423750D01*
X234447500Y-61543750D02*
X234447500Y-61963750D01*
X234447500Y-64083750D02*
X234447500Y-64503750D01*
X234447500Y-66623750D02*
X234447500Y-67043750D01*
X234447500Y-69163750D02*
X234447500Y-69583750D01*
X234447500Y-71703750D02*
X234447500Y-72123750D01*
X234447500Y-74243750D02*
X234447500Y-74663750D01*
X234447500Y-76783750D02*
X234447500Y-77203750D01*
X234447500Y-79323750D02*
X234447500Y-79743750D01*
X234447500Y-81863750D02*
X234447500Y-82283750D01*
X234447500Y-84403750D02*
X234447500Y-84823750D01*
X234447500Y-86943750D02*
X234447500Y-87363750D01*
X213257824Y-39103750D02*
G75*
G02*
X213837500Y-38683750I579692J-190051D01*
G01*
X213837500Y-89903750D02*
G75*
G02*
X213257824Y-89483687I1J610002D01*
G01*
X233837500Y-38683750D02*
G75*
G02*
X234417176Y-39103813I0J-610000D01*
G01*
X234417176Y-89483687D02*
G75*
G02*
X233837500Y-89903819I-579676J189837D01*
G01*
%TO.C,S28*%
X76561250Y-61956250D02*
X76561250Y-76156250D01*
X76561250Y-76156250D02*
X90761250Y-76156250D01*
X90761250Y-61956250D02*
X76561250Y-61956250D01*
X90761250Y-76156250D02*
X90761250Y-61956250D01*
D10*
%TO.C,D30*%
X47225000Y-86927500D02*
X47625000Y-86327500D01*
X47625000Y-85927500D02*
X47625000Y-86327500D01*
X47625000Y-86327500D02*
X48025000Y-86927500D01*
X47625000Y-86927500D02*
X47625000Y-87427500D01*
X48025000Y-86927500D02*
X47225000Y-86927500D01*
X48175000Y-86327500D02*
X47075000Y-86327500D01*
%TO.C,D16*%
X199475000Y-115602500D02*
X200575000Y-115602500D01*
X199625000Y-115002500D02*
X200425000Y-115002500D01*
X200025000Y-115002500D02*
X200025000Y-114502500D01*
X200025000Y-115602500D02*
X199625000Y-115002500D01*
X200025000Y-116002500D02*
X200025000Y-115602500D01*
X200425000Y-115002500D02*
X200025000Y-115602500D01*
%TD*%
M02*
